<svg xmlns="http://www.w3.org/2000/svg" viewBox="0 0 720 820" width="720" height="820" role="img">
  <defs>
    <radialGradient id="g200" cx="32%" cy="26%" r="85%">
      <stop offset="0%" stop-color="#fffdf8"/>
      <stop offset="55%" stop-color="#d99a2b" stop-opacity="0.30"/>
      <stop offset="100%" stop-color="#1f4a33" stop-opacity="0.42"/>
    </radialGradient>
    <linearGradient id="g200p" x1="0" y1="0" x2="0" y2="1">
      <stop offset="0%" stop-color="#fffdf8"/>
      <stop offset="100%" stop-color="#f1e7d2"/>
    </linearGradient>
  </defs>
  <rect width="720" height="820" fill="#faf4e8"/>
  <rect width="720" height="820" fill="url(#g200)"/>
  <circle cx="221" cy="500" r="1.5" fill="#4a2e20" opacity="0.06"/><circle cx="574" cy="380" r="2.4" fill="#4a2e20" opacity="0.04"/><circle cx="653" cy="263" r="2.2" fill="#4a2e20" opacity="0.07"/><circle cx="626" cy="216" r="2.4" fill="#4a2e20" opacity="0.08"/><circle cx="510" cy="347" r="2.4" fill="#4a2e20" opacity="0.03"/><circle cx="458" cy="305" r="2.5" fill="#4a2e20" opacity="0.06"/><circle cx="454" cy="284" r="1.8" fill="#4a2e20" opacity="0.05"/><circle cx="40" cy="782" r="1.7" fill="#4a2e20" opacity="0.04"/><circle cx="662" cy="716" r="1.9" fill="#4a2e20" opacity="0.07"/><circle cx="406" cy="732" r="2.4" fill="#4a2e20" opacity="0.07"/><circle cx="539" cy="480" r="2.1" fill="#4a2e20" opacity="0.03"/><circle cx="532" cy="727" r="1.7" fill="#4a2e20" opacity="0.03"/><circle cx="50" cy="518" r="1.8" fill="#4a2e20" opacity="0.03"/><circle cx="447" cy="556" r="2.2" fill="#4a2e20" opacity="0.06"/><circle cx="323" cy="583" r="1.4" fill="#4a2e20" opacity="0.04"/><circle cx="713" cy="308" r="1.8" fill="#4a2e20" opacity="0.06"/><circle cx="386" cy="516" r="0.7" fill="#4a2e20" opacity="0.05"/><circle cx="675" cy="4" r="2.3" fill="#4a2e20" opacity="0.04"/><circle cx="635" cy="656" r="1.5" fill="#4a2e20" opacity="0.07"/><circle cx="717" cy="671" r="1.2" fill="#4a2e20" opacity="0.07"/><circle cx="93" cy="554" r="1.7" fill="#4a2e20" opacity="0.08"/><circle cx="251" cy="149" r="1.1" fill="#4a2e20" opacity="0.08"/><circle cx="12" cy="351" r="1.5" fill="#4a2e20" opacity="0.05"/><circle cx="49" cy="504" r="0.5" fill="#4a2e20" opacity="0.03"/><circle cx="475" cy="535" r="0.6" fill="#4a2e20" opacity="0.06"/><circle cx="496" cy="186" r="2.4" fill="#4a2e20" opacity="0.07"/><circle cx="279" cy="428" r="2.3" fill="#4a2e20" opacity="0.06"/><circle cx="288" cy="758" r="1.6" fill="#4a2e20" opacity="0.08"/><circle cx="466" cy="802" r="1.1" fill="#4a2e20" opacity="0.02"/><circle cx="307" cy="541" r="2.4" fill="#4a2e20" opacity="0.04"/><circle cx="517" cy="362" r="1.9" fill="#4a2e20" opacity="0.08"/><circle cx="341" cy="342" r="1.5" fill="#4a2e20" opacity="0.06"/><circle cx="413" cy="559" r="1.4" fill="#4a2e20" opacity="0.06"/><circle cx="278" cy="274" r="2.3" fill="#4a2e20" opacity="0.04"/><circle cx="507" cy="190" r="1.8" fill="#4a2e20" opacity="0.05"/><circle cx="467" cy="269" r="1.8" fill="#4a2e20" opacity="0.06"/>
  <circle cx="360" cy="370" r="166" fill="#fffdf8" opacity="0.85"/>
  <circle cx="360" cy="370" r="166" fill="none" stroke="#f1e7d2" stroke-width="3"/><circle cx="360" cy="370" r="150" fill="#d99a2b"/>
  <circle cx="360" cy="370" r="150" fill="none" stroke="#4a2e20" stroke-opacity="0.35" stroke-width="3"/>
  <ellipse cx="318" cy="325" rx="67.5" ry="45" fill="#fff" opacity="0.16"/><g stroke="#4a2e20" stroke-opacity="0.5" stroke-width="3" stroke-linecap="round"><line x1="390" y1="370" x2="483" y2="370"/><line x1="381.2132034355964" y1="391.2132034355964" x2="446.97413408594537" y2="456.97413408594537"/><line x1="360" y1="400" x2="360" y2="493"/><line x1="338.7867965644036" y1="391.2132034355964" x2="273.02586591405463" y2="456.97413408594537"/><line x1="330" y1="370" x2="237" y2="370"/><line x1="338.7867965644036" y1="348.7867965644036" x2="273.02586591405463" y2="283.02586591405463"/><line x1="360" y1="340" x2="360" y2="247"/><line x1="381.2132034355964" y1="348.7867965644036" x2="446.9741340859453" y2="283.02586591405463"/></g><circle cx="180" cy="560" r="90" fill="#b4392b"/>
  <circle cx="180" cy="560" r="90" fill="none" stroke="#4a2e20" stroke-opacity="0.35" stroke-width="3"/>
  <ellipse cx="154.8" cy="533" rx="40.5" ry="27" fill="#fff" opacity="0.16"/><g stroke="#4a2e20" stroke-opacity="0.5" stroke-width="3" stroke-linecap="round"><line x1="198" y1="560" x2="253.8" y2="560"/><line x1="192.72792206135784" y1="572.7279220613578" x2="232.1844804515672" y2="612.1844804515672"/><line x1="180" y1="578" x2="180" y2="633.8"/><line x1="167.27207793864216" y1="572.7279220613578" x2="127.8155195484328" y2="612.1844804515672"/><line x1="162" y1="560" x2="106.2" y2="560"/><line x1="167.27207793864216" y1="547.2720779386422" x2="127.81551954843277" y2="507.8155195484328"/><line x1="180" y1="542" x2="180" y2="486.2"/><line x1="192.72792206135784" y1="547.2720779386422" x2="232.1844804515672" y2="507.8155195484328"/></g><circle cx="535" cy="560" r="95" fill="#b9781a"/>
  <circle cx="535" cy="560" r="95" fill="none" stroke="#4a2e20" stroke-opacity="0.35" stroke-width="3"/>
  <ellipse cx="508.4" cy="531.5" rx="42.75" ry="28.5" fill="#fff" opacity="0.16"/><ellipse cx="210" cy="224" rx="80" ry="33.6" fill="#f1e7d2" opacity="0.61" stroke="#4a2e20" stroke-opacity="0.25" stroke-width="2"/><ellipse cx="210" cy="210" rx="80" ry="33.6" fill="#f1e7d2" opacity="0.73" stroke="#4a2e20" stroke-opacity="0.25" stroke-width="2"/><ellipse cx="210" cy="196" rx="80" ry="33.6" fill="#f1e7d2" opacity="0.85" stroke="#4a2e20" stroke-opacity="0.25" stroke-width="2"/><circle cx="155.31093235313892" cy="178.47833030298352" r="3.93072289833799" fill="#4a2e20" opacity="0.18"/><circle cx="232.29121503978968" cy="196.85781074129045" r="2.2165650641545653" fill="#4a2e20" opacity="0.18"/><circle cx="206.21805484220386" cy="185.5970074366778" r="2.659976811846718" fill="#4a2e20" opacity="0.18"/><circle cx="235.74007406830788" cy="186.31262244097888" r="1.4678450918290764" fill="#4a2e20" opacity="0.18"/><circle cx="239.57806729525328" cy="196.73610182851553" r="1.5914117803331465" fill="#4a2e20" opacity="0.18"/><circle cx="195.2113624624908" cy="187.72989351674914" r="2.60421857656911" fill="#4a2e20" opacity="0.18"/><circle cx="187.1889878027141" cy="215.11784417927265" r="1.7426007827743888" fill="#4a2e20" opacity="0.18"/><circle cx="252.311314702034" cy="183.63166837394238" r="1.430972158210352" fill="#4a2e20" opacity="0.18"/><circle cx="171.3201313763857" cy="187.638048524037" r="2.643704294692725" fill="#4a2e20" opacity="0.18"/><circle cx="239.32985384762287" cy="178.9807236045599" r="3.738822123967111" fill="#4a2e20" opacity="0.18"/><circle cx="216.01560377329588" cy="200.86499335616827" r="3.0402727231848985" fill="#4a2e20" opacity="0.18"/><circle cx="262.1908468231559" cy="200.97522576712072" r="3.7636145802680403" fill="#4a2e20" opacity="0.18"/><circle cx="246.6943902336061" cy="177.59913895651698" r="1.5248246409464628" fill="#4a2e20" opacity="0.18"/><circle cx="193.98187358304858" cy="193.0126289781183" r="1.0605283428449184" fill="#4a2e20" opacity="0.18"/><rect x="494.5" y="180.5" width="91" height="119" rx="10" fill="#4a2e20"/>
  <rect x="494.5" y="180.5" width="91" height="26.18" fill="#4a2e20" opacity="0.4"/>
  <ellipse cx="540" cy="244" rx="25.480000000000004" ry="25.480000000000004" fill="#fffdf8" opacity="0.92"/><g fill="#4a2e20"><ellipse cx="473.5" cy="173.5" rx="11" ry="7" transform="rotate(-25 473.5 173.5)"/>
    <path d="M 464.5 173.5 Q 473.5 168.5 482.5 173.5" stroke="#faf4e8" stroke-width="1.5" fill="none" transform="rotate(-25 473.5 173.5)"/><ellipse cx="606.5" cy="186.8" rx="11" ry="7" transform="rotate(25 606.5 186.8)"/>
    <path d="M 597.5 186.8 Q 606.5 181.8 615.5 186.8" stroke="#faf4e8" stroke-width="1.5" fill="none" transform="rotate(25 606.5 186.8)"/><ellipse cx="540" cy="313.15" rx="11" ry="7" transform="rotate(0 540 313.15)"/>
    <path d="M 531 313.15 Q 540 308.15 549 313.15" stroke="#faf4e8" stroke-width="1.5" fill="none" transform="rotate(0 540 313.15)"/><ellipse cx="626.45" cy="319.8" rx="11" ry="7" transform="rotate(32.5 626.45 319.8)"/>
    <path d="M 617.45 319.8 Q 626.45 314.8 635.45 319.8" stroke="#faf4e8" stroke-width="1.5" fill="none" transform="rotate(32.5 626.45 319.8)"/></g><path d="M 390 670 L 390.0 670.0 L 390.5 670.1 L 391.0 670.3 L 391.4 670.6 L 391.8 671.1 L 392.0 671.7 L 392.1 672.3 L 392.0 673.0 L 391.8 673.7 L 391.4 674.4 L 390.9 675.1 L 390.2 675.7 L 389.3 676.2 L 388.4 676.5 L 387.3 676.7 L 386.1 676.7 L 384.9 676.5 L 383.7 676.1 L 382.4 675.5 L 381.3 674.6 L 380.3 673.5 L 379.3 672.3 L 378.6 670.8 L 378.1 669.2 L 377.8 667.4 L 377.8 665.6 L 378.1 663.7 L 378.7 661.8 L 379.6 659.9 L 380.7 658.2 L 382.2 656.5 L 384.0 655.1 L 386.0 653.9 L 388.2 653.0 L 390.6 652.4 L 393.2 652.1 L 395.8 652.2 L 398.4 652.8 L 401.0 653.7 L 403.5 655.0 L 405.9 656.7 L 408.0 658.7 L 409.9 661.1 L 411.4 663.9 L 412.6 666.8 L 413.3 670.0 L 413.6 673.3 L 413.4 676.7 L 412.7 680.1 L 411.5 683.5 L 409.9 686.7 L 407.7 689.7 L 405.1 692.4 L 402.0 694.7 L 398.7 696.6 L 395.0 698.1 L 391.0 699.0 L 386.9 699.4 L 382.7 699.2 L 378.5 698.4 L 374.4 696.9 L 370.5 694.9 L 366.9 692.3 L 363.6 689.2 L 360.7 685.6 L 358.3 681.5 L 356.5 677.1 L 355.3 672.4 L 354.8 667.5 L 355.0 662.6 L 355.9 657.6 L 357.5 652.7 L 359.8 648.1 L 362.8 643.7 L 366.4 639.8 L 370.6 636.3 L 375.2 633.5 L 380.3 631.3 L 385.8 629.8 L 391.4 629.1 L 397.2 629.1 L 403.0 630.1 L 408.6 631.8 L 414.1 634.3 L 419.1 637.6 L 423.8 641.7 L 427.8 646.4 L 431.2 651.7 L 433.9 657.4 L 435.7 663.6 L 436.7 670.0 L 436.7 676.6 L 435.9 683.1 L 434.1 689.6 L 431.3 695.8 L 427.7 701.7 L 423.3 707.0 L 418.1 711.7 L 412.3 715.7 L 405.9 718.8 L 399.0 721.1 L 391.8 722.3 L 384.5 722.6 L 377.1 721.8 L 369.8 720.0 L 362.8 717.2 L 356.2 713.3 L 350.1 708.5 L 344.7 702.9 L 340.1 696.5 L 336.4 689.5 L 333.7 682.0 L 332.1 674.1 L 331.6 665.9 L 332.2 657.7 L 334.0 649.6 L 336.9 641.8 L 340.9 634.3 L 346.0 627.5 L 352.0 621.4 L 358.9 616.1 L 366.5 611.8 L 374.7 608.6 L 383.3 606.6 L 392.2 605.7 L 401.3 606.2 L 410.2 607.9 L 418.9 610.8 L 427.1 615.0 L 434.8 620.3 L 441.6 626.7 L 447.6 634.0 L 452.5 642.2 L 456.3 651.0 L 458.8 660.3" fill="none" stroke="#b4392b" stroke-width="9" stroke-linecap="round" opacity="0.9"/>
  <path d="M 390 670 L 390.0 670.0 L 390.5 670.1 L 391.0 670.3 L 391.4 670.6 L 391.8 671.1 L 392.0 671.7 L 392.1 672.3 L 392.0 673.0 L 391.8 673.7 L 391.4 674.4 L 390.9 675.1 L 390.2 675.7 L 389.3 676.2 L 388.4 676.5 L 387.3 676.7 L 386.1 676.7 L 384.9 676.5 L 383.7 676.1 L 382.4 675.5 L 381.3 674.6 L 380.3 673.5 L 379.3 672.3 L 378.6 670.8 L 378.1 669.2 L 377.8 667.4 L 377.8 665.6 L 378.1 663.7 L 378.7 661.8 L 379.6 659.9 L 380.7 658.2 L 382.2 656.5 L 384.0 655.1 L 386.0 653.9 L 388.2 653.0 L 390.6 652.4 L 393.2 652.1 L 395.8 652.2 L 398.4 652.8 L 401.0 653.7 L 403.5 655.0 L 405.9 656.7 L 408.0 658.7 L 409.9 661.1 L 411.4 663.9 L 412.6 666.8 L 413.3 670.0 L 413.6 673.3 L 413.4 676.7 L 412.7 680.1 L 411.5 683.5 L 409.9 686.7 L 407.7 689.7 L 405.1 692.4 L 402.0 694.7 L 398.7 696.6 L 395.0 698.1 L 391.0 699.0 L 386.9 699.4 L 382.7 699.2 L 378.5 698.4 L 374.4 696.9 L 370.5 694.9 L 366.9 692.3 L 363.6 689.2 L 360.7 685.6 L 358.3 681.5 L 356.5 677.1 L 355.3 672.4 L 354.8 667.5 L 355.0 662.6 L 355.9 657.6 L 357.5 652.7 L 359.8 648.1 L 362.8 643.7 L 366.4 639.8 L 370.6 636.3 L 375.2 633.5 L 380.3 631.3 L 385.8 629.8 L 391.4 629.1 L 397.2 629.1 L 403.0 630.1 L 408.6 631.8 L 414.1 634.3 L 419.1 637.6 L 423.8 641.7 L 427.8 646.4 L 431.2 651.7 L 433.9 657.4 L 435.7 663.6 L 436.7 670.0 L 436.7 676.6 L 435.9 683.1 L 434.1 689.6 L 431.3 695.8 L 427.7 701.7 L 423.3 707.0 L 418.1 711.7 L 412.3 715.7 L 405.9 718.8 L 399.0 721.1 L 391.8 722.3 L 384.5 722.6 L 377.1 721.8 L 369.8 720.0 L 362.8 717.2 L 356.2 713.3 L 350.1 708.5 L 344.7 702.9 L 340.1 696.5 L 336.4 689.5 L 333.7 682.0 L 332.1 674.1 L 331.6 665.9 L 332.2 657.7 L 334.0 649.6 L 336.9 641.8 L 340.9 634.3 L 346.0 627.5 L 352.0 621.4 L 358.9 616.1 L 366.5 611.8 L 374.7 608.6 L 383.3 606.6 L 392.2 605.7 L 401.3 606.2 L 410.2 607.9 L 418.9 610.8 L 427.1 615.0 L 434.8 620.3 L 441.6 626.7 L 447.6 634.0 L 452.5 642.2 L 456.3 651.0 L 458.8 660.3" fill="none" stroke="#d99a2b" stroke-width="3" stroke-linecap="round" opacity="0.6"/><g stroke="#4a2e20" stroke-opacity="0.18" stroke-width="4" fill="none" stroke-linecap="round">
    <path d="M 342 undefined q 10 -20 0 -40 q -10 -20 0 -40"/>
    <path d="M 378 undefined q 10 -20 0 -40 q -10 -20 0 -40"/>
  </g>
  
</svg>