<svg xmlns="http://www.w3.org/2000/svg" viewBox="0 0 720 820" width="720" height="820" role="img">
  <defs>
    <radialGradient id="g200" cx="32%" cy="26%" r="85%">
      <stop offset="0%" stop-color="#fffdf8"/>
      <stop offset="55%" stop-color="#d99a2b" stop-opacity="0.30"/>
      <stop offset="100%" stop-color="#1f4a33" stop-opacity="0.42"/>
    </radialGradient>
    <linearGradient id="g200p" x1="0" y1="0" x2="0" y2="1">
      <stop offset="0%" stop-color="#fffdf8"/>
      <stop offset="100%" stop-color="#f1e7d2"/>
    </linearGradient>
  </defs>
  <rect width="720" height="820" fill="#faf4e8"/>
  <rect width="720" height="820" fill="url(#g200)"/>
  <circle cx="221" cy="500" r="1.5" fill="#4a2e20" opacity="0.06"/><circle cx="574" cy="380" r="2.4" fill="#4a2e20" opacity="0.04"/><circle cx="653" cy="263" r="2.2" fill="#4a2e20" opacity="0.07"/><circle cx="626" cy="216" r="2.4" fill="#4a2e20" opacity="0.08"/><circle cx="510" cy="347" r="2.4" fill="#4a2e20" opacity="0.03"/><circle cx="458" cy="305" r="2.5" fill="#4a2e20" opacity="0.06"/><circle cx="454" cy="284" r="1.8" fill="#4a2e20" opacity="0.05"/><circle cx="40" cy="782" r="1.7" fill="#4a2e20" opacity="0.04"/><circle cx="662" cy="716" r="1.9" fill="#4a2e20" opacity="0.07"/><circle cx="406" cy="732" r="2.4" fill="#4a2e20" opacity="0.07"/><circle cx="539" cy="480" r="2.1" fill="#4a2e20" opacity="0.03"/><circle cx="532" cy="727" r="1.7" fill="#4a2e20" opacity="0.03"/><circle cx="50" cy="518" r="1.8" fill="#4a2e20" opacity="0.03"/><circle cx="447" cy="556" r="2.2" fill="#4a2e20" opacity="0.06"/><circle cx="323" cy="583" r="1.4" fill="#4a2e20" opacity="0.04"/><circle cx="713" cy="308" r="1.8" fill="#4a2e20" opacity="0.06"/><circle cx="386" cy="516" r="0.7" fill="#4a2e20" opacity="0.05"/><circle cx="675" cy="4" r="2.3" fill="#4a2e20" opacity="0.04"/><circle cx="635" cy="656" r="1.5" fill="#4a2e20" opacity="0.07"/><circle cx="717" cy="671" r="1.2" fill="#4a2e20" opacity="0.07"/><circle cx="93" cy="554" r="1.7" fill="#4a2e20" opacity="0.08"/><circle cx="251" cy="149" r="1.1" fill="#4a2e20" opacity="0.08"/><circle cx="12" cy="351" r="1.5" fill="#4a2e20" opacity="0.05"/><circle cx="49" cy="504" r="0.5" fill="#4a2e20" opacity="0.03"/><circle cx="475" cy="535" r="0.6" fill="#4a2e20" opacity="0.06"/><circle cx="496" cy="186" r="2.4" fill="#4a2e20" opacity="0.07"/><circle cx="279" cy="428" r="2.3" fill="#4a2e20" opacity="0.06"/><circle cx="288" cy="758" r="1.6" fill="#4a2e20" opacity="0.08"/><circle cx="466" cy="802" r="1.1" fill="#4a2e20" opacity="0.02"/><circle cx="307" cy="541" r="2.4" fill="#4a2e20" opacity="0.04"/><circle cx="517" cy="362" r="1.9" fill="#4a2e20" opacity="0.08"/><circle cx="341" cy="342" r="1.5" fill="#4a2e20" opacity="0.06"/><circle cx="413" cy="559" r="1.4" fill="#4a2e20" opacity="0.06"/><circle cx="278" cy="274" r="2.3" fill="#4a2e20" opacity="0.04"/><circle cx="507" cy="190" r="1.8" fill="#4a2e20" opacity="0.05"/><circle cx="467" cy="269" r="1.8" fill="#4a2e20" opacity="0.06"/>
  <circle cx="360" cy="370" r="166" fill="#fffdf8" opacity="0.85"/>
  <circle cx="360" cy="370" r="166" fill="none" stroke="#f1e7d2" stroke-width="3"/><circle cx="360" cy="370" r="150" fill="#d99a2b"/>
  <circle cx="360" cy="370" r="150" fill="none" stroke="#4a2e20" stroke-opacity="0.35" stroke-width="3"/>
  <ellipse cx="318" cy="325" rx="67.5" ry="45" fill="#fff" opacity="0.16"/><g stroke="#4a2e20" stroke-opacity="0.5" stroke-width="3" stroke-linecap="round"><line x1="390" y1="370" x2="483" y2="370"/><line x1="381.2132034355964" y1="391.2132034355964" x2="446.97413408594537" y2="456.97413408594537"/><line x1="360" y1="400" x2="360" y2="493"/><line x1="338.7867965644036" y1="391.2132034355964" x2="273.02586591405463" y2="456.97413408594537"/><line x1="330" y1="370" x2="237" y2="370"/><line x1="338.7867965644036" y1="348.7867965644036" x2="273.02586591405463" y2="283.02586591405463"/><line x1="360" y1="340" x2="360" y2="247"/><line x1="381.2132034355964" y1="348.7867965644036" x2="446.9741340859453" y2="283.02586591405463"/></g><circle cx="180" cy="560" r="90" fill="#b4392b"/>
  <circle cx="180" cy="560" r="90" fill="none" stroke="#4a2e20" stroke-opacity="0.35" stroke-width="3"/>
  <ellipse cx="154.8" cy="533" rx="40.5" ry="27" fill="#fff" opacity="0.16"/><g stroke="#4a2e20" stroke-opacity="0.5" stroke-width="3" stroke-linecap="round"><line x1="198" y1="560" x2="253.8" y2="560"/><line x1="192.72792206135784" y1="572.7279220613578" x2="232.1844804515672" y2="612.1844804515672"/><line x1="180" y1="578" x2="180" y2="633.8"/><line x1="167.27207793864216" y1="572.7279220613578" x2="127.8155195484328" y2="612.1844804515672"/><line x1="162" y1="560" x2="106.2" y2="560"/><line x1="167.27207793864216" y1="547.2720779386422" x2="127.81551954843277" y2="507.8155195484328"/><line x1="180" y1="542" x2="180" y2="486.2"/><line x1="192.72792206135784" y1="547.2720779386422" x2="232.1844804515672" y2="507.8155195484328"/></g><circle cx="535" cy="560" r="95" fill="#b9781a"/>
  <circle cx="535" cy="560" r="95" fill="none" stroke="#4a2e20" stroke-opacity="0.35" stroke-width="3"/>
  <ellipse cx="508.4" cy="531.5" rx="42.75" ry="28.5" fill="#fff" opacity="0.16"/><rect x="143.7" y="166.25" width="132.6" height="97.5" rx="12" fill="#d99a2b"/><rect x="143.7" y="166.25" width="132.6" height="33.150000000000006" rx="12" fill="#fffdf8" opacity="0.95"/><rect x="143.7" y="211.1" width="132.6" height="6" fill="#fffdf8" opacity="0.5"/><circle cx="210" cy="179.9" r="8" fill="#b4392b"/><rect x="494.5" y="180.5" width="91" height="119" rx="10" fill="#4a2e20"/>
  <rect x="494.5" y="180.5" width="91" height="26.18" fill="#4a2e20" opacity="0.4"/>
  <ellipse cx="540" cy="244" rx="25.480000000000004" ry="25.480000000000004" fill="#fffdf8" opacity="0.92"/><g fill="#4a2e20"><ellipse cx="473.5" cy="173.5" rx="11" ry="7" transform="rotate(-25 473.5 173.5)"/>
    <path d="M 464.5 173.5 Q 473.5 168.5 482.5 173.5" stroke="#faf4e8" stroke-width="1.5" fill="none" transform="rotate(-25 473.5 173.5)"/><ellipse cx="606.5" cy="186.8" rx="11" ry="7" transform="rotate(25 606.5 186.8)"/>
    <path d="M 597.5 186.8 Q 606.5 181.8 615.5 186.8" stroke="#faf4e8" stroke-width="1.5" fill="none" transform="rotate(25 606.5 186.8)"/><ellipse cx="540" cy="313.15" rx="11" ry="7" transform="rotate(0 540 313.15)"/>
    <path d="M 531 313.15 Q 540 308.15 549 313.15" stroke="#faf4e8" stroke-width="1.5" fill="none" transform="rotate(0 540 313.15)"/><ellipse cx="626.45" cy="319.8" rx="11" ry="7" transform="rotate(32.5 626.45 319.8)"/>
    <path d="M 617.45 319.8 Q 626.45 314.8 635.45 319.8" stroke="#faf4e8" stroke-width="1.5" fill="none" transform="rotate(32.5 626.45 319.8)"/></g><rect x="337.5" y="635.59" width="93" height="82.46000000000001" rx="16" fill="#b4392b"/><rect x="337.5" y="621.95" width="93" height="23.56" rx="9" fill="#4a2e20" opacity="0.85"/><rect x="344.5" y="662.312" width="79" height="28.830000000000002" rx="7" fill="#fffdf8" opacity="0.88"/><g stroke="#4a2e20" stroke-opacity="0.18" stroke-width="4" fill="none" stroke-linecap="round">
    <path d="M 342 undefined q 10 -20 0 -40 q -10 -20 0 -40"/>
    <path d="M 378 undefined q 10 -20 0 -40 q -10 -20 0 -40"/>
  </g>
  
</svg>