<svg xmlns="http://www.w3.org/2000/svg" viewBox="0 0 1200 630" width="1200" height="630" role="img">
  <defs>
    <radialGradient id="g400" cx="32%" cy="26%" r="85%">
      <stop offset="0%" stop-color="#fffdf8"/>
      <stop offset="55%" stop-color="#d99a2b" stop-opacity="0.30"/>
      <stop offset="100%" stop-color="#1f4a33" stop-opacity="0.42"/>
    </radialGradient>
    <linearGradient id="g400p" x1="0" y1="0" x2="0" y2="1">
      <stop offset="0%" stop-color="#fffdf8"/>
      <stop offset="100%" stop-color="#f1e7d2"/>
    </linearGradient>
  </defs>
  <rect width="1200" height="630" fill="#faf4e8"/>
  <rect width="1200" height="630" fill="url(#g400)"/>
  <circle cx="742" cy="313" r="0.6" fill="#4a2e20" opacity="0.05"/><circle cx="1021" cy="493" r="2.4" fill="#4a2e20" opacity="0.06"/><circle cx="1113" cy="323" r="2.2" fill="#4a2e20" opacity="0.03"/><circle cx="157" cy="261" r="1.9" fill="#4a2e20" opacity="0.04"/><circle cx="672" cy="473" r="1.4" fill="#4a2e20" opacity="0.04"/><circle cx="234" cy="98" r="2.3" fill="#4a2e20" opacity="0.05"/><circle cx="1117" cy="509" r="1.8" fill="#4a2e20" opacity="0.05"/><circle cx="99" cy="621" r="2.1" fill="#4a2e20" opacity="0.08"/><circle cx="207" cy="260" r="1.4" fill="#4a2e20" opacity="0.04"/><circle cx="277" cy="5" r="1.4" fill="#4a2e20" opacity="0.04"/><circle cx="126" cy="567" r="0.6" fill="#4a2e20" opacity="0.04"/><circle cx="219" cy="263" r="0.5" fill="#4a2e20" opacity="0.02"/><circle cx="190" cy="282" r="0.9" fill="#4a2e20" opacity="0.05"/><circle cx="952" cy="167" r="1.1" fill="#4a2e20" opacity="0.04"/><circle cx="1073" cy="396" r="2.3" fill="#4a2e20" opacity="0.08"/><circle cx="766" cy="311" r="2.1" fill="#4a2e20" opacity="0.04"/><circle cx="755" cy="461" r="1.4" fill="#4a2e20" opacity="0.08"/><circle cx="667" cy="555" r="1.0" fill="#4a2e20" opacity="0.06"/><circle cx="626" cy="330" r="0.6" fill="#4a2e20" opacity="0.03"/><circle cx="441" cy="350" r="0.8" fill="#4a2e20" opacity="0.05"/><circle cx="676" cy="542" r="2.2" fill="#4a2e20" opacity="0.06"/><circle cx="911" cy="602" r="0.9" fill="#4a2e20" opacity="0.08"/><circle cx="551" cy="378" r="2.1" fill="#4a2e20" opacity="0.07"/><circle cx="3" cy="18" r="1.0" fill="#4a2e20" opacity="0.03"/><circle cx="988" cy="376" r="1.0" fill="#4a2e20" opacity="0.03"/><circle cx="426" cy="257" r="1.6" fill="#4a2e20" opacity="0.05"/><circle cx="1083" cy="147" r="1.7" fill="#4a2e20" opacity="0.05"/><circle cx="937" cy="90" r="0.7" fill="#4a2e20" opacity="0.04"/><circle cx="428" cy="265" r="2.3" fill="#4a2e20" opacity="0.02"/><circle cx="583" cy="100" r="0.7" fill="#4a2e20" opacity="0.03"/><circle cx="822" cy="141" r="1.5" fill="#4a2e20" opacity="0.04"/><circle cx="365" cy="274" r="1.8" fill="#4a2e20" opacity="0.04"/><circle cx="288" cy="166" r="1.4" fill="#4a2e20" opacity="0.05"/><circle cx="389" cy="486" r="2.1" fill="#4a2e20" opacity="0.06"/><circle cx="425" cy="150" r="1.4" fill="#4a2e20" opacity="0.05"/><circle cx="129" cy="213" r="0.7" fill="#4a2e20" opacity="0.06"/>
  <circle cx="240" cy="315" r="166" fill="#fffdf8" opacity="0.85"/>
  <circle cx="240" cy="315" r="166" fill="none" stroke="#f1e7d2" stroke-width="3"/><circle cx="240" cy="315" r="150" fill="#d99a2b"/>
  <circle cx="240" cy="315" r="150" fill="none" stroke="#4a2e20" stroke-opacity="0.35" stroke-width="3"/>
  <ellipse cx="198" cy="270" rx="67.5" ry="45" fill="#fff" opacity="0.16"/><g stroke="#4a2e20" stroke-opacity="0.5" stroke-width="3" stroke-linecap="round"><line x1="270" y1="315" x2="363" y2="315"/><line x1="261.2132034355964" y1="336.2132034355964" x2="326.97413408594537" y2="401.97413408594537"/><line x1="240" y1="345" x2="240" y2="438"/><line x1="218.78679656440357" y1="336.2132034355964" x2="153.02586591405466" y2="401.97413408594537"/><line x1="210" y1="315" x2="117.00000000000001" y2="315"/><line x1="218.78679656440357" y1="293.7867965644036" x2="153.02586591405463" y2="228.02586591405466"/><line x1="240" y1="285" x2="239.99999999999997" y2="192"/><line x1="261.2132034355964" y1="293.7867965644036" x2="326.9741340859453" y2="228.02586591405463"/></g>
    <text x="660" y="275" text-anchor="middle" font-family="Georgia, serif" font-size="76" fill="#4a2e20">Selam Bakehouse</text>
    <text x="660" y="351" text-anchor="middle" font-family="Georgia, serif" font-size="34" font-style="italic" fill="#b4392b">Ethiopian baking, the welcome of a shared table.</text>
    <text x="660" y="411" text-anchor="middle" font-family="Georgia, serif" font-size="26" fill="#1f4a33">St. Paul, Minnesota</text>
  
</svg>