<svg xmlns="http://www.w3.org/2000/svg" viewBox="0 0 640 520" width="640" height="520" role="img">
  <defs>
    <radialGradient id="g301" cx="32%" cy="26%" r="85%">
      <stop offset="0%" stop-color="#fffdf8"/>
      <stop offset="55%" stop-color="#1f4a33" stop-opacity="0.30"/>
      <stop offset="100%" stop-color="#b4392b" stop-opacity="0.42"/>
    </radialGradient>
    <linearGradient id="g301p" x1="0" y1="0" x2="0" y2="1">
      <stop offset="0%" stop-color="#fffdf8"/>
      <stop offset="100%" stop-color="#f1e7d2"/>
    </linearGradient>
  </defs>
  <rect width="640" height="520" fill="#faf4e8"/>
  <rect width="640" height="520" fill="url(#g301)"/>
  <circle cx="316" cy="139" r="2.1" fill="#4a2e20" opacity="0.08"/><circle cx="398" cy="436" r="0.5" fill="#4a2e20" opacity="0.07"/><circle cx="178" cy="75" r="1.2" fill="#4a2e20" opacity="0.06"/><circle cx="72" cy="3" r="0.7" fill="#4a2e20" opacity="0.06"/><circle cx="275" cy="414" r="0.8" fill="#4a2e20" opacity="0.03"/><circle cx="170" cy="422" r="0.9" fill="#4a2e20" opacity="0.06"/><circle cx="586" cy="234" r="2.0" fill="#4a2e20" opacity="0.04"/><circle cx="48" cy="122" r="2.0" fill="#4a2e20" opacity="0.05"/><circle cx="440" cy="346" r="1.4" fill="#4a2e20" opacity="0.04"/><circle cx="262" cy="473" r="2.0" fill="#4a2e20" opacity="0.03"/><circle cx="240" cy="225" r="0.5" fill="#4a2e20" opacity="0.06"/><circle cx="229" cy="56" r="0.9" fill="#4a2e20" opacity="0.06"/><circle cx="185" cy="71" r="1.6" fill="#4a2e20" opacity="0.05"/><circle cx="372" cy="478" r="1.1" fill="#4a2e20" opacity="0.03"/><circle cx="63" cy="120" r="2.1" fill="#4a2e20" opacity="0.03"/><circle cx="306" cy="413" r="1.2" fill="#4a2e20" opacity="0.05"/><circle cx="375" cy="502" r="0.7" fill="#4a2e20" opacity="0.04"/><circle cx="197" cy="57" r="1.8" fill="#4a2e20" opacity="0.03"/><circle cx="493" cy="376" r="0.8" fill="#4a2e20" opacity="0.05"/><circle cx="389" cy="40" r="0.8" fill="#4a2e20" opacity="0.03"/><circle cx="285" cy="484" r="1.6" fill="#4a2e20" opacity="0.06"/><circle cx="101" cy="336" r="1.2" fill="#4a2e20" opacity="0.06"/><circle cx="373" cy="145" r="1.1" fill="#4a2e20" opacity="0.03"/><circle cx="259" cy="332" r="0.8" fill="#4a2e20" opacity="0.06"/><circle cx="269" cy="105" r="1.1" fill="#4a2e20" opacity="0.07"/><circle cx="93" cy="57" r="2.2" fill="#4a2e20" opacity="0.04"/><circle cx="331" cy="495" r="2.0" fill="#4a2e20" opacity="0.04"/><circle cx="105" cy="502" r="1.1" fill="#4a2e20" opacity="0.05"/><circle cx="446" cy="251" r="1.1" fill="#4a2e20" opacity="0.07"/><circle cx="417" cy="519" r="2.4" fill="#4a2e20" opacity="0.07"/><circle cx="435" cy="86" r="0.6" fill="#4a2e20" opacity="0.04"/><circle cx="463" cy="224" r="0.9" fill="#4a2e20" opacity="0.03"/><circle cx="499" cy="485" r="0.9" fill="#4a2e20" opacity="0.05"/><circle cx="293" cy="91" r="1.1" fill="#4a2e20" opacity="0.06"/><circle cx="230" cy="417" r="0.7" fill="#4a2e20" opacity="0.04"/><circle cx="68" cy="422" r="0.9" fill="#4a2e20" opacity="0.04"/>
  <circle cx="320" cy="260" r="146" fill="#fffdf8" opacity="0.85"/>
  <circle cx="320" cy="260" r="146" fill="none" stroke="#f1e7d2" stroke-width="3"/><ellipse cx="320" cy="274" rx="130" ry="54.6" fill="#f1e7d2" opacity="0.61" stroke="#4a2e20" stroke-opacity="0.25" stroke-width="2"/><ellipse cx="320" cy="260" rx="130" ry="54.6" fill="#f1e7d2" opacity="0.73" stroke="#4a2e20" stroke-opacity="0.25" stroke-width="2"/><ellipse cx="320" cy="246" rx="130" ry="54.6" fill="#f1e7d2" opacity="0.85" stroke="#4a2e20" stroke-opacity="0.25" stroke-width="2"/><circle cx="231.13026507385075" cy="217.52728674234822" r="3.93072289833799" fill="#4a2e20" opacity="0.18"/><circle cx="356.2232244396582" cy="247.39394245459698" r="2.2165650641545653" fill="#4a2e20" opacity="0.18"/><circle cx="313.85433911858127" cy="229.09513708460145" r="2.659976811846718" fill="#4a2e20" opacity="0.18"/><circle cx="361.8276203610003" cy="230.2580114665907" r="1.4678450918290764" fill="#4a2e20" opacity="0.18"/><circle cx="368.0643593547866" cy="247.19616547133774" r="1.5914117803331465" fill="#4a2e20" opacity="0.18"/><circle cx="295.96846400154755" cy="232.56107696471736" r="2.60421857656911" fill="#4a2e20" opacity="0.18"/><circle cx="282.9321051794104" cy="277.06649679131806" r="1.7426007827743888" fill="#4a2e20" opacity="0.18"/><circle cx="388.75588639080524" cy="225.90146110765636" r="1.430972158210352" fill="#4a2e20" opacity="0.18"/><circle cx="257.14521348662674" cy="232.41182885156013" r="2.643704294692725" fill="#4a2e20" opacity="0.18"/><circle cx="367.66101250238717" cy="218.34367585740983" r="3.738822123967111" fill="#4a2e20" opacity="0.18"/><circle cx="329.7753561316058" cy="253.90561420377344" r="3.0402727231848985" fill="#4a2e20" opacity="0.18"/><circle cx="404.8101260876283" cy="254.08474187157117" r="3.7636145802680403" fill="#4a2e20" opacity="0.18"/><circle cx="379.6283841296099" cy="216.0986008043401" r="1.5248246409464628" fill="#4a2e20" opacity="0.18"/><circle cx="293.97054457245395" cy="241.14552208944224" r="1.0605283428449184" fill="#4a2e20" opacity="0.18"/><circle cx="470" cy="320" r="70" fill="#b4392b"/>
  <circle cx="470" cy="320" r="70" fill="none" stroke="#4a2e20" stroke-opacity="0.35" stroke-width="3"/>
  <ellipse cx="450.4" cy="299" rx="31.5" ry="21" fill="#fff" opacity="0.16"/><g stroke="#4a2e20" stroke-opacity="0.5" stroke-width="3" stroke-linecap="round"><line x1="484" y1="320" x2="527.4" y2="320"/><line x1="479.8994949366117" y1="329.8994949366117" x2="510.5879292401078" y2="360.5879292401078"/><line x1="470" y1="334" x2="470" y2="377.4"/><line x1="460.1005050633883" y1="329.8994949366117" x2="429.4120707598922" y2="360.5879292401078"/><line x1="456" y1="320" x2="412.6" y2="320"/><line x1="460.1005050633883" y1="310.1005050633883" x2="429.4120707598922" y2="279.4120707598922"/><line x1="470" y1="306" x2="470" y2="262.6"/><line x1="479.8994949366117" y1="310.1005050633883" x2="510.5879292401078" y2="279.4120707598922"/></g>
  
</svg>