<svg xmlns="http://www.w3.org/2000/svg" viewBox="0 0 640 520" width="640" height="520" role="img">
  <defs>
    <radialGradient id="g302" cx="32%" cy="26%" r="85%">
      <stop offset="0%" stop-color="#fffdf8"/>
      <stop offset="55%" stop-color="#1f4a33" stop-opacity="0.30"/>
      <stop offset="100%" stop-color="#b4392b" stop-opacity="0.42"/>
    </radialGradient>
    <linearGradient id="g302p" x1="0" y1="0" x2="0" y2="1">
      <stop offset="0%" stop-color="#fffdf8"/>
      <stop offset="100%" stop-color="#f1e7d2"/>
    </linearGradient>
  </defs>
  <rect width="640" height="520" fill="#faf4e8"/>
  <rect width="640" height="520" fill="url(#g302)"/>
  <circle cx="535" cy="511" r="0.9" fill="#4a2e20" opacity="0.03"/><circle cx="1" cy="360" r="1.4" fill="#4a2e20" opacity="0.07"/><circle cx="587" cy="410" r="1.5" fill="#4a2e20" opacity="0.05"/><circle cx="587" cy="42" r="1.9" fill="#4a2e20" opacity="0.06"/><circle cx="366" cy="457" r="1.2" fill="#4a2e20" opacity="0.03"/><circle cx="220" cy="401" r="0.7" fill="#4a2e20" opacity="0.04"/><circle cx="608" cy="83" r="0.6" fill="#4a2e20" opacity="0.08"/><circle cx="274" cy="93" r="1.2" fill="#4a2e20" opacity="0.06"/><circle cx="349" cy="272" r="1.9" fill="#4a2e20" opacity="0.06"/><circle cx="585" cy="188" r="2.5" fill="#4a2e20" opacity="0.06"/><circle cx="526" cy="176" r="2.1" fill="#4a2e20" opacity="0.06"/><circle cx="155" cy="291" r="1.8" fill="#4a2e20" opacity="0.07"/><circle cx="598" cy="395" r="1.4" fill="#4a2e20" opacity="0.04"/><circle cx="474" cy="415" r="0.6" fill="#4a2e20" opacity="0.04"/><circle cx="496" cy="276" r="1.2" fill="#4a2e20" opacity="0.08"/><circle cx="365" cy="390" r="2.2" fill="#4a2e20" opacity="0.04"/><circle cx="464" cy="401" r="1.5" fill="#4a2e20" opacity="0.06"/><circle cx="106" cy="172" r="0.6" fill="#4a2e20" opacity="0.04"/><circle cx="24" cy="276" r="2.4" fill="#4a2e20" opacity="0.05"/><circle cx="112" cy="424" r="2.1" fill="#4a2e20" opacity="0.07"/><circle cx="545" cy="219" r="1.2" fill="#4a2e20" opacity="0.04"/><circle cx="635" cy="405" r="2.5" fill="#4a2e20" opacity="0.03"/><circle cx="615" cy="175" r="1.7" fill="#4a2e20" opacity="0.04"/><circle cx="397" cy="77" r="1.4" fill="#4a2e20" opacity="0.03"/><circle cx="386" cy="254" r="2.1" fill="#4a2e20" opacity="0.02"/><circle cx="65" cy="99" r="0.6" fill="#4a2e20" opacity="0.03"/><circle cx="251" cy="2" r="1.6" fill="#4a2e20" opacity="0.05"/><circle cx="373" cy="24" r="1.3" fill="#4a2e20" opacity="0.06"/><circle cx="536" cy="51" r="1.3" fill="#4a2e20" opacity="0.06"/><circle cx="322" cy="348" r="1.6" fill="#4a2e20" opacity="0.05"/><circle cx="75" cy="261" r="1.4" fill="#4a2e20" opacity="0.04"/><circle cx="124" cy="373" r="1.0" fill="#4a2e20" opacity="0.07"/><circle cx="508" cy="386" r="1.3" fill="#4a2e20" opacity="0.07"/><circle cx="461" cy="102" r="1.0" fill="#4a2e20" opacity="0.04"/><circle cx="363" cy="383" r="2.0" fill="#4a2e20" opacity="0.05"/><circle cx="389" cy="191" r="0.7" fill="#4a2e20" opacity="0.02"/>
  <circle cx="320" cy="260" r="146" fill="#fffdf8" opacity="0.85"/>
  <circle cx="320" cy="260" r="146" fill="none" stroke="#f1e7d2" stroke-width="3"/><rect x="183.5" y="185.5" width="273" height="169" rx="14" fill="#4a2e20" opacity="0.9"/>
  <rect x="183.5" y="185.5" width="273" height="67.60000000000001" rx="14" fill="#f1e7d2"/><circle cx="248.5" cy="234.65" r="58.5" fill="#1f4a33"/>
  <circle cx="248.5" cy="234.65" r="58.5" fill="none" stroke="#4a2e20" stroke-opacity="0.35" stroke-width="3"/>
  <ellipse cx="232.12" cy="217.1" rx="26.325" ry="17.55" fill="#fff" opacity="0.16"/><circle cx="385" cy="222.82" r="65" fill="#d99a2b"/>
  <circle cx="385" cy="222.82" r="65" fill="none" stroke="#4a2e20" stroke-opacity="0.35" stroke-width="3"/>
  <ellipse cx="366.8" cy="203.32" rx="29.25" ry="19.5" fill="#fff" opacity="0.16"/><g stroke="#4a2e20" stroke-opacity="0.5" stroke-width="3" stroke-linecap="round"><line x1="398" y1="222.82" x2="438.3" y2="222.82"/><line x1="394.19238815542514" y1="232.0123881554251" x2="422.68879143724297" y2="260.50879143724296"/><line x1="385" y1="235.82" x2="385" y2="276.12"/><line x1="375.80761184457486" y1="232.0123881554251" x2="347.31120856275703" y2="260.50879143724296"/><line x1="372" y1="222.82" x2="331.7" y2="222.82"/><line x1="375.80761184457486" y1="213.6276118445749" x2="347.31120856275703" y2="185.13120856275702"/><line x1="385" y1="209.82" x2="385" y2="169.51999999999998"/><line x1="394.19238815542514" y1="213.6276118445749" x2="422.68879143724297" y2="185.131208562757"/></g><ellipse cx="326.5" cy="251.55" rx="52" ry="28.6" fill="#b4392b" opacity="0.85"/>
  
</svg>