<svg xmlns="http://www.w3.org/2000/svg" viewBox="0 0 640 520" width="640" height="520" role="img">
  <defs>
    <radialGradient id="g301" cx="32%" cy="26%" r="85%">
      <stop offset="0%" stop-color="#fffdf8"/>
      <stop offset="55%" stop-color="#1f4a33" stop-opacity="0.30"/>
      <stop offset="100%" stop-color="#b4392b" stop-opacity="0.42"/>
    </radialGradient>
    <linearGradient id="g301p" x1="0" y1="0" x2="0" y2="1">
      <stop offset="0%" stop-color="#fffdf8"/>
      <stop offset="100%" stop-color="#f1e7d2"/>
    </linearGradient>
  </defs>
  <rect width="640" height="520" fill="#faf4e8"/>
  <rect width="640" height="520" fill="url(#g301)"/>
  <circle cx="316" cy="139" r="2.1" fill="#4a2e20" opacity="0.08"/><circle cx="398" cy="436" r="0.5" fill="#4a2e20" opacity="0.07"/><circle cx="178" cy="75" r="1.2" fill="#4a2e20" opacity="0.06"/><circle cx="72" cy="3" r="0.7" fill="#4a2e20" opacity="0.06"/><circle cx="275" cy="414" r="0.8" fill="#4a2e20" opacity="0.03"/><circle cx="170" cy="422" r="0.9" fill="#4a2e20" opacity="0.06"/><circle cx="586" cy="234" r="2.0" fill="#4a2e20" opacity="0.04"/><circle cx="48" cy="122" r="2.0" fill="#4a2e20" opacity="0.05"/><circle cx="440" cy="346" r="1.4" fill="#4a2e20" opacity="0.04"/><circle cx="262" cy="473" r="2.0" fill="#4a2e20" opacity="0.03"/><circle cx="240" cy="225" r="0.5" fill="#4a2e20" opacity="0.06"/><circle cx="229" cy="56" r="0.9" fill="#4a2e20" opacity="0.06"/><circle cx="185" cy="71" r="1.6" fill="#4a2e20" opacity="0.05"/><circle cx="372" cy="478" r="1.1" fill="#4a2e20" opacity="0.03"/><circle cx="63" cy="120" r="2.1" fill="#4a2e20" opacity="0.03"/><circle cx="306" cy="413" r="1.2" fill="#4a2e20" opacity="0.05"/><circle cx="375" cy="502" r="0.7" fill="#4a2e20" opacity="0.04"/><circle cx="197" cy="57" r="1.8" fill="#4a2e20" opacity="0.03"/><circle cx="493" cy="376" r="0.8" fill="#4a2e20" opacity="0.05"/><circle cx="389" cy="40" r="0.8" fill="#4a2e20" opacity="0.03"/><circle cx="285" cy="484" r="1.6" fill="#4a2e20" opacity="0.06"/><circle cx="101" cy="336" r="1.2" fill="#4a2e20" opacity="0.06"/><circle cx="373" cy="145" r="1.1" fill="#4a2e20" opacity="0.03"/><circle cx="259" cy="332" r="0.8" fill="#4a2e20" opacity="0.06"/><circle cx="269" cy="105" r="1.1" fill="#4a2e20" opacity="0.07"/><circle cx="93" cy="57" r="2.2" fill="#4a2e20" opacity="0.04"/><circle cx="331" cy="495" r="2.0" fill="#4a2e20" opacity="0.04"/><circle cx="105" cy="502" r="1.1" fill="#4a2e20" opacity="0.05"/><circle cx="446" cy="251" r="1.1" fill="#4a2e20" opacity="0.07"/><circle cx="417" cy="519" r="2.4" fill="#4a2e20" opacity="0.07"/><circle cx="435" cy="86" r="0.6" fill="#4a2e20" opacity="0.04"/><circle cx="463" cy="224" r="0.9" fill="#4a2e20" opacity="0.03"/><circle cx="499" cy="485" r="0.9" fill="#4a2e20" opacity="0.05"/><circle cx="293" cy="91" r="1.1" fill="#4a2e20" opacity="0.06"/><circle cx="230" cy="417" r="0.7" fill="#4a2e20" opacity="0.04"/><circle cx="68" cy="422" r="0.9" fill="#4a2e20" opacity="0.04"/>
  <circle cx="320" cy="260" r="146" fill="#fffdf8" opacity="0.85"/>
  <circle cx="320" cy="260" r="146" fill="none" stroke="#f1e7d2" stroke-width="3"/><rect x="245.75" y="194" width="148.5" height="132" rx="16" fill="#b4392b"/><ellipse cx="320" cy="194" rx="74.25" ry="23.76" fill="#4a2e20" opacity="0.55"/><path d="M 390.25 236.24 q 60.50000000000001 0 60.50000000000001 37.400000000000006 q 0 37.400000000000006 -60.50000000000001 37.400000000000006" fill="none" stroke="#b4392b" stroke-width="12"/><g stroke="#4a2e20" stroke-opacity="0.18" stroke-width="4" fill="none" stroke-linecap="round">
    <path d="M 302 186 q 10 -20 0 -40 q -10 -20 0 -40"/>
    <path d="M 338 186 q 10 -20 0 -40 q -10 -20 0 -40"/>
  </g><circle cx="470" cy="315" r="62" fill="#d99a2b"/>
  <circle cx="470" cy="315" r="62" fill="none" stroke="#4a2e20" stroke-opacity="0.35" stroke-width="3"/>
  <ellipse cx="452.64" cy="296.4" rx="27.900000000000002" ry="18.599999999999998" fill="#fff" opacity="0.16"/><g stroke="#4a2e20" stroke-opacity="0.5" stroke-width="3" stroke-linecap="round"><line x1="482.4" y1="315" x2="520.84" y2="315"/><line x1="478.7681240867132" y1="323.7681240867132" x2="505.9493087555241" y2="350.94930875552404"/><line x1="470" y1="327.4" x2="470" y2="365.84"/><line x1="461.2318759132868" y1="323.7681240867132" x2="434.05069124447596" y2="350.9493087555241"/><line x1="457.6" y1="315" x2="419.16" y2="315"/><line x1="461.2318759132868" y1="306.2318759132868" x2="434.0506912444759" y2="279.05069124447596"/><line x1="470" y1="302.6" x2="470" y2="264.16"/><line x1="478.7681240867132" y1="306.2318759132868" x2="505.94930875552404" y2="279.0506912444759"/></g>
  
</svg>