<svg xmlns="http://www.w3.org/2000/svg" viewBox="0 0 640 480" width="640" height="480" role="img">
  <defs>
    <radialGradient id="g105" cx="32%" cy="26%" r="85%">
      <stop offset="0%" stop-color="#fffdf8"/>
      <stop offset="55%" stop-color="#d99a2b" stop-opacity="0.30"/>
      <stop offset="100%" stop-color="#b4392b" stop-opacity="0.42"/>
    </radialGradient>
    <linearGradient id="g105p" x1="0" y1="0" x2="0" y2="1">
      <stop offset="0%" stop-color="#fffdf8"/>
      <stop offset="100%" stop-color="#f1e7d2"/>
    </linearGradient>
  </defs>
  <rect width="640" height="480" fill="#faf4e8"/>
  <rect width="640" height="480" fill="url(#g105)"/>
  <circle cx="84" cy="149" r="2.4" fill="#4a2e20" opacity="0.07"/><circle cx="394" cy="150" r="2.2" fill="#4a2e20" opacity="0.07"/><circle cx="374" cy="130" r="2.3" fill="#4a2e20" opacity="0.05"/><circle cx="309" cy="154" r="2.3" fill="#4a2e20" opacity="0.08"/><circle cx="579" cy="473" r="2.3" fill="#4a2e20" opacity="0.08"/><circle cx="286" cy="356" r="0.6" fill="#4a2e20" opacity="0.06"/><circle cx="60" cy="370" r="0.9" fill="#4a2e20" opacity="0.06"/><circle cx="545" cy="400" r="1.2" fill="#4a2e20" opacity="0.04"/><circle cx="93" cy="17" r="1.7" fill="#4a2e20" opacity="0.03"/><circle cx="349" cy="67" r="2.3" fill="#4a2e20" opacity="0.07"/><circle cx="160" cy="474" r="0.9" fill="#4a2e20" opacity="0.07"/><circle cx="437" cy="312" r="0.8" fill="#4a2e20" opacity="0.07"/><circle cx="225" cy="319" r="1.6" fill="#4a2e20" opacity="0.05"/><circle cx="281" cy="47" r="2.2" fill="#4a2e20" opacity="0.04"/><circle cx="133" cy="297" r="1.4" fill="#4a2e20" opacity="0.06"/><circle cx="163" cy="176" r="2.2" fill="#4a2e20" opacity="0.07"/><circle cx="331" cy="123" r="0.8" fill="#4a2e20" opacity="0.04"/><circle cx="635" cy="315" r="1.7" fill="#4a2e20" opacity="0.03"/><circle cx="41" cy="436" r="1.0" fill="#4a2e20" opacity="0.05"/><circle cx="174" cy="362" r="2.1" fill="#4a2e20" opacity="0.02"/><circle cx="217" cy="447" r="0.5" fill="#4a2e20" opacity="0.02"/><circle cx="40" cy="121" r="2.4" fill="#4a2e20" opacity="0.05"/><circle cx="310" cy="45" r="0.7" fill="#4a2e20" opacity="0.06"/><circle cx="15" cy="56" r="0.6" fill="#4a2e20" opacity="0.07"/><circle cx="338" cy="328" r="1.6" fill="#4a2e20" opacity="0.04"/><circle cx="506" cy="454" r="1.3" fill="#4a2e20" opacity="0.04"/><circle cx="21" cy="181" r="0.8" fill="#4a2e20" opacity="0.05"/><circle cx="521" cy="435" r="1.8" fill="#4a2e20" opacity="0.05"/><circle cx="558" cy="159" r="0.6" fill="#4a2e20" opacity="0.07"/><circle cx="27" cy="413" r="1.7" fill="#4a2e20" opacity="0.08"/><circle cx="98" cy="325" r="1.1" fill="#4a2e20" opacity="0.04"/><circle cx="359" cy="64" r="1.5" fill="#4a2e20" opacity="0.06"/><circle cx="255" cy="181" r="0.7" fill="#4a2e20" opacity="0.03"/><circle cx="301" cy="254" r="2.4" fill="#4a2e20" opacity="0.04"/><circle cx="471" cy="126" r="1.5" fill="#4a2e20" opacity="0.04"/><circle cx="41" cy="254" r="2.3" fill="#4a2e20" opacity="0.07"/>
  <circle cx="320" cy="222" r="136" fill="#fffdf8" opacity="0.85"/>
  <circle cx="320" cy="222" r="136" fill="none" stroke="#f1e7d2" stroke-width="3"/><circle cx="320" cy="222" r="120" fill="#b4392b"/>
  <circle cx="320" cy="222" r="120" fill="none" stroke="#4a2e20" stroke-opacity="0.35" stroke-width="3"/>
  <ellipse cx="286.4" cy="186" rx="54" ry="36" fill="#fff" opacity="0.16"/><g stroke="#4a2e20" stroke-opacity="0.5" stroke-width="3" stroke-linecap="round"><line x1="344" y1="222" x2="418.4" y2="222"/><line x1="336.97056274847716" y1="238.97056274847714" x2="389.5793072687563" y2="291.5793072687563"/><line x1="320" y1="246" x2="320" y2="320.4"/><line x1="303.02943725152284" y1="238.97056274847714" x2="250.42069273124372" y2="291.5793072687563"/><line x1="296" y1="222" x2="221.60000000000002" y2="222"/><line x1="303.02943725152284" y1="205.02943725152286" x2="250.42069273124372" y2="152.42069273124372"/><line x1="320" y1="198" x2="320" y2="123.60000000000001"/><line x1="336.97056274847716" y1="205.02943725152286" x2="389.5793072687562" y2="152.42069273124372"/></g>
  
</svg>