<svg xmlns="http://www.w3.org/2000/svg" viewBox="0 0 640 480" width="640" height="480" role="img">
  <defs>
    <radialGradient id="g104" cx="32%" cy="26%" r="85%">
      <stop offset="0%" stop-color="#fffdf8"/>
      <stop offset="55%" stop-color="#d99a2b" stop-opacity="0.30"/>
      <stop offset="100%" stop-color="#b4392b" stop-opacity="0.42"/>
    </radialGradient>
    <linearGradient id="g104p" x1="0" y1="0" x2="0" y2="1">
      <stop offset="0%" stop-color="#fffdf8"/>
      <stop offset="100%" stop-color="#f1e7d2"/>
    </linearGradient>
  </defs>
  <rect width="640" height="480" fill="#faf4e8"/>
  <rect width="640" height="480" fill="url(#g104)"/>
  <circle cx="636" cy="461" r="2.0" fill="#4a2e20" opacity="0.03"/><circle cx="280" cy="20" r="2.2" fill="#4a2e20" opacity="0.05"/><circle cx="124" cy="26" r="2.4" fill="#4a2e20" opacity="0.06"/><circle cx="496" cy="250" r="1.6" fill="#4a2e20" opacity="0.08"/><circle cx="264" cy="454" r="1.3" fill="#4a2e20" opacity="0.05"/><circle cx="429" cy="3" r="1.8" fill="#4a2e20" opacity="0.03"/><circle cx="394" cy="350" r="2.5" fill="#4a2e20" opacity="0.03"/><circle cx="407" cy="459" r="1.4" fill="#4a2e20" opacity="0.03"/><circle cx="525" cy="285" r="2.1" fill="#4a2e20" opacity="0.07"/><circle cx="486" cy="54" r="0.7" fill="#4a2e20" opacity="0.05"/><circle cx="124" cy="69" r="1.7" fill="#4a2e20" opacity="0.07"/><circle cx="355" cy="113" r="0.7" fill="#4a2e20" opacity="0.08"/><circle cx="374" cy="464" r="2.0" fill="#4a2e20" opacity="0.03"/><circle cx="99" cy="32" r="2.2" fill="#4a2e20" opacity="0.02"/><circle cx="171" cy="50" r="0.6" fill="#4a2e20" opacity="0.04"/><circle cx="8" cy="415" r="2.0" fill="#4a2e20" opacity="0.08"/><circle cx="462" cy="166" r="1.5" fill="#4a2e20" opacity="0.05"/><circle cx="612" cy="41" r="1.4" fill="#4a2e20" opacity="0.04"/><circle cx="327" cy="334" r="1.3" fill="#4a2e20" opacity="0.06"/><circle cx="484" cy="141" r="1.1" fill="#4a2e20" opacity="0.06"/><circle cx="567" cy="211" r="1.8" fill="#4a2e20" opacity="0.03"/><circle cx="122" cy="0" r="0.8" fill="#4a2e20" opacity="0.05"/><circle cx="204" cy="403" r="1.0" fill="#4a2e20" opacity="0.08"/><circle cx="574" cy="85" r="2.4" fill="#4a2e20" opacity="0.04"/><circle cx="319" cy="101" r="0.6" fill="#4a2e20" opacity="0.03"/><circle cx="214" cy="262" r="1.1" fill="#4a2e20" opacity="0.06"/><circle cx="455" cy="473" r="0.9" fill="#4a2e20" opacity="0.07"/><circle cx="153" cy="8" r="1.4" fill="#4a2e20" opacity="0.02"/><circle cx="239" cy="384" r="0.7" fill="#4a2e20" opacity="0.08"/><circle cx="203" cy="223" r="1.5" fill="#4a2e20" opacity="0.05"/><circle cx="308" cy="236" r="0.9" fill="#4a2e20" opacity="0.03"/><circle cx="297" cy="27" r="0.8" fill="#4a2e20" opacity="0.05"/><circle cx="502" cy="406" r="1.5" fill="#4a2e20" opacity="0.06"/><circle cx="489" cy="171" r="1.0" fill="#4a2e20" opacity="0.05"/><circle cx="467" cy="374" r="1.6" fill="#4a2e20" opacity="0.08"/><circle cx="23" cy="457" r="2.3" fill="#4a2e20" opacity="0.03"/>
  <circle cx="320" cy="222" r="136" fill="#fffdf8" opacity="0.85"/>
  <circle cx="320" cy="222" r="136" fill="none" stroke="#f1e7d2" stroke-width="3"/><circle cx="320" cy="222" r="120" fill="#b4392b"/>
  <circle cx="320" cy="222" r="120" fill="none" stroke="#4a2e20" stroke-opacity="0.35" stroke-width="3"/>
  <ellipse cx="286.4" cy="186" rx="54" ry="36" fill="#fff" opacity="0.16"/><g stroke="#4a2e20" stroke-opacity="0.5" stroke-width="3" stroke-linecap="round"><line x1="344" y1="222" x2="418.4" y2="222"/><line x1="336.97056274847716" y1="238.97056274847714" x2="389.5793072687563" y2="291.5793072687563"/><line x1="320" y1="246" x2="320" y2="320.4"/><line x1="303.02943725152284" y1="238.97056274847714" x2="250.42069273124372" y2="291.5793072687563"/><line x1="296" y1="222" x2="221.60000000000002" y2="222"/><line x1="303.02943725152284" y1="205.02943725152286" x2="250.42069273124372" y2="152.42069273124372"/><line x1="320" y1="198" x2="320" y2="123.60000000000001"/><line x1="336.97056274847716" y1="205.02943725152286" x2="389.5793072687562" y2="152.42069273124372"/></g>
  
</svg>