<svg xmlns="http://www.w3.org/2000/svg" viewBox="0 0 640 480" width="640" height="480" role="img">
  <defs>
    <radialGradient id="g107" cx="32%" cy="26%" r="85%">
      <stop offset="0%" stop-color="#fffdf8"/>
      <stop offset="55%" stop-color="#d99a2b" stop-opacity="0.30"/>
      <stop offset="100%" stop-color="#b4392b" stop-opacity="0.42"/>
    </radialGradient>
    <linearGradient id="g107p" x1="0" y1="0" x2="0" y2="1">
      <stop offset="0%" stop-color="#fffdf8"/>
      <stop offset="100%" stop-color="#f1e7d2"/>
    </linearGradient>
  </defs>
  <rect width="640" height="480" fill="#faf4e8"/>
  <rect width="640" height="480" fill="url(#g107)"/>
  <circle cx="608" cy="172" r="1.9" fill="#4a2e20" opacity="0.05"/><circle cx="623" cy="161" r="0.8" fill="#4a2e20" opacity="0.07"/><circle cx="94" cy="161" r="0.6" fill="#4a2e20" opacity="0.05"/><circle cx="565" cy="242" r="0.6" fill="#4a2e20" opacity="0.04"/><circle cx="8" cy="340" r="0.9" fill="#4a2e20" opacity="0.04"/><circle cx="226" cy="398" r="0.8" fill="#4a2e20" opacity="0.06"/><circle cx="349" cy="39" r="0.9" fill="#4a2e20" opacity="0.04"/><circle cx="591" cy="388" r="1.6" fill="#4a2e20" opacity="0.07"/><circle cx="572" cy="196" r="2.3" fill="#4a2e20" opacity="0.02"/><circle cx="502" cy="431" r="0.5" fill="#4a2e20" opacity="0.06"/><circle cx="45" cy="239" r="1.0" fill="#4a2e20" opacity="0.05"/><circle cx="618" cy="268" r="1.2" fill="#4a2e20" opacity="0.03"/><circle cx="552" cy="440" r="1.0" fill="#4a2e20" opacity="0.03"/><circle cx="408" cy="384" r="0.9" fill="#4a2e20" opacity="0.06"/><circle cx="637" cy="459" r="1.9" fill="#4a2e20" opacity="0.03"/><circle cx="99" cy="334" r="1.7" fill="#4a2e20" opacity="0.03"/><circle cx="330" cy="190" r="2.3" fill="#4a2e20" opacity="0.05"/><circle cx="537" cy="320" r="0.7" fill="#4a2e20" opacity="0.05"/><circle cx="625" cy="316" r="1.1" fill="#4a2e20" opacity="0.03"/><circle cx="550" cy="243" r="0.8" fill="#4a2e20" opacity="0.03"/><circle cx="311" cy="427" r="1.4" fill="#4a2e20" opacity="0.07"/><circle cx="40" cy="416" r="2.4" fill="#4a2e20" opacity="0.05"/><circle cx="490" cy="55" r="1.5" fill="#4a2e20" opacity="0.05"/><circle cx="15" cy="394" r="0.7" fill="#4a2e20" opacity="0.06"/><circle cx="427" cy="98" r="2.2" fill="#4a2e20" opacity="0.07"/><circle cx="140" cy="274" r="2.1" fill="#4a2e20" opacity="0.07"/><circle cx="420" cy="426" r="0.7" fill="#4a2e20" opacity="0.05"/><circle cx="361" cy="388" r="2.1" fill="#4a2e20" opacity="0.05"/><circle cx="637" cy="272" r="1.1" fill="#4a2e20" opacity="0.07"/><circle cx="129" cy="381" r="1.3" fill="#4a2e20" opacity="0.06"/><circle cx="41" cy="168" r="0.6" fill="#4a2e20" opacity="0.05"/><circle cx="518" cy="319" r="0.5" fill="#4a2e20" opacity="0.08"/><circle cx="593" cy="349" r="0.9" fill="#4a2e20" opacity="0.05"/><circle cx="331" cy="313" r="1.1" fill="#4a2e20" opacity="0.04"/><circle cx="210" cy="352" r="0.9" fill="#4a2e20" opacity="0.03"/><circle cx="35" cy="259" r="2.2" fill="#4a2e20" opacity="0.03"/>
  <circle cx="320" cy="222" r="136" fill="#fffdf8" opacity="0.85"/>
  <circle cx="320" cy="222" r="136" fill="none" stroke="#f1e7d2" stroke-width="3"/><circle cx="320" cy="222" r="120" fill="#f1e7d2"/>
  <circle cx="320" cy="222" r="120" fill="none" stroke="#4a2e20" stroke-opacity="0.35" stroke-width="3"/>
  <ellipse cx="286.4" cy="186" rx="54" ry="36" fill="#fff" opacity="0.16"/>
  
</svg>