<svg xmlns="http://www.w3.org/2000/svg" viewBox="0 0 640 480" width="640" height="480" role="img">
  <defs>
    <radialGradient id="g122" cx="32%" cy="26%" r="85%">
      <stop offset="0%" stop-color="#fffdf8"/>
      <stop offset="55%" stop-color="#b4392b" stop-opacity="0.30"/>
      <stop offset="100%" stop-color="#d99a2b" stop-opacity="0.42"/>
    </radialGradient>
    <linearGradient id="g122p" x1="0" y1="0" x2="0" y2="1">
      <stop offset="0%" stop-color="#fffdf8"/>
      <stop offset="100%" stop-color="#f1e7d2"/>
    </linearGradient>
  </defs>
  <rect width="640" height="480" fill="#faf4e8"/>
  <rect width="640" height="480" fill="url(#g122)"/>
  <circle cx="455" cy="198" r="2.0" fill="#4a2e20" opacity="0.05"/><circle cx="477" cy="189" r="1.6" fill="#4a2e20" opacity="0.03"/><circle cx="182" cy="21" r="1.9" fill="#4a2e20" opacity="0.07"/><circle cx="91" cy="36" r="1.9" fill="#4a2e20" opacity="0.03"/><circle cx="114" cy="367" r="2.1" fill="#4a2e20" opacity="0.03"/><circle cx="584" cy="77" r="0.7" fill="#4a2e20" opacity="0.04"/><circle cx="12" cy="207" r="1.3" fill="#4a2e20" opacity="0.02"/><circle cx="137" cy="214" r="0.8" fill="#4a2e20" opacity="0.02"/><circle cx="608" cy="316" r="1.6" fill="#4a2e20" opacity="0.08"/><circle cx="636" cy="244" r="1.2" fill="#4a2e20" opacity="0.05"/><circle cx="609" cy="53" r="1.6" fill="#4a2e20" opacity="0.05"/><circle cx="160" cy="231" r="1.1" fill="#4a2e20" opacity="0.05"/><circle cx="270" cy="164" r="2.4" fill="#4a2e20" opacity="0.07"/><circle cx="348" cy="53" r="1.1" fill="#4a2e20" opacity="0.05"/><circle cx="620" cy="258" r="1.5" fill="#4a2e20" opacity="0.06"/><circle cx="292" cy="310" r="1.1" fill="#4a2e20" opacity="0.07"/><circle cx="74" cy="472" r="2.1" fill="#4a2e20" opacity="0.08"/><circle cx="309" cy="401" r="0.9" fill="#4a2e20" opacity="0.04"/><circle cx="404" cy="140" r="1.8" fill="#4a2e20" opacity="0.06"/><circle cx="155" cy="399" r="2.2" fill="#4a2e20" opacity="0.05"/><circle cx="319" cy="393" r="2.0" fill="#4a2e20" opacity="0.07"/><circle cx="306" cy="371" r="1.7" fill="#4a2e20" opacity="0.03"/><circle cx="134" cy="401" r="1.1" fill="#4a2e20" opacity="0.05"/><circle cx="20" cy="426" r="1.0" fill="#4a2e20" opacity="0.03"/><circle cx="601" cy="81" r="0.8" fill="#4a2e20" opacity="0.03"/><circle cx="623" cy="309" r="2.1" fill="#4a2e20" opacity="0.04"/><circle cx="541" cy="429" r="1.7" fill="#4a2e20" opacity="0.05"/><circle cx="399" cy="477" r="2.2" fill="#4a2e20" opacity="0.03"/><circle cx="45" cy="149" r="2.4" fill="#4a2e20" opacity="0.07"/><circle cx="567" cy="359" r="2.4" fill="#4a2e20" opacity="0.06"/><circle cx="145" cy="457" r="1.9" fill="#4a2e20" opacity="0.06"/><circle cx="432" cy="326" r="1.4" fill="#4a2e20" opacity="0.06"/><circle cx="379" cy="105" r="2.3" fill="#4a2e20" opacity="0.04"/><circle cx="15" cy="316" r="1.1" fill="#4a2e20" opacity="0.03"/><circle cx="140" cy="126" r="2.0" fill="#4a2e20" opacity="0.04"/><circle cx="362" cy="43" r="1.9" fill="#4a2e20" opacity="0.06"/>
  <circle cx="320" cy="222" r="136" fill="#fffdf8" opacity="0.85"/>
  <circle cx="320" cy="222" r="136" fill="none" stroke="#f1e7d2" stroke-width="3"/><rect x="218" y="147" width="204" height="150" rx="12" fill="#b9781a"/><rect x="218" y="147" width="204" height="51.00000000000001" rx="12" fill="#fffdf8" opacity="0.95"/><rect x="218" y="216" width="204" height="6" fill="#fffdf8" opacity="0.5"/><circle cx="320" cy="168" r="8" fill="#b4392b"/>
  
</svg>