<svg xmlns="http://www.w3.org/2000/svg" viewBox="0 0 640 480" width="640" height="480" role="img">
  <defs>
    <radialGradient id="g121" cx="32%" cy="26%" r="85%">
      <stop offset="0%" stop-color="#fffdf8"/>
      <stop offset="55%" stop-color="#b4392b" stop-opacity="0.30"/>
      <stop offset="100%" stop-color="#d99a2b" stop-opacity="0.42"/>
    </radialGradient>
    <linearGradient id="g121p" x1="0" y1="0" x2="0" y2="1">
      <stop offset="0%" stop-color="#fffdf8"/>
      <stop offset="100%" stop-color="#f1e7d2"/>
    </linearGradient>
  </defs>
  <rect width="640" height="480" fill="#faf4e8"/>
  <rect width="640" height="480" fill="url(#g121)"/>
  <circle cx="25" cy="460" r="2.1" fill="#4a2e20" opacity="0.04"/><circle cx="176" cy="1" r="1.1" fill="#4a2e20" opacity="0.05"/><circle cx="58" cy="71" r="0.9" fill="#4a2e20" opacity="0.06"/><circle cx="49" cy="311" r="2.4" fill="#4a2e20" opacity="0.05"/><circle cx="314" cy="458" r="0.9" fill="#4a2e20" opacity="0.04"/><circle cx="148" cy="26" r="1.4" fill="#4a2e20" opacity="0.04"/><circle cx="421" cy="204" r="1.5" fill="#4a2e20" opacity="0.07"/><circle cx="141" cy="269" r="2.1" fill="#4a2e20" opacity="0.07"/><circle cx="462" cy="11" r="0.7" fill="#4a2e20" opacity="0.05"/><circle cx="53" cy="175" r="0.5" fill="#4a2e20" opacity="0.05"/><circle cx="480" cy="408" r="2.2" fill="#4a2e20" opacity="0.07"/><circle cx="5" cy="157" r="2.2" fill="#4a2e20" opacity="0.05"/><circle cx="544" cy="431" r="2.2" fill="#4a2e20" opacity="0.03"/><circle cx="218" cy="125" r="1.4" fill="#4a2e20" opacity="0.04"/><circle cx="538" cy="300" r="1.2" fill="#4a2e20" opacity="0.06"/><circle cx="458" cy="115" r="1.9" fill="#4a2e20" opacity="0.06"/><circle cx="381" cy="240" r="1.8" fill="#4a2e20" opacity="0.08"/><circle cx="577" cy="98" r="0.8" fill="#4a2e20" opacity="0.03"/><circle cx="601" cy="123" r="2.4" fill="#4a2e20" opacity="0.05"/><circle cx="311" cy="360" r="2.2" fill="#4a2e20" opacity="0.03"/><circle cx="199" cy="20" r="0.7" fill="#4a2e20" opacity="0.06"/><circle cx="81" cy="409" r="0.9" fill="#4a2e20" opacity="0.05"/><circle cx="16" cy="193" r="2.4" fill="#4a2e20" opacity="0.05"/><circle cx="536" cy="49" r="1.0" fill="#4a2e20" opacity="0.07"/><circle cx="214" cy="79" r="2.1" fill="#4a2e20" opacity="0.04"/><circle cx="68" cy="342" r="2.4" fill="#4a2e20" opacity="0.07"/><circle cx="477" cy="257" r="0.7" fill="#4a2e20" opacity="0.07"/><circle cx="62" cy="345" r="1.0" fill="#4a2e20" opacity="0.06"/><circle cx="434" cy="238" r="0.7" fill="#4a2e20" opacity="0.08"/><circle cx="398" cy="269" r="2.3" fill="#4a2e20" opacity="0.07"/><circle cx="33" cy="339" r="2.0" fill="#4a2e20" opacity="0.04"/><circle cx="36" cy="326" r="1.9" fill="#4a2e20" opacity="0.04"/><circle cx="461" cy="169" r="1.8" fill="#4a2e20" opacity="0.04"/><circle cx="43" cy="308" r="2.0" fill="#4a2e20" opacity="0.04"/><circle cx="336" cy="144" r="2.1" fill="#4a2e20" opacity="0.06"/><circle cx="106" cy="410" r="1.0" fill="#4a2e20" opacity="0.06"/>
  <circle cx="320" cy="222" r="136" fill="#fffdf8" opacity="0.85"/>
  <circle cx="320" cy="222" r="136" fill="none" stroke="#f1e7d2" stroke-width="3"/><rect x="218" y="147" width="204" height="150" rx="12" fill="#4a2e20"/><rect x="218" y="147" width="204" height="51.00000000000001" rx="12" fill="#fffdf8" opacity="0.95"/><rect x="218" y="216" width="204" height="6" fill="#fffdf8" opacity="0.5"/><circle cx="320" cy="168" r="8" fill="#b4392b"/>
  
</svg>