<svg xmlns="http://www.w3.org/2000/svg" viewBox="0 0 640 480" width="640" height="480" role="img">
  <defs>
    <radialGradient id="g112" cx="32%" cy="26%" r="85%">
      <stop offset="0%" stop-color="#fffdf8"/>
      <stop offset="55%" stop-color="#1f4a33" stop-opacity="0.30"/>
      <stop offset="100%" stop-color="#d99a2b" stop-opacity="0.42"/>
    </radialGradient>
    <linearGradient id="g112p" x1="0" y1="0" x2="0" y2="1">
      <stop offset="0%" stop-color="#fffdf8"/>
      <stop offset="100%" stop-color="#f1e7d2"/>
    </linearGradient>
  </defs>
  <rect width="640" height="480" fill="#faf4e8"/>
  <rect width="640" height="480" fill="url(#g112)"/>
  <circle cx="394" cy="321" r="1.6" fill="#4a2e20" opacity="0.04"/><circle cx="95" cy="342" r="1.3" fill="#4a2e20" opacity="0.08"/><circle cx="433" cy="460" r="0.7" fill="#4a2e20" opacity="0.04"/><circle cx="319" cy="117" r="1.0" fill="#4a2e20" opacity="0.04"/><circle cx="111" cy="457" r="0.9" fill="#4a2e20" opacity="0.04"/><circle cx="128" cy="140" r="2.0" fill="#4a2e20" opacity="0.04"/><circle cx="483" cy="54" r="1.0" fill="#4a2e20" opacity="0.07"/><circle cx="485" cy="218" r="1.1" fill="#4a2e20" opacity="0.05"/><circle cx="498" cy="315" r="1.7" fill="#4a2e20" opacity="0.03"/><circle cx="442" cy="86" r="2.4" fill="#4a2e20" opacity="0.02"/><circle cx="398" cy="389" r="1.6" fill="#4a2e20" opacity="0.05"/><circle cx="118" cy="304" r="2.5" fill="#4a2e20" opacity="0.03"/><circle cx="252" cy="256" r="2.1" fill="#4a2e20" opacity="0.04"/><circle cx="193" cy="259" r="1.4" fill="#4a2e20" opacity="0.07"/><circle cx="100" cy="317" r="1.7" fill="#4a2e20" opacity="0.02"/><circle cx="88" cy="94" r="0.7" fill="#4a2e20" opacity="0.04"/><circle cx="401" cy="3" r="1.9" fill="#4a2e20" opacity="0.05"/><circle cx="146" cy="445" r="2.1" fill="#4a2e20" opacity="0.04"/><circle cx="307" cy="298" r="1.7" fill="#4a2e20" opacity="0.06"/><circle cx="123" cy="403" r="1.6" fill="#4a2e20" opacity="0.06"/><circle cx="468" cy="209" r="2.3" fill="#4a2e20" opacity="0.03"/><circle cx="71" cy="82" r="1.0" fill="#4a2e20" opacity="0.06"/><circle cx="182" cy="334" r="2.4" fill="#4a2e20" opacity="0.08"/><circle cx="337" cy="47" r="1.7" fill="#4a2e20" opacity="0.03"/><circle cx="96" cy="319" r="0.6" fill="#4a2e20" opacity="0.06"/><circle cx="213" cy="349" r="2.4" fill="#4a2e20" opacity="0.06"/><circle cx="247" cy="57" r="2.4" fill="#4a2e20" opacity="0.08"/><circle cx="397" cy="219" r="2.5" fill="#4a2e20" opacity="0.05"/><circle cx="0" cy="68" r="2.4" fill="#4a2e20" opacity="0.04"/><circle cx="212" cy="470" r="1.4" fill="#4a2e20" opacity="0.07"/><circle cx="626" cy="123" r="1.8" fill="#4a2e20" opacity="0.04"/><circle cx="572" cy="212" r="2.3" fill="#4a2e20" opacity="0.07"/><circle cx="350" cy="42" r="2.1" fill="#4a2e20" opacity="0.04"/><circle cx="463" cy="118" r="2.0" fill="#4a2e20" opacity="0.05"/><circle cx="248" cy="277" r="0.5" fill="#4a2e20" opacity="0.04"/><circle cx="438" cy="284" r="2.2" fill="#4a2e20" opacity="0.04"/>
  <circle cx="320" cy="222" r="136" fill="#fffdf8" opacity="0.85"/>
  <circle cx="320" cy="222" r="136" fill="none" stroke="#f1e7d2" stroke-width="3"/><rect x="204.07999999999998" y="160.24" width="231.84000000000003" height="143.52" rx="14" fill="#4a2e20" opacity="0.9"/>
  <rect x="204.07999999999998" y="160.24" width="231.84000000000003" height="57.40800000000001" rx="14" fill="#f1e7d2"/><circle cx="259.28" cy="200.472" r="49.68000000000001" fill="#d99a2b"/>
  <circle cx="259.28" cy="200.472" r="49.68000000000001" fill="none" stroke="#4a2e20" stroke-opacity="0.35" stroke-width="3"/>
  <ellipse cx="245.36959999999996" cy="185.568" rx="22.356000000000005" ry="14.904000000000002" fill="#fff" opacity="0.16"/><circle cx="375.2" cy="190.4256" r="55.2" fill="#d99a2b"/>
  <circle cx="375.2" cy="190.4256" r="55.2" fill="none" stroke="#4a2e20" stroke-opacity="0.35" stroke-width="3"/>
  <ellipse cx="359.74399999999997" cy="173.8656" rx="24.840000000000003" ry="16.56" fill="#fff" opacity="0.16"/><g stroke="#4a2e20" stroke-opacity="0.5" stroke-width="3" stroke-linecap="round"><line x1="386.24" y1="190.4256" x2="420.464" y2="190.4256"/><line x1="383.0064588642995" y1="198.2320588642995" x2="407.2064813436279" y2="222.43208134362789"/><line x1="375.2" y1="201.4656" x2="375.2" y2="235.6896"/><line x1="367.3935411357005" y1="198.2320588642995" x2="343.1935186563721" y2="222.43208134362789"/><line x1="364.15999999999997" y1="190.4256" x2="329.936" y2="190.4256"/><line x1="367.3935411357005" y1="182.61914113570052" x2="343.1935186563721" y2="158.41911865637212"/><line x1="375.2" y1="179.3856" x2="375.2" y2="145.1616"/><line x1="383.0064588642995" y1="182.61914113570052" x2="407.20648134362784" y2="158.41911865637212"/></g><ellipse cx="325.52" cy="214.824" rx="44.160000000000004" ry="24.288" fill="#b4392b" opacity="0.85"/>
  
</svg>