<svg xmlns="http://www.w3.org/2000/svg" viewBox="0 0 640 480" width="640" height="480" role="img">
  <defs>
    <radialGradient id="g142" cx="32%" cy="26%" r="85%">
      <stop offset="0%" stop-color="#fffdf8"/>
      <stop offset="55%" stop-color="#4a2e20" stop-opacity="0.30"/>
      <stop offset="100%" stop-color="#b4392b" stop-opacity="0.42"/>
    </radialGradient>
    <linearGradient id="g142p" x1="0" y1="0" x2="0" y2="1">
      <stop offset="0%" stop-color="#fffdf8"/>
      <stop offset="100%" stop-color="#f1e7d2"/>
    </linearGradient>
  </defs>
  <rect width="640" height="480" fill="#faf4e8"/>
  <rect width="640" height="480" fill="url(#g142)"/>
  <circle cx="417" cy="291" r="1.4" fill="#4a2e20" opacity="0.07"/><circle cx="536" cy="107" r="1.8" fill="#4a2e20" opacity="0.06"/><circle cx="470" cy="399" r="2.3" fill="#4a2e20" opacity="0.07"/><circle cx="38" cy="446" r="2.1" fill="#4a2e20" opacity="0.03"/><circle cx="608" cy="158" r="1.9" fill="#4a2e20" opacity="0.06"/><circle cx="373" cy="17" r="1.0" fill="#4a2e20" opacity="0.07"/><circle cx="311" cy="462" r="2.3" fill="#4a2e20" opacity="0.02"/><circle cx="367" cy="383" r="2.5" fill="#4a2e20" opacity="0.08"/><circle cx="173" cy="15" r="2.2" fill="#4a2e20" opacity="0.08"/><circle cx="412" cy="389" r="0.6" fill="#4a2e20" opacity="0.07"/><circle cx="262" cy="169" r="1.1" fill="#4a2e20" opacity="0.06"/><circle cx="396" cy="152" r="2.1" fill="#4a2e20" opacity="0.05"/><circle cx="251" cy="149" r="1.0" fill="#4a2e20" opacity="0.08"/><circle cx="631" cy="298" r="1.5" fill="#4a2e20" opacity="0.05"/><circle cx="185" cy="113" r="1.0" fill="#4a2e20" opacity="0.04"/><circle cx="29" cy="479" r="2.5" fill="#4a2e20" opacity="0.02"/><circle cx="565" cy="44" r="2.2" fill="#4a2e20" opacity="0.06"/><circle cx="111" cy="253" r="1.7" fill="#4a2e20" opacity="0.05"/><circle cx="253" cy="95" r="1.6" fill="#4a2e20" opacity="0.04"/><circle cx="499" cy="431" r="1.8" fill="#4a2e20" opacity="0.07"/><circle cx="364" cy="175" r="1.8" fill="#4a2e20" opacity="0.03"/><circle cx="567" cy="348" r="2.4" fill="#4a2e20" opacity="0.04"/><circle cx="186" cy="371" r="0.7" fill="#4a2e20" opacity="0.02"/><circle cx="99" cy="149" r="0.9" fill="#4a2e20" opacity="0.02"/><circle cx="561" cy="189" r="0.8" fill="#4a2e20" opacity="0.07"/><circle cx="66" cy="10" r="2.0" fill="#4a2e20" opacity="0.07"/><circle cx="159" cy="404" r="1.3" fill="#4a2e20" opacity="0.07"/><circle cx="243" cy="340" r="0.5" fill="#4a2e20" opacity="0.04"/><circle cx="20" cy="271" r="0.8" fill="#4a2e20" opacity="0.06"/><circle cx="254" cy="345" r="1.2" fill="#4a2e20" opacity="0.07"/><circle cx="415" cy="279" r="0.8" fill="#4a2e20" opacity="0.07"/><circle cx="57" cy="231" r="1.0" fill="#4a2e20" opacity="0.03"/><circle cx="491" cy="76" r="1.6" fill="#4a2e20" opacity="0.05"/><circle cx="80" cy="349" r="2.3" fill="#4a2e20" opacity="0.07"/><circle cx="154" cy="473" r="1.1" fill="#4a2e20" opacity="0.02"/><circle cx="613" cy="200" r="1.3" fill="#4a2e20" opacity="0.05"/>
  <circle cx="320" cy="222" r="136" fill="#fffdf8" opacity="0.85"/>
  <circle cx="320" cy="222" r="136" fill="none" stroke="#f1e7d2" stroke-width="3"/><rect x="242" y="120" width="156" height="204" rx="10" fill="#4a2e20"/>
  <rect x="242" y="120" width="156" height="44.88" fill="#4a2e20" opacity="0.4"/>
  <ellipse cx="320" cy="226" rx="43.68000000000001" ry="43.68000000000001" fill="#fffdf8" opacity="0.92"/><g fill="#4a2e20"><ellipse cx="206" cy="108" rx="11" ry="7" transform="rotate(-25 206 108)"/>
    <path d="M 197 108 Q 206 103 215 108" stroke="#faf4e8" stroke-width="1.5" fill="none" transform="rotate(-25 206 108)"/><ellipse cx="434" cy="130.8" rx="11" ry="7" transform="rotate(25 434 130.8)"/>
    <path d="M 425 130.8 Q 434 125.80000000000001 443 130.8" stroke="#faf4e8" stroke-width="1.5" fill="none" transform="rotate(25 434 130.8)"/><ellipse cx="320" cy="347.4" rx="11" ry="7" transform="rotate(0 320 347.4)"/>
    <path d="M 311 347.4 Q 320 342.4 329 347.4" stroke="#faf4e8" stroke-width="1.5" fill="none" transform="rotate(0 320 347.4)"/><ellipse cx="468.2" cy="358.79999999999995" rx="11" ry="7" transform="rotate(32.5 468.2 358.79999999999995)"/>
    <path d="M 459.2 358.79999999999995 Q 468.2 353.79999999999995 477.2 358.79999999999995" stroke="#faf4e8" stroke-width="1.5" fill="none" transform="rotate(32.5 468.2 358.79999999999995)"/></g>
  
</svg>