<svg xmlns="http://www.w3.org/2000/svg" viewBox="0 0 640 480" width="640" height="480" role="img">
  <defs>
    <radialGradient id="g110" cx="32%" cy="26%" r="85%">
      <stop offset="0%" stop-color="#fffdf8"/>
      <stop offset="55%" stop-color="#4a2e20" stop-opacity="0.30"/>
      <stop offset="100%" stop-color="#d99a2b" stop-opacity="0.42"/>
    </radialGradient>
    <linearGradient id="g110p" x1="0" y1="0" x2="0" y2="1">
      <stop offset="0%" stop-color="#fffdf8"/>
      <stop offset="100%" stop-color="#f1e7d2"/>
    </linearGradient>
  </defs>
  <rect width="640" height="480" fill="#faf4e8"/>
  <rect width="640" height="480" fill="url(#g110)"/>
  <circle cx="82" cy="369" r="2.2" fill="#4a2e20" opacity="0.07"/><circle cx="154" cy="182" r="2.0" fill="#4a2e20" opacity="0.02"/><circle cx="514" cy="320" r="0.8" fill="#4a2e20" opacity="0.08"/><circle cx="177" cy="410" r="2.5" fill="#4a2e20" opacity="0.06"/><circle cx="255" cy="131" r="0.9" fill="#4a2e20" opacity="0.06"/><circle cx="462" cy="352" r="1.8" fill="#4a2e20" opacity="0.06"/><circle cx="275" cy="286" r="0.7" fill="#4a2e20" opacity="0.03"/><circle cx="453" cy="451" r="0.7" fill="#4a2e20" opacity="0.05"/><circle cx="591" cy="168" r="1.0" fill="#4a2e20" opacity="0.08"/><circle cx="397" cy="114" r="0.7" fill="#4a2e20" opacity="0.03"/><circle cx="23" cy="122" r="2.0" fill="#4a2e20" opacity="0.03"/><circle cx="102" cy="310" r="1.9" fill="#4a2e20" opacity="0.05"/><circle cx="346" cy="80" r="2.2" fill="#4a2e20" opacity="0.05"/><circle cx="322" cy="3" r="1.5" fill="#4a2e20" opacity="0.06"/><circle cx="289" cy="84" r="1.8" fill="#4a2e20" opacity="0.03"/><circle cx="135" cy="413" r="1.8" fill="#4a2e20" opacity="0.06"/><circle cx="234" cy="216" r="0.8" fill="#4a2e20" opacity="0.06"/><circle cx="50" cy="142" r="1.3" fill="#4a2e20" opacity="0.08"/><circle cx="402" cy="230" r="2.0" fill="#4a2e20" opacity="0.07"/><circle cx="520" cy="310" r="1.7" fill="#4a2e20" opacity="0.06"/><circle cx="601" cy="150" r="0.8" fill="#4a2e20" opacity="0.06"/><circle cx="416" cy="475" r="0.8" fill="#4a2e20" opacity="0.08"/><circle cx="594" cy="266" r="1.9" fill="#4a2e20" opacity="0.06"/><circle cx="146" cy="440" r="1.3" fill="#4a2e20" opacity="0.02"/><circle cx="457" cy="333" r="1.1" fill="#4a2e20" opacity="0.05"/><circle cx="534" cy="67" r="2.3" fill="#4a2e20" opacity="0.06"/><circle cx="36" cy="399" r="2.4" fill="#4a2e20" opacity="0.08"/><circle cx="503" cy="194" r="0.7" fill="#4a2e20" opacity="0.08"/><circle cx="550" cy="73" r="1.5" fill="#4a2e20" opacity="0.08"/><circle cx="187" cy="437" r="0.6" fill="#4a2e20" opacity="0.03"/><circle cx="590" cy="286" r="2.4" fill="#4a2e20" opacity="0.06"/><circle cx="102" cy="366" r="1.9" fill="#4a2e20" opacity="0.03"/><circle cx="501" cy="324" r="1.6" fill="#4a2e20" opacity="0.07"/><circle cx="116" cy="194" r="2.4" fill="#4a2e20" opacity="0.07"/><circle cx="52" cy="84" r="1.1" fill="#4a2e20" opacity="0.07"/><circle cx="63" cy="67" r="1.5" fill="#4a2e20" opacity="0.02"/>
  <circle cx="320" cy="222" r="136" fill="#fffdf8" opacity="0.85"/>
  <circle cx="320" cy="222" r="136" fill="none" stroke="#f1e7d2" stroke-width="3"/><rect x="242" y="120" width="156" height="204" rx="10" fill="#4a2e20"/>
  <rect x="242" y="120" width="156" height="44.88" fill="#4a2e20" opacity="0.4"/>
  <ellipse cx="320" cy="226" rx="43.68000000000001" ry="43.68000000000001" fill="#fffdf8" opacity="0.92"/><g fill="#4a2e20"><ellipse cx="206" cy="108" rx="11" ry="7" transform="rotate(-25 206 108)"/>
    <path d="M 197 108 Q 206 103 215 108" stroke="#faf4e8" stroke-width="1.5" fill="none" transform="rotate(-25 206 108)"/><ellipse cx="434" cy="130.8" rx="11" ry="7" transform="rotate(25 434 130.8)"/>
    <path d="M 425 130.8 Q 434 125.80000000000001 443 130.8" stroke="#faf4e8" stroke-width="1.5" fill="none" transform="rotate(25 434 130.8)"/><ellipse cx="320" cy="347.4" rx="11" ry="7" transform="rotate(0 320 347.4)"/>
    <path d="M 311 347.4 Q 320 342.4 329 347.4" stroke="#faf4e8" stroke-width="1.5" fill="none" transform="rotate(0 320 347.4)"/><ellipse cx="468.2" cy="358.79999999999995" rx="11" ry="7" transform="rotate(32.5 468.2 358.79999999999995)"/>
    <path d="M 459.2 358.79999999999995 Q 468.2 353.79999999999995 477.2 358.79999999999995" stroke="#faf4e8" stroke-width="1.5" fill="none" transform="rotate(32.5 468.2 358.79999999999995)"/></g>
  
</svg>