<svg xmlns="http://www.w3.org/2000/svg" viewBox="0 0 640 480" width="640" height="480" role="img">
  <defs>
    <radialGradient id="g130" cx="32%" cy="26%" r="85%">
      <stop offset="0%" stop-color="#fffdf8"/>
      <stop offset="55%" stop-color="#b4392b" stop-opacity="0.30"/>
      <stop offset="100%" stop-color="#b9781a" stop-opacity="0.42"/>
    </radialGradient>
    <linearGradient id="g130p" x1="0" y1="0" x2="0" y2="1">
      <stop offset="0%" stop-color="#fffdf8"/>
      <stop offset="100%" stop-color="#f1e7d2"/>
    </linearGradient>
  </defs>
  <rect width="640" height="480" fill="#faf4e8"/>
  <rect width="640" height="480" fill="url(#g130)"/>
  <circle cx="127" cy="475" r="1.9" fill="#4a2e20" opacity="0.02"/><circle cx="259" cy="118" r="2.0" fill="#4a2e20" opacity="0.04"/><circle cx="394" cy="11" r="2.5" fill="#4a2e20" opacity="0.04"/><circle cx="41" cy="81" r="1.6" fill="#4a2e20" opacity="0.04"/><circle cx="456" cy="55" r="1.8" fill="#4a2e20" opacity="0.03"/><circle cx="479" cy="442" r="1.7" fill="#4a2e20" opacity="0.07"/><circle cx="329" cy="323" r="1.6" fill="#4a2e20" opacity="0.06"/><circle cx="229" cy="22" r="1.2" fill="#4a2e20" opacity="0.04"/><circle cx="530" cy="399" r="1.6" fill="#4a2e20" opacity="0.06"/><circle cx="383" cy="211" r="2.0" fill="#4a2e20" opacity="0.07"/><circle cx="38" cy="10" r="1.1" fill="#4a2e20" opacity="0.04"/><circle cx="548" cy="335" r="0.5" fill="#4a2e20" opacity="0.04"/><circle cx="628" cy="442" r="0.7" fill="#4a2e20" opacity="0.05"/><circle cx="551" cy="309" r="2.1" fill="#4a2e20" opacity="0.03"/><circle cx="499" cy="154" r="1.0" fill="#4a2e20" opacity="0.04"/><circle cx="559" cy="100" r="1.3" fill="#4a2e20" opacity="0.05"/><circle cx="524" cy="254" r="0.8" fill="#4a2e20" opacity="0.04"/><circle cx="278" cy="174" r="2.2" fill="#4a2e20" opacity="0.03"/><circle cx="319" cy="312" r="0.8" fill="#4a2e20" opacity="0.07"/><circle cx="444" cy="464" r="1.1" fill="#4a2e20" opacity="0.05"/><circle cx="88" cy="349" r="0.9" fill="#4a2e20" opacity="0.03"/><circle cx="259" cy="67" r="2.4" fill="#4a2e20" opacity="0.04"/><circle cx="616" cy="169" r="0.7" fill="#4a2e20" opacity="0.03"/><circle cx="233" cy="181" r="1.6" fill="#4a2e20" opacity="0.02"/><circle cx="213" cy="455" r="1.3" fill="#4a2e20" opacity="0.03"/><circle cx="406" cy="5" r="1.5" fill="#4a2e20" opacity="0.05"/><circle cx="140" cy="126" r="0.9" fill="#4a2e20" opacity="0.04"/><circle cx="283" cy="16" r="1.1" fill="#4a2e20" opacity="0.02"/><circle cx="118" cy="425" r="0.7" fill="#4a2e20" opacity="0.04"/><circle cx="492" cy="431" r="2.3" fill="#4a2e20" opacity="0.04"/><circle cx="447" cy="203" r="1.1" fill="#4a2e20" opacity="0.04"/><circle cx="240" cy="284" r="1.2" fill="#4a2e20" opacity="0.03"/><circle cx="544" cy="223" r="1.6" fill="#4a2e20" opacity="0.05"/><circle cx="52" cy="451" r="1.9" fill="#4a2e20" opacity="0.05"/><circle cx="299" cy="31" r="0.7" fill="#4a2e20" opacity="0.06"/><circle cx="444" cy="392" r="1.2" fill="#4a2e20" opacity="0.04"/>
  <circle cx="320" cy="222" r="136" fill="#fffdf8" opacity="0.85"/>
  <circle cx="320" cy="222" r="136" fill="none" stroke="#f1e7d2" stroke-width="3"/><circle cx="236" cy="188.4" r="60" fill="#4a2e20"/>
         <circle cx="236" cy="188.4" r="60" fill="none" stroke="#4a2e20" stroke-opacity="0.3" stroke-width="2"/>
         <circle cx="230" cy="184.4" r="3" fill="#4a2e20" opacity="0.4"/>
         <circle cx="244" cy="194.4" r="2.5" fill="#4a2e20" opacity="0.4"/><circle cx="404" cy="188.4" r="60" fill="#4a2e20"/>
         <circle cx="404" cy="188.4" r="60" fill="none" stroke="#4a2e20" stroke-opacity="0.3" stroke-width="2"/>
         <circle cx="398" cy="184.4" r="3" fill="#4a2e20" opacity="0.4"/>
         <circle cx="412" cy="194.4" r="2.5" fill="#4a2e20" opacity="0.4"/><circle cx="320" cy="280.8" r="60" fill="#4a2e20"/>
         <circle cx="320" cy="280.8" r="60" fill="none" stroke="#4a2e20" stroke-opacity="0.3" stroke-width="2"/>
         <circle cx="314" cy="276.8" r="3" fill="#4a2e20" opacity="0.4"/>
         <circle cx="328" cy="286.8" r="2.5" fill="#4a2e20" opacity="0.4"/>
  
</svg>