<svg xmlns="http://www.w3.org/2000/svg" viewBox="0 0 640 480" width="640" height="480" role="img">
  <defs>
    <radialGradient id="g163" cx="32%" cy="26%" r="85%">
      <stop offset="0%" stop-color="#fffdf8"/>
      <stop offset="55%" stop-color="#1f4a33" stop-opacity="0.30"/>
      <stop offset="100%" stop-color="#d99a2b" stop-opacity="0.42"/>
    </radialGradient>
    <linearGradient id="g163p" x1="0" y1="0" x2="0" y2="1">
      <stop offset="0%" stop-color="#fffdf8"/>
      <stop offset="100%" stop-color="#f1e7d2"/>
    </linearGradient>
  </defs>
  <rect width="640" height="480" fill="#faf4e8"/>
  <rect width="640" height="480" fill="url(#g163)"/>
  <circle cx="310" cy="383" r="1.2" fill="#4a2e20" opacity="0.06"/><circle cx="112" cy="194" r="1.0" fill="#4a2e20" opacity="0.03"/><circle cx="120" cy="134" r="2.5" fill="#4a2e20" opacity="0.04"/><circle cx="288" cy="116" r="0.9" fill="#4a2e20" opacity="0.08"/><circle cx="241" cy="409" r="0.8" fill="#4a2e20" opacity="0.07"/><circle cx="628" cy="185" r="2.5" fill="#4a2e20" opacity="0.07"/><circle cx="431" cy="102" r="0.7" fill="#4a2e20" opacity="0.03"/><circle cx="327" cy="42" r="0.9" fill="#4a2e20" opacity="0.05"/><circle cx="499" cy="397" r="1.6" fill="#4a2e20" opacity="0.04"/><circle cx="394" cy="232" r="1.4" fill="#4a2e20" opacity="0.04"/><circle cx="361" cy="304" r="1.5" fill="#4a2e20" opacity="0.03"/><circle cx="160" cy="59" r="1.5" fill="#4a2e20" opacity="0.05"/><circle cx="414" cy="467" r="0.7" fill="#4a2e20" opacity="0.05"/><circle cx="280" cy="274" r="1.9" fill="#4a2e20" opacity="0.06"/><circle cx="385" cy="12" r="1.4" fill="#4a2e20" opacity="0.03"/><circle cx="605" cy="173" r="1.4" fill="#4a2e20" opacity="0.03"/><circle cx="261" cy="443" r="0.7" fill="#4a2e20" opacity="0.07"/><circle cx="403" cy="63" r="2.1" fill="#4a2e20" opacity="0.04"/><circle cx="606" cy="430" r="0.5" fill="#4a2e20" opacity="0.06"/><circle cx="155" cy="368" r="2.3" fill="#4a2e20" opacity="0.03"/><circle cx="379" cy="223" r="2.1" fill="#4a2e20" opacity="0.06"/><circle cx="271" cy="215" r="1.0" fill="#4a2e20" opacity="0.07"/><circle cx="269" cy="399" r="2.2" fill="#4a2e20" opacity="0.07"/><circle cx="148" cy="279" r="0.7" fill="#4a2e20" opacity="0.03"/><circle cx="464" cy="368" r="1.3" fill="#4a2e20" opacity="0.05"/><circle cx="452" cy="200" r="0.6" fill="#4a2e20" opacity="0.05"/><circle cx="575" cy="285" r="0.8" fill="#4a2e20" opacity="0.05"/><circle cx="93" cy="352" r="1.7" fill="#4a2e20" opacity="0.08"/><circle cx="421" cy="59" r="2.4" fill="#4a2e20" opacity="0.03"/><circle cx="376" cy="258" r="1.9" fill="#4a2e20" opacity="0.02"/><circle cx="397" cy="130" r="1.2" fill="#4a2e20" opacity="0.08"/><circle cx="532" cy="341" r="0.8" fill="#4a2e20" opacity="0.02"/><circle cx="43" cy="262" r="1.8" fill="#4a2e20" opacity="0.06"/><circle cx="401" cy="360" r="0.9" fill="#4a2e20" opacity="0.04"/><circle cx="211" cy="232" r="2.1" fill="#4a2e20" opacity="0.03"/><circle cx="511" cy="119" r="0.8" fill="#4a2e20" opacity="0.03"/>
  <circle cx="320" cy="222" r="136" fill="#fffdf8" opacity="0.85"/>
  <circle cx="320" cy="222" r="136" fill="none" stroke="#f1e7d2" stroke-width="3"/><rect x="194" y="154" width="252" height="156" rx="14" fill="#4a2e20" opacity="0.9"/>
  <rect x="194" y="154" width="252" height="62.400000000000006" rx="14" fill="#f1e7d2"/><circle cx="254" cy="198.6" r="54" fill="#d99a2b"/>
  <circle cx="254" cy="198.6" r="54" fill="none" stroke="#4a2e20" stroke-opacity="0.35" stroke-width="3"/>
  <ellipse cx="238.88" cy="182.4" rx="24.3" ry="16.2" fill="#fff" opacity="0.16"/><circle cx="380" cy="187.68" r="60" fill="#d99a2b"/>
  <circle cx="380" cy="187.68" r="60" fill="none" stroke="#4a2e20" stroke-opacity="0.35" stroke-width="3"/>
  <ellipse cx="363.2" cy="169.68" rx="27" ry="18" fill="#fff" opacity="0.16"/><g stroke="#4a2e20" stroke-opacity="0.5" stroke-width="3" stroke-linecap="round"><line x1="392" y1="187.68" x2="429.2" y2="187.68"/><line x1="388.4852813742386" y1="196.1652813742386" x2="414.78965363437817" y2="222.46965363437815"/><line x1="380" y1="199.68" x2="380" y2="236.88"/><line x1="371.5147186257614" y1="196.1652813742386" x2="345.2103463656219" y2="222.46965363437815"/><line x1="368" y1="187.68" x2="330.8" y2="187.68"/><line x1="371.5147186257614" y1="179.19471862576142" x2="345.21034636562183" y2="152.89034636562187"/><line x1="380" y1="175.68" x2="380" y2="138.48000000000002"/><line x1="388.4852813742386" y1="179.19471862576142" x2="414.7896536343781" y2="152.89034636562187"/></g><ellipse cx="326" cy="214.2" rx="48" ry="26.4" fill="#b4392b" opacity="0.85"/><rect x="274.1" y="164.25" width="91.8" height="67.5" rx="12" fill="#b4392b"/><rect x="274.1" y="164.25" width="91.8" height="22.950000000000003" rx="12" fill="#fffdf8" opacity="0.95"/><rect x="274.1" y="195.3" width="91.8" height="6" fill="#fffdf8" opacity="0.5"/><circle cx="320" cy="173.7" r="8" fill="#b4392b"/>
  
</svg>