<svg xmlns="http://www.w3.org/2000/svg" viewBox="0 0 640 480" width="640" height="480" role="img">
  <defs>
    <radialGradient id="g111" cx="32%" cy="26%" r="85%">
      <stop offset="0%" stop-color="#fffdf8"/>
      <stop offset="55%" stop-color="#d99a2b" stop-opacity="0.30"/>
      <stop offset="100%" stop-color="#b4392b" stop-opacity="0.42"/>
    </radialGradient>
    <linearGradient id="g111p" x1="0" y1="0" x2="0" y2="1">
      <stop offset="0%" stop-color="#fffdf8"/>
      <stop offset="100%" stop-color="#f1e7d2"/>
    </linearGradient>
  </defs>
  <rect width="640" height="480" fill="#faf4e8"/>
  <rect width="640" height="480" fill="url(#g111)"/>
  <circle cx="634" cy="386" r="0.7" fill="#4a2e20" opacity="0.05"/><circle cx="639" cy="367" r="1.3" fill="#4a2e20" opacity="0.05"/><circle cx="115" cy="241" r="1.9" fill="#4a2e20" opacity="0.04"/><circle cx="326" cy="387" r="0.7" fill="#4a2e20" opacity="0.04"/><circle cx="471" cy="95" r="2.3" fill="#4a2e20" opacity="0.07"/><circle cx="430" cy="33" r="1.7" fill="#4a2e20" opacity="0.02"/><circle cx="275" cy="47" r="2.0" fill="#4a2e20" opacity="0.05"/><circle cx="406" cy="353" r="1.0" fill="#4a2e20" opacity="0.04"/><circle cx="419" cy="271" r="1.5" fill="#4a2e20" opacity="0.05"/><circle cx="163" cy="54" r="1.5" fill="#4a2e20" opacity="0.05"/><circle cx="56" cy="237" r="2.0" fill="#4a2e20" opacity="0.06"/><circle cx="470" cy="31" r="2.2" fill="#4a2e20" opacity="0.03"/><circle cx="624" cy="92" r="0.9" fill="#4a2e20" opacity="0.06"/><circle cx="619" cy="457" r="1.6" fill="#4a2e20" opacity="0.06"/><circle cx="133" cy="340" r="1.9" fill="#4a2e20" opacity="0.03"/><circle cx="87" cy="164" r="2.3" fill="#4a2e20" opacity="0.07"/><circle cx="400" cy="143" r="2.0" fill="#4a2e20" opacity="0.02"/><circle cx="553" cy="339" r="2.1" fill="#4a2e20" opacity="0.02"/><circle cx="31" cy="65" r="0.7" fill="#4a2e20" opacity="0.05"/><circle cx="246" cy="100" r="1.3" fill="#4a2e20" opacity="0.05"/><circle cx="21" cy="108" r="0.7" fill="#4a2e20" opacity="0.05"/><circle cx="153" cy="189" r="0.5" fill="#4a2e20" opacity="0.06"/><circle cx="346" cy="330" r="1.9" fill="#4a2e20" opacity="0.02"/><circle cx="589" cy="137" r="2.2" fill="#4a2e20" opacity="0.06"/><circle cx="281" cy="231" r="1.2" fill="#4a2e20" opacity="0.03"/><circle cx="452" cy="121" r="1.6" fill="#4a2e20" opacity="0.06"/><circle cx="225" cy="217" r="2.1" fill="#4a2e20" opacity="0.05"/><circle cx="563" cy="410" r="0.8" fill="#4a2e20" opacity="0.08"/><circle cx="91" cy="105" r="0.8" fill="#4a2e20" opacity="0.06"/><circle cx="128" cy="120" r="1.0" fill="#4a2e20" opacity="0.07"/><circle cx="532" cy="116" r="1.9" fill="#4a2e20" opacity="0.08"/><circle cx="552" cy="70" r="2.4" fill="#4a2e20" opacity="0.08"/><circle cx="623" cy="108" r="1.9" fill="#4a2e20" opacity="0.04"/><circle cx="430" cy="176" r="2.2" fill="#4a2e20" opacity="0.03"/><circle cx="327" cy="443" r="0.5" fill="#4a2e20" opacity="0.05"/><circle cx="108" cy="77" r="1.7" fill="#4a2e20" opacity="0.03"/>
  <circle cx="320" cy="222" r="136" fill="#fffdf8" opacity="0.85"/>
  <circle cx="320" cy="222" r="136" fill="none" stroke="#f1e7d2" stroke-width="3"/><circle cx="320" cy="222" r="120" fill="#b9781a"/>
  <circle cx="320" cy="222" r="120" fill="none" stroke="#4a2e20" stroke-opacity="0.35" stroke-width="3"/>
  <ellipse cx="286.4" cy="186" rx="54" ry="36" fill="#fff" opacity="0.16"/><circle cx="319" cy="218" r="1.8" fill="#4a2e20" opacity="0.5"/><circle cx="313" cy="224" r="1.8" fill="#4a2e20" opacity="0.5"/><circle cx="324" cy="173" r="1.8" fill="#4a2e20" opacity="0.5"/><circle cx="304" cy="223" r="1.8" fill="#4a2e20" opacity="0.5"/><circle cx="315" cy="278" r="1.8" fill="#4a2e20" opacity="0.5"/><circle cx="323" cy="230" r="1.8" fill="#4a2e20" opacity="0.5"/><circle cx="309" cy="175" r="1.8" fill="#4a2e20" opacity="0.5"/><circle cx="344" cy="136" r="1.8" fill="#4a2e20" opacity="0.5"/><circle cx="289" cy="285" r="1.8" fill="#4a2e20" opacity="0.5"/><circle cx="304" cy="289" r="1.8" fill="#4a2e20" opacity="0.5"/><circle cx="236" cy="208" r="1.8" fill="#4a2e20" opacity="0.5"/><circle cx="319" cy="222" r="1.8" fill="#4a2e20" opacity="0.5"/><circle cx="343" cy="200" r="1.8" fill="#4a2e20" opacity="0.5"/><circle cx="392" cy="192" r="1.8" fill="#4a2e20" opacity="0.5"/><circle cx="256" cy="257" r="1.8" fill="#4a2e20" opacity="0.5"/><circle cx="341" cy="253" r="1.8" fill="#4a2e20" opacity="0.5"/><circle cx="320" cy="222" r="1.8" fill="#4a2e20" opacity="0.5"/><circle cx="369" cy="225" r="1.8" fill="#4a2e20" opacity="0.5"/>
  
</svg>