<svg xmlns="http://www.w3.org/2000/svg" viewBox="0 0 640 480" width="640" height="480" role="img">
  <defs>
    <radialGradient id="g102" cx="32%" cy="26%" r="85%">
      <stop offset="0%" stop-color="#fffdf8"/>
      <stop offset="55%" stop-color="#d99a2b" stop-opacity="0.30"/>
      <stop offset="100%" stop-color="#b4392b" stop-opacity="0.42"/>
    </radialGradient>
    <linearGradient id="g102p" x1="0" y1="0" x2="0" y2="1">
      <stop offset="0%" stop-color="#fffdf8"/>
      <stop offset="100%" stop-color="#f1e7d2"/>
    </linearGradient>
  </defs>
  <rect width="640" height="480" fill="#faf4e8"/>
  <rect width="640" height="480" fill="url(#g102)"/>
  <circle cx="440" cy="261" r="2.0" fill="#4a2e20" opacity="0.08"/><circle cx="592" cy="340" r="1.9" fill="#4a2e20" opacity="0.07"/><circle cx="314" cy="76" r="1.5" fill="#4a2e20" opacity="0.08"/><circle cx="520" cy="389" r="1.9" fill="#4a2e20" opacity="0.07"/><circle cx="206" cy="285" r="0.7" fill="#4a2e20" opacity="0.05"/><circle cx="427" cy="423" r="1.3" fill="#4a2e20" opacity="0.05"/><circle cx="588" cy="365" r="1.0" fill="#4a2e20" opacity="0.07"/><circle cx="180" cy="351" r="1.1" fill="#4a2e20" opacity="0.02"/><circle cx="314" cy="62" r="2.5" fill="#4a2e20" opacity="0.03"/><circle cx="295" cy="438" r="0.7" fill="#4a2e20" opacity="0.05"/><circle cx="282" cy="200" r="0.6" fill="#4a2e20" opacity="0.06"/><circle cx="286" cy="352" r="0.9" fill="#4a2e20" opacity="0.03"/><circle cx="544" cy="206" r="2.4" fill="#4a2e20" opacity="0.08"/><circle cx="224" cy="441" r="2.4" fill="#4a2e20" opacity="0.04"/><circle cx="455" cy="153" r="1.4" fill="#4a2e20" opacity="0.03"/><circle cx="524" cy="250" r="1.1" fill="#4a2e20" opacity="0.06"/><circle cx="31" cy="146" r="2.3" fill="#4a2e20" opacity="0.06"/><circle cx="340" cy="335" r="1.7" fill="#4a2e20" opacity="0.03"/><circle cx="444" cy="264" r="0.7" fill="#4a2e20" opacity="0.07"/><circle cx="373" cy="137" r="1.2" fill="#4a2e20" opacity="0.02"/><circle cx="162" cy="196" r="1.9" fill="#4a2e20" opacity="0.06"/><circle cx="563" cy="248" r="2.1" fill="#4a2e20" opacity="0.07"/><circle cx="15" cy="13" r="1.2" fill="#4a2e20" opacity="0.03"/><circle cx="114" cy="166" r="1.5" fill="#4a2e20" opacity="0.06"/><circle cx="123" cy="335" r="1.5" fill="#4a2e20" opacity="0.08"/><circle cx="58" cy="99" r="2.0" fill="#4a2e20" opacity="0.07"/><circle cx="430" cy="85" r="0.7" fill="#4a2e20" opacity="0.05"/><circle cx="612" cy="407" r="0.9" fill="#4a2e20" opacity="0.05"/><circle cx="231" cy="433" r="2.0" fill="#4a2e20" opacity="0.08"/><circle cx="605" cy="398" r="2.5" fill="#4a2e20" opacity="0.02"/><circle cx="169" cy="46" r="0.9" fill="#4a2e20" opacity="0.08"/><circle cx="541" cy="279" r="1.5" fill="#4a2e20" opacity="0.07"/><circle cx="175" cy="367" r="2.2" fill="#4a2e20" opacity="0.03"/><circle cx="334" cy="369" r="0.6" fill="#4a2e20" opacity="0.04"/><circle cx="40" cy="144" r="0.7" fill="#4a2e20" opacity="0.07"/><circle cx="546" cy="119" r="1.0" fill="#4a2e20" opacity="0.05"/>
  <circle cx="320" cy="222" r="136" fill="#fffdf8" opacity="0.85"/>
  <circle cx="320" cy="222" r="136" fill="none" stroke="#f1e7d2" stroke-width="3"/><circle cx="320" cy="222" r="120" fill="#b9781a"/>
  <circle cx="320" cy="222" r="120" fill="none" stroke="#4a2e20" stroke-opacity="0.35" stroke-width="3"/>
  <ellipse cx="286.4" cy="186" rx="54" ry="36" fill="#fff" opacity="0.16"/><circle cx="319" cy="218" r="1.8" fill="#4a2e20" opacity="0.5"/><circle cx="313" cy="224" r="1.8" fill="#4a2e20" opacity="0.5"/><circle cx="324" cy="173" r="1.8" fill="#4a2e20" opacity="0.5"/><circle cx="304" cy="223" r="1.8" fill="#4a2e20" opacity="0.5"/><circle cx="315" cy="278" r="1.8" fill="#4a2e20" opacity="0.5"/><circle cx="323" cy="230" r="1.8" fill="#4a2e20" opacity="0.5"/><circle cx="309" cy="175" r="1.8" fill="#4a2e20" opacity="0.5"/><circle cx="344" cy="136" r="1.8" fill="#4a2e20" opacity="0.5"/><circle cx="289" cy="285" r="1.8" fill="#4a2e20" opacity="0.5"/><circle cx="304" cy="289" r="1.8" fill="#4a2e20" opacity="0.5"/><circle cx="236" cy="208" r="1.8" fill="#4a2e20" opacity="0.5"/><circle cx="319" cy="222" r="1.8" fill="#4a2e20" opacity="0.5"/><circle cx="343" cy="200" r="1.8" fill="#4a2e20" opacity="0.5"/><circle cx="392" cy="192" r="1.8" fill="#4a2e20" opacity="0.5"/><circle cx="256" cy="257" r="1.8" fill="#4a2e20" opacity="0.5"/><circle cx="341" cy="253" r="1.8" fill="#4a2e20" opacity="0.5"/><circle cx="320" cy="222" r="1.8" fill="#4a2e20" opacity="0.5"/><circle cx="369" cy="225" r="1.8" fill="#4a2e20" opacity="0.5"/>
  
</svg>