<svg xmlns="http://www.w3.org/2000/svg" viewBox="0 0 640 480" width="640" height="480" role="img">
  <defs>
    <radialGradient id="g106" cx="32%" cy="26%" r="85%">
      <stop offset="0%" stop-color="#fffdf8"/>
      <stop offset="55%" stop-color="#d99a2b" stop-opacity="0.30"/>
      <stop offset="100%" stop-color="#b4392b" stop-opacity="0.42"/>
    </radialGradient>
    <linearGradient id="g106p" x1="0" y1="0" x2="0" y2="1">
      <stop offset="0%" stop-color="#fffdf8"/>
      <stop offset="100%" stop-color="#f1e7d2"/>
    </linearGradient>
  </defs>
  <rect width="640" height="480" fill="#faf4e8"/>
  <rect width="640" height="480" fill="url(#g106)"/>
  <circle cx="134" cy="314" r="0.7" fill="#4a2e20" opacity="0.07"/><circle cx="156" cy="274" r="2.1" fill="#4a2e20" opacity="0.07"/><circle cx="17" cy="56" r="1.7" fill="#4a2e20" opacity="0.08"/><circle cx="102" cy="219" r="0.8" fill="#4a2e20" opacity="0.06"/><circle cx="292" cy="338" r="2.4" fill="#4a2e20" opacity="0.06"/><circle cx="76" cy="275" r="1.1" fill="#4a2e20" opacity="0.03"/><circle cx="94" cy="158" r="1.0" fill="#4a2e20" opacity="0.07"/><circle cx="369" cy="111" r="1.2" fill="#4a2e20" opacity="0.05"/><circle cx="570" cy="252" r="1.3" fill="#4a2e20" opacity="0.04"/><circle cx="345" cy="119" r="0.5" fill="#4a2e20" opacity="0.04"/><circle cx="418" cy="262" r="2.4" fill="#4a2e20" opacity="0.02"/><circle cx="475" cy="204" r="1.9" fill="#4a2e20" opacity="0.04"/><circle cx="225" cy="13" r="1.8" fill="#4a2e20" opacity="0.06"/><circle cx="345" cy="342" r="1.7" fill="#4a2e20" opacity="0.04"/><circle cx="346" cy="198" r="1.4" fill="#4a2e20" opacity="0.05"/><circle cx="247" cy="276" r="1.5" fill="#4a2e20" opacity="0.02"/><circle cx="291" cy="6" r="0.9" fill="#4a2e20" opacity="0.05"/><circle cx="256" cy="118" r="1.2" fill="#4a2e20" opacity="0.03"/><circle cx="236" cy="372" r="1.0" fill="#4a2e20" opacity="0.04"/><circle cx="20" cy="1" r="2.5" fill="#4a2e20" opacity="0.05"/><circle cx="80" cy="410" r="1.5" fill="#4a2e20" opacity="0.04"/><circle cx="253" cy="374" r="0.5" fill="#4a2e20" opacity="0.08"/><circle cx="113" cy="352" r="0.9" fill="#4a2e20" opacity="0.04"/><circle cx="268" cy="166" r="1.2" fill="#4a2e20" opacity="0.04"/><circle cx="521" cy="138" r="1.3" fill="#4a2e20" opacity="0.05"/><circle cx="452" cy="410" r="1.4" fill="#4a2e20" opacity="0.05"/><circle cx="525" cy="361" r="1.9" fill="#4a2e20" opacity="0.06"/><circle cx="148" cy="139" r="0.9" fill="#4a2e20" opacity="0.07"/><circle cx="565" cy="412" r="2.2" fill="#4a2e20" opacity="0.08"/><circle cx="601" cy="447" r="2.3" fill="#4a2e20" opacity="0.04"/><circle cx="383" cy="119" r="0.7" fill="#4a2e20" opacity="0.03"/><circle cx="174" cy="257" r="0.9" fill="#4a2e20" opacity="0.07"/><circle cx="459" cy="461" r="1.7" fill="#4a2e20" opacity="0.05"/><circle cx="281" cy="116" r="1.8" fill="#4a2e20" opacity="0.06"/><circle cx="439" cy="311" r="0.8" fill="#4a2e20" opacity="0.05"/><circle cx="42" cy="318" r="0.7" fill="#4a2e20" opacity="0.07"/>
  <circle cx="320" cy="222" r="136" fill="#fffdf8" opacity="0.85"/>
  <circle cx="320" cy="222" r="136" fill="none" stroke="#f1e7d2" stroke-width="3"/><circle cx="320" cy="222" r="120" fill="#d99a2b"/>
  <circle cx="320" cy="222" r="120" fill="none" stroke="#4a2e20" stroke-opacity="0.35" stroke-width="3"/>
  <ellipse cx="286.4" cy="186" rx="54" ry="36" fill="#fff" opacity="0.16"/><circle cx="284" cy="210" r="9" fill="#fffdf8" opacity="0.8"/>
     <circle cx="350" cy="240" r="11" fill="#fffdf8" opacity="0.8"/>
     <circle cx="326" cy="180" r="8" fill="#fffdf8" opacity="0.75"/>
  
</svg>