<svg xmlns="http://www.w3.org/2000/svg" viewBox="0 0 640 480" width="640" height="480" role="img">
  <defs>
    <radialGradient id="g131" cx="32%" cy="26%" r="85%">
      <stop offset="0%" stop-color="#fffdf8"/>
      <stop offset="55%" stop-color="#b4392b" stop-opacity="0.30"/>
      <stop offset="100%" stop-color="#b9781a" stop-opacity="0.42"/>
    </radialGradient>
    <linearGradient id="g131p" x1="0" y1="0" x2="0" y2="1">
      <stop offset="0%" stop-color="#fffdf8"/>
      <stop offset="100%" stop-color="#f1e7d2"/>
    </linearGradient>
  </defs>
  <rect width="640" height="480" fill="#faf4e8"/>
  <rect width="640" height="480" fill="url(#g131)"/>
  <circle cx="123" cy="471" r="0.7" fill="#4a2e20" opacity="0.02"/><circle cx="159" cy="423" r="0.6" fill="#4a2e20" opacity="0.04"/><circle cx="73" cy="376" r="0.6" fill="#4a2e20" opacity="0.06"/><circle cx="489" cy="186" r="1.8" fill="#4a2e20" opacity="0.06"/><circle cx="61" cy="244" r="1.0" fill="#4a2e20" opacity="0.06"/><circle cx="33" cy="154" r="1.5" fill="#4a2e20" opacity="0.03"/><circle cx="114" cy="354" r="0.6" fill="#4a2e20" opacity="0.02"/><circle cx="251" cy="410" r="2.1" fill="#4a2e20" opacity="0.06"/><circle cx="387" cy="479" r="0.6" fill="#4a2e20" opacity="0.07"/><circle cx="603" cy="213" r="0.6" fill="#4a2e20" opacity="0.06"/><circle cx="440" cy="33" r="2.0" fill="#4a2e20" opacity="0.05"/><circle cx="204" cy="438" r="1.7" fill="#4a2e20" opacity="0.02"/><circle cx="260" cy="195" r="2.3" fill="#4a2e20" opacity="0.02"/><circle cx="454" cy="167" r="2.1" fill="#4a2e20" opacity="0.06"/><circle cx="391" cy="77" r="1.0" fill="#4a2e20" opacity="0.05"/><circle cx="472" cy="468" r="1.0" fill="#4a2e20" opacity="0.06"/><circle cx="160" cy="288" r="1.9" fill="#4a2e20" opacity="0.07"/><circle cx="302" cy="155" r="2.2" fill="#4a2e20" opacity="0.06"/><circle cx="27" cy="339" r="0.7" fill="#4a2e20" opacity="0.04"/><circle cx="434" cy="314" r="0.6" fill="#4a2e20" opacity="0.04"/><circle cx="292" cy="307" r="0.6" fill="#4a2e20" opacity="0.08"/><circle cx="483" cy="10" r="2.2" fill="#4a2e20" opacity="0.05"/><circle cx="602" cy="64" r="1.2" fill="#4a2e20" opacity="0.05"/><circle cx="21" cy="415" r="1.9" fill="#4a2e20" opacity="0.05"/><circle cx="92" cy="380" r="2.2" fill="#4a2e20" opacity="0.03"/><circle cx="37" cy="2" r="2.4" fill="#4a2e20" opacity="0.07"/><circle cx="512" cy="282" r="2.2" fill="#4a2e20" opacity="0.03"/><circle cx="300" cy="324" r="1.8" fill="#4a2e20" opacity="0.05"/><circle cx="162" cy="10" r="2.3" fill="#4a2e20" opacity="0.02"/><circle cx="11" cy="340" r="2.2" fill="#4a2e20" opacity="0.03"/><circle cx="477" cy="137" r="2.5" fill="#4a2e20" opacity="0.08"/><circle cx="501" cy="421" r="1.8" fill="#4a2e20" opacity="0.07"/><circle cx="416" cy="345" r="2.4" fill="#4a2e20" opacity="0.07"/><circle cx="152" cy="34" r="1.7" fill="#4a2e20" opacity="0.04"/><circle cx="55" cy="107" r="0.8" fill="#4a2e20" opacity="0.03"/><circle cx="24" cy="456" r="1.3" fill="#4a2e20" opacity="0.03"/>
  <circle cx="320" cy="222" r="136" fill="#fffdf8" opacity="0.85"/>
  <circle cx="320" cy="222" r="136" fill="none" stroke="#f1e7d2" stroke-width="3"/><rect x="257" y="217" width="14" height="12" rx="4" fill="#b9781a" opacity="0.9" transform="rotate(21 320 222)"/><rect x="311" y="220" width="13" height="12" rx="4" fill="#b9781a" opacity="0.9" transform="rotate(-3 320 222)"/><rect x="220" y="235" width="12" height="12" rx="4" fill="#b9781a" opacity="0.9" transform="rotate(11 320 222)"/><rect x="331" y="240" width="11" height="10" rx="4" fill="#b9781a" opacity="0.9" transform="rotate(-7 320 222)"/><rect x="307" y="214" width="14" height="12" rx="4" fill="#b9781a" opacity="0.9" transform="rotate(-5 320 222)"/><rect x="374" y="142" width="16" height="10" rx="4" fill="#b9781a" opacity="0.9" transform="rotate(7 320 222)"/><rect x="320" y="229" width="15" height="15" rx="4" fill="#b9781a" opacity="0.9" transform="rotate(-12 320 222)"/><rect x="374" y="293" width="11" height="11" rx="4" fill="#b9781a" opacity="0.9" transform="rotate(5 320 222)"/><rect x="330" y="208" width="16" height="14" rx="4" fill="#b9781a" opacity="0.9" transform="rotate(-7 320 222)"/><rect x="329" y="223" width="16" height="11" rx="4" fill="#b9781a" opacity="0.9" transform="rotate(2 320 222)"/><rect x="312" y="282" width="15" height="8" rx="4" fill="#b9781a" opacity="0.9" transform="rotate(9 320 222)"/><rect x="371" y="237" width="14" height="15" rx="4" fill="#b9781a" opacity="0.9" transform="rotate(-4 320 222)"/><rect x="279" y="231" width="8" height="13" rx="4" fill="#b9781a" opacity="0.9" transform="rotate(-5 320 222)"/><rect x="322" y="186" width="14" height="10" rx="4" fill="#b9781a" opacity="0.9" transform="rotate(21 320 222)"/><rect x="328" y="234" width="14" height="12" rx="4" fill="#b9781a" opacity="0.9" transform="rotate(-22 320 222)"/><rect x="289" y="255" width="17" height="14" rx="4" fill="#b9781a" opacity="0.9" transform="rotate(8 320 222)"/><rect x="227" y="281" width="14" height="10" rx="4" fill="#b9781a" opacity="0.9" transform="rotate(-12 320 222)"/><rect x="319" y="222" width="17" height="9" rx="4" fill="#b9781a" opacity="0.9" transform="rotate(-6 320 222)"/><rect x="327" y="229" width="15" height="11" rx="4" fill="#b9781a" opacity="0.9" transform="rotate(1 320 222)"/><rect x="373" y="263" width="14" height="14" rx="4" fill="#b9781a" opacity="0.9" transform="rotate(28 320 222)"/><rect x="261" y="180" width="14" height="11" rx="4" fill="#b9781a" opacity="0.9" transform="rotate(-24 320 222)"/><rect x="275" y="158" width="18" height="13" rx="4" fill="#b9781a" opacity="0.9" transform="rotate(-22 320 222)"/>
  
</svg>