<svg xmlns="http://www.w3.org/2000/svg" viewBox="0 0 640 480" width="640" height="480" role="img">
  <defs>
    <radialGradient id="g109" cx="32%" cy="26%" r="85%">
      <stop offset="0%" stop-color="#fffdf8"/>
      <stop offset="55%" stop-color="#b4392b" stop-opacity="0.30"/>
      <stop offset="100%" stop-color="#b9781a" stop-opacity="0.42"/>
    </radialGradient>
    <linearGradient id="g109p" x1="0" y1="0" x2="0" y2="1">
      <stop offset="0%" stop-color="#fffdf8"/>
      <stop offset="100%" stop-color="#f1e7d2"/>
    </linearGradient>
  </defs>
  <rect width="640" height="480" fill="#faf4e8"/>
  <rect width="640" height="480" fill="url(#g109)"/>
  <circle cx="596" cy="392" r="1.7" fill="#4a2e20" opacity="0.03"/><circle cx="208" cy="242" r="1.6" fill="#4a2e20" opacity="0.03"/><circle cx="260" cy="371" r="1.3" fill="#4a2e20" opacity="0.03"/><circle cx="160" cy="205" r="1.0" fill="#4a2e20" opacity="0.05"/><circle cx="608" cy="107" r="1.0" fill="#4a2e20" opacity="0.06"/><circle cx="552" cy="298" r="2.0" fill="#4a2e20" opacity="0.06"/><circle cx="275" cy="98" r="2.2" fill="#4a2e20" opacity="0.07"/><circle cx="486" cy="305" r="2.1" fill="#4a2e20" opacity="0.08"/><circle cx="48" cy="338" r="1.3" fill="#4a2e20" opacity="0.03"/><circle cx="126" cy="132" r="1.1" fill="#4a2e20" opacity="0.02"/><circle cx="228" cy="161" r="1.0" fill="#4a2e20" opacity="0.03"/><circle cx="447" cy="297" r="1.7" fill="#4a2e20" opacity="0.02"/><circle cx="565" cy="287" r="1.3" fill="#4a2e20" opacity="0.07"/><circle cx="216" cy="290" r="0.9" fill="#4a2e20" opacity="0.04"/><circle cx="613" cy="177" r="2.1" fill="#4a2e20" opacity="0.03"/><circle cx="273" cy="14" r="1.0" fill="#4a2e20" opacity="0.02"/><circle cx="558" cy="406" r="2.0" fill="#4a2e20" opacity="0.04"/><circle cx="511" cy="54" r="2.2" fill="#4a2e20" opacity="0.06"/><circle cx="305" cy="360" r="0.5" fill="#4a2e20" opacity="0.05"/><circle cx="418" cy="397" r="0.6" fill="#4a2e20" opacity="0.04"/><circle cx="102" cy="198" r="1.6" fill="#4a2e20" opacity="0.07"/><circle cx="562" cy="364" r="0.6" fill="#4a2e20" opacity="0.06"/><circle cx="249" cy="461" r="0.9" fill="#4a2e20" opacity="0.02"/><circle cx="267" cy="137" r="1.4" fill="#4a2e20" opacity="0.07"/><circle cx="566" cy="385" r="1.9" fill="#4a2e20" opacity="0.07"/><circle cx="457" cy="2" r="1.5" fill="#4a2e20" opacity="0.04"/><circle cx="319" cy="379" r="2.2" fill="#4a2e20" opacity="0.02"/><circle cx="221" cy="221" r="2.0" fill="#4a2e20" opacity="0.04"/><circle cx="475" cy="328" r="1.4" fill="#4a2e20" opacity="0.05"/><circle cx="555" cy="421" r="1.2" fill="#4a2e20" opacity="0.08"/><circle cx="129" cy="152" r="1.2" fill="#4a2e20" opacity="0.03"/><circle cx="579" cy="120" r="1.1" fill="#4a2e20" opacity="0.03"/><circle cx="414" cy="158" r="1.6" fill="#4a2e20" opacity="0.05"/><circle cx="87" cy="42" r="0.5" fill="#4a2e20" opacity="0.02"/><circle cx="199" cy="146" r="2.0" fill="#4a2e20" opacity="0.04"/><circle cx="56" cy="375" r="1.9" fill="#4a2e20" opacity="0.06"/>
  <circle cx="320" cy="222" r="136" fill="#fffdf8" opacity="0.85"/>
  <circle cx="320" cy="222" r="136" fill="none" stroke="#f1e7d2" stroke-width="3"/><rect x="257" y="217" width="14" height="12" rx="4" fill="#b9781a" opacity="0.9" transform="rotate(21 320 222)"/><rect x="311" y="220" width="13" height="12" rx="4" fill="#b9781a" opacity="0.9" transform="rotate(-3 320 222)"/><rect x="220" y="235" width="12" height="12" rx="4" fill="#b9781a" opacity="0.9" transform="rotate(11 320 222)"/><rect x="331" y="240" width="11" height="10" rx="4" fill="#b9781a" opacity="0.9" transform="rotate(-7 320 222)"/><rect x="307" y="214" width="14" height="12" rx="4" fill="#b9781a" opacity="0.9" transform="rotate(-5 320 222)"/><rect x="374" y="142" width="16" height="10" rx="4" fill="#b9781a" opacity="0.9" transform="rotate(7 320 222)"/><rect x="320" y="229" width="15" height="15" rx="4" fill="#b9781a" opacity="0.9" transform="rotate(-12 320 222)"/><rect x="374" y="293" width="11" height="11" rx="4" fill="#b9781a" opacity="0.9" transform="rotate(5 320 222)"/><rect x="330" y="208" width="16" height="14" rx="4" fill="#b9781a" opacity="0.9" transform="rotate(-7 320 222)"/><rect x="329" y="223" width="16" height="11" rx="4" fill="#b9781a" opacity="0.9" transform="rotate(2 320 222)"/><rect x="312" y="282" width="15" height="8" rx="4" fill="#b9781a" opacity="0.9" transform="rotate(9 320 222)"/><rect x="371" y="237" width="14" height="15" rx="4" fill="#b9781a" opacity="0.9" transform="rotate(-4 320 222)"/><rect x="279" y="231" width="8" height="13" rx="4" fill="#b9781a" opacity="0.9" transform="rotate(-5 320 222)"/><rect x="322" y="186" width="14" height="10" rx="4" fill="#b9781a" opacity="0.9" transform="rotate(21 320 222)"/><rect x="328" y="234" width="14" height="12" rx="4" fill="#b9781a" opacity="0.9" transform="rotate(-22 320 222)"/><rect x="289" y="255" width="17" height="14" rx="4" fill="#b9781a" opacity="0.9" transform="rotate(8 320 222)"/><rect x="227" y="281" width="14" height="10" rx="4" fill="#b9781a" opacity="0.9" transform="rotate(-12 320 222)"/><rect x="319" y="222" width="17" height="9" rx="4" fill="#b9781a" opacity="0.9" transform="rotate(-6 320 222)"/><rect x="327" y="229" width="15" height="11" rx="4" fill="#b9781a" opacity="0.9" transform="rotate(1 320 222)"/><rect x="373" y="263" width="14" height="14" rx="4" fill="#b9781a" opacity="0.9" transform="rotate(28 320 222)"/><rect x="261" y="180" width="14" height="11" rx="4" fill="#b9781a" opacity="0.9" transform="rotate(-24 320 222)"/><rect x="275" y="158" width="18" height="13" rx="4" fill="#b9781a" opacity="0.9" transform="rotate(-22 320 222)"/>
  
</svg>