<svg xmlns="http://www.w3.org/2000/svg" viewBox="0 0 640 480" width="640" height="480" role="img">
  <defs>
    <radialGradient id="g103" cx="32%" cy="26%" r="85%">
      <stop offset="0%" stop-color="#fffdf8"/>
      <stop offset="55%" stop-color="#d99a2b" stop-opacity="0.30"/>
      <stop offset="100%" stop-color="#b4392b" stop-opacity="0.42"/>
    </radialGradient>
    <linearGradient id="g103p" x1="0" y1="0" x2="0" y2="1">
      <stop offset="0%" stop-color="#fffdf8"/>
      <stop offset="100%" stop-color="#f1e7d2"/>
    </linearGradient>
  </defs>
  <rect width="640" height="480" fill="#faf4e8"/>
  <rect width="640" height="480" fill="url(#g103)"/>
  <circle cx="183" cy="454" r="0.8" fill="#4a2e20" opacity="0.07"/><circle cx="208" cy="101" r="1.5" fill="#4a2e20" opacity="0.02"/><circle cx="475" cy="71" r="0.6" fill="#4a2e20" opacity="0.03"/><circle cx="143" cy="250" r="1.2" fill="#4a2e20" opacity="0.02"/><circle cx="263" cy="310" r="2.1" fill="#4a2e20" opacity="0.06"/><circle cx="547" cy="300" r="1.6" fill="#4a2e20" opacity="0.06"/><circle cx="275" cy="83" r="0.7" fill="#4a2e20" opacity="0.08"/><circle cx="29" cy="401" r="1.5" fill="#4a2e20" opacity="0.05"/><circle cx="97" cy="363" r="1.7" fill="#4a2e20" opacity="0.02"/><circle cx="171" cy="31" r="2.2" fill="#4a2e20" opacity="0.06"/><circle cx="579" cy="312" r="1.0" fill="#4a2e20" opacity="0.03"/><circle cx="222" cy="113" r="0.9" fill="#4a2e20" opacity="0.03"/><circle cx="315" cy="424" r="2.1" fill="#4a2e20" opacity="0.04"/><circle cx="265" cy="204" r="1.5" fill="#4a2e20" opacity="0.05"/><circle cx="18" cy="124" r="1.3" fill="#4a2e20" opacity="0.06"/><circle cx="297" cy="223" r="2.1" fill="#4a2e20" opacity="0.05"/><circle cx="304" cy="347" r="0.7" fill="#4a2e20" opacity="0.03"/><circle cx="221" cy="62" r="1.8" fill="#4a2e20" opacity="0.05"/><circle cx="250" cy="301" r="1.4" fill="#4a2e20" opacity="0.05"/><circle cx="610" cy="335" r="2.2" fill="#4a2e20" opacity="0.03"/><circle cx="366" cy="463" r="0.7" fill="#4a2e20" opacity="0.05"/><circle cx="59" cy="345" r="1.4" fill="#4a2e20" opacity="0.07"/><circle cx="261" cy="394" r="2.1" fill="#4a2e20" opacity="0.08"/><circle cx="551" cy="117" r="1.3" fill="#4a2e20" opacity="0.08"/><circle cx="519" cy="266" r="2.4" fill="#4a2e20" opacity="0.05"/><circle cx="310" cy="236" r="2.1" fill="#4a2e20" opacity="0.08"/><circle cx="66" cy="340" r="2.2" fill="#4a2e20" opacity="0.03"/><circle cx="26" cy="377" r="2.1" fill="#4a2e20" opacity="0.06"/><circle cx="56" cy="356" r="2.3" fill="#4a2e20" opacity="0.06"/><circle cx="440" cy="194" r="2.0" fill="#4a2e20" opacity="0.02"/><circle cx="448" cy="274" r="1.0" fill="#4a2e20" opacity="0.04"/><circle cx="124" cy="8" r="1.4" fill="#4a2e20" opacity="0.03"/><circle cx="611" cy="331" r="1.4" fill="#4a2e20" opacity="0.07"/><circle cx="252" cy="306" r="1.6" fill="#4a2e20" opacity="0.05"/><circle cx="373" cy="69" r="1.9" fill="#4a2e20" opacity="0.08"/><circle cx="400" cy="337" r="2.4" fill="#4a2e20" opacity="0.05"/>
  <circle cx="320" cy="222" r="136" fill="#fffdf8" opacity="0.85"/>
  <circle cx="320" cy="222" r="136" fill="none" stroke="#f1e7d2" stroke-width="3"/><circle cx="320" cy="222" r="126" fill="#b4392b"/>
  <circle cx="320" cy="222" r="126" fill="none" stroke="#4a2e20" stroke-opacity="0.35" stroke-width="3"/>
  <ellipse cx="284.72" cy="184.2" rx="56.7" ry="37.8" fill="#fff" opacity="0.16"/><g stroke="#4a2e20" stroke-opacity="0.5" stroke-width="3" stroke-linecap="round"><line x1="345.2" y1="222" x2="423.32" y2="222"/><line x1="337.819090885901" y1="239.819090885901" x2="393.0582726321941" y2="295.0582726321941"/><line x1="320" y1="247.2" x2="320" y2="325.32"/><line x1="302.180909114099" y1="239.819090885901" x2="246.94172736780592" y2="295.0582726321941"/><line x1="294.8" y1="222" x2="216.68" y2="222"/><line x1="302.180909114099" y1="204.180909114099" x2="246.9417273678059" y2="148.94172736780592"/><line x1="320" y1="196.8" x2="320" y2="118.68"/><line x1="337.819090885901" y1="204.180909114099" x2="393.0582726321941" y2="148.9417273678059"/></g>
  
</svg>