<svg xmlns="http://www.w3.org/2000/svg" viewBox="0 0 640 480" width="640" height="480" role="img">
  <defs>
    <radialGradient id="g164" cx="32%" cy="26%" r="85%">
      <stop offset="0%" stop-color="#fffdf8"/>
      <stop offset="55%" stop-color="#1f4a33" stop-opacity="0.30"/>
      <stop offset="100%" stop-color="#d99a2b" stop-opacity="0.42"/>
    </radialGradient>
    <linearGradient id="g164p" x1="0" y1="0" x2="0" y2="1">
      <stop offset="0%" stop-color="#fffdf8"/>
      <stop offset="100%" stop-color="#f1e7d2"/>
    </linearGradient>
  </defs>
  <rect width="640" height="480" fill="#faf4e8"/>
  <rect width="640" height="480" fill="url(#g164)"/>
  <circle cx="152" cy="470" r="1.1" fill="#4a2e20" opacity="0.06"/><circle cx="384" cy="462" r="1.8" fill="#4a2e20" opacity="0.03"/><circle cx="311" cy="152" r="1.3" fill="#4a2e20" opacity="0.03"/><circle cx="140" cy="458" r="0.5" fill="#4a2e20" opacity="0.06"/><circle cx="407" cy="337" r="1.7" fill="#4a2e20" opacity="0.03"/><circle cx="462" cy="126" r="2.5" fill="#4a2e20" opacity="0.03"/><circle cx="146" cy="188" r="0.7" fill="#4a2e20" opacity="0.05"/><circle cx="204" cy="477" r="2.4" fill="#4a2e20" opacity="0.03"/><circle cx="91" cy="421" r="1.4" fill="#4a2e20" opacity="0.04"/><circle cx="218" cy="36" r="1.8" fill="#4a2e20" opacity="0.04"/><circle cx="514" cy="249" r="1.8" fill="#4a2e20" opacity="0.06"/><circle cx="560" cy="187" r="1.4" fill="#4a2e20" opacity="0.07"/><circle cx="515" cy="346" r="1.1" fill="#4a2e20" opacity="0.05"/><circle cx="58" cy="196" r="0.7" fill="#4a2e20" opacity="0.04"/><circle cx="267" cy="242" r="1.1" fill="#4a2e20" opacity="0.03"/><circle cx="121" cy="306" r="1.4" fill="#4a2e20" opacity="0.07"/><circle cx="532" cy="419" r="1.9" fill="#4a2e20" opacity="0.06"/><circle cx="626" cy="402" r="1.0" fill="#4a2e20" opacity="0.04"/><circle cx="463" cy="108" r="2.5" fill="#4a2e20" opacity="0.06"/><circle cx="427" cy="277" r="1.6" fill="#4a2e20" opacity="0.02"/><circle cx="385" cy="328" r="2.0" fill="#4a2e20" opacity="0.04"/><circle cx="295" cy="234" r="0.6" fill="#4a2e20" opacity="0.03"/><circle cx="272" cy="310" r="0.7" fill="#4a2e20" opacity="0.03"/><circle cx="196" cy="263" r="1.5" fill="#4a2e20" opacity="0.05"/><circle cx="518" cy="367" r="1.1" fill="#4a2e20" opacity="0.05"/><circle cx="154" cy="283" r="0.8" fill="#4a2e20" opacity="0.02"/><circle cx="503" cy="283" r="2.2" fill="#4a2e20" opacity="0.06"/><circle cx="266" cy="310" r="1.9" fill="#4a2e20" opacity="0.04"/><circle cx="530" cy="4" r="2.2" fill="#4a2e20" opacity="0.02"/><circle cx="578" cy="25" r="1.0" fill="#4a2e20" opacity="0.02"/><circle cx="330" cy="344" r="1.6" fill="#4a2e20" opacity="0.08"/><circle cx="154" cy="171" r="1.8" fill="#4a2e20" opacity="0.07"/><circle cx="271" cy="96" r="2.0" fill="#4a2e20" opacity="0.05"/><circle cx="614" cy="328" r="0.9" fill="#4a2e20" opacity="0.02"/><circle cx="421" cy="271" r="1.3" fill="#4a2e20" opacity="0.07"/><circle cx="129" cy="467" r="0.8" fill="#4a2e20" opacity="0.04"/>
  <circle cx="320" cy="222" r="136" fill="#fffdf8" opacity="0.85"/>
  <circle cx="320" cy="222" r="136" fill="none" stroke="#f1e7d2" stroke-width="3"/><rect x="194" y="154" width="252" height="156" rx="14" fill="#4a2e20" opacity="0.9"/>
  <rect x="194" y="154" width="252" height="62.400000000000006" rx="14" fill="#f1e7d2"/><circle cx="254" cy="198.6" r="54" fill="#4a2e20"/>
  <circle cx="254" cy="198.6" r="54" fill="none" stroke="#4a2e20" stroke-opacity="0.35" stroke-width="3"/>
  <ellipse cx="238.88" cy="182.4" rx="24.3" ry="16.2" fill="#fff" opacity="0.16"/><circle cx="380" cy="187.68" r="60" fill="#d99a2b"/>
  <circle cx="380" cy="187.68" r="60" fill="none" stroke="#4a2e20" stroke-opacity="0.35" stroke-width="3"/>
  <ellipse cx="363.2" cy="169.68" rx="27" ry="18" fill="#fff" opacity="0.16"/><g stroke="#4a2e20" stroke-opacity="0.5" stroke-width="3" stroke-linecap="round"><line x1="392" y1="187.68" x2="429.2" y2="187.68"/><line x1="388.4852813742386" y1="196.1652813742386" x2="414.78965363437817" y2="222.46965363437815"/><line x1="380" y1="199.68" x2="380" y2="236.88"/><line x1="371.5147186257614" y1="196.1652813742386" x2="345.2103463656219" y2="222.46965363437815"/><line x1="368" y1="187.68" x2="330.8" y2="187.68"/><line x1="371.5147186257614" y1="179.19471862576142" x2="345.21034636562183" y2="152.89034636562187"/><line x1="380" y1="175.68" x2="380" y2="138.48000000000002"/><line x1="388.4852813742386" y1="179.19471862576142" x2="414.7896536343781" y2="152.89034636562187"/></g><ellipse cx="326" cy="214.2" rx="48" ry="26.4" fill="#b4392b" opacity="0.85"/>
  
</svg>