<svg xmlns="http://www.w3.org/2000/svg" viewBox="0 0 640 480" width="640" height="480" role="img">
  <defs>
    <radialGradient id="g141" cx="32%" cy="26%" r="85%">
      <stop offset="0%" stop-color="#fffdf8"/>
      <stop offset="55%" stop-color="#4a2e20" stop-opacity="0.30"/>
      <stop offset="100%" stop-color="#b4392b" stop-opacity="0.42"/>
    </radialGradient>
    <linearGradient id="g141p" x1="0" y1="0" x2="0" y2="1">
      <stop offset="0%" stop-color="#fffdf8"/>
      <stop offset="100%" stop-color="#f1e7d2"/>
    </linearGradient>
  </defs>
  <rect width="640" height="480" fill="#faf4e8"/>
  <rect width="640" height="480" fill="url(#g141)"/>
  <circle cx="506" cy="81" r="1.1" fill="#4a2e20" opacity="0.05"/><circle cx="517" cy="122" r="1.5" fill="#4a2e20" opacity="0.07"/><circle cx="443" cy="372" r="1.7" fill="#4a2e20" opacity="0.03"/><circle cx="204" cy="205" r="0.9" fill="#4a2e20" opacity="0.04"/><circle cx="10" cy="479" r="0.8" fill="#4a2e20" opacity="0.04"/><circle cx="28" cy="16" r="0.9" fill="#4a2e20" opacity="0.06"/><circle cx="330" cy="365" r="1.7" fill="#4a2e20" opacity="0.04"/><circle cx="638" cy="304" r="1.5" fill="#4a2e20" opacity="0.02"/><circle cx="615" cy="121" r="0.8" fill="#4a2e20" opacity="0.04"/><circle cx="357" cy="123" r="1.9" fill="#4a2e20" opacity="0.07"/><circle cx="279" cy="126" r="1.1" fill="#4a2e20" opacity="0.02"/><circle cx="45" cy="345" r="2.2" fill="#4a2e20" opacity="0.03"/><circle cx="606" cy="227" r="1.5" fill="#4a2e20" opacity="0.02"/><circle cx="166" cy="382" r="1.0" fill="#4a2e20" opacity="0.05"/><circle cx="273" cy="409" r="1.3" fill="#4a2e20" opacity="0.04"/><circle cx="5" cy="134" r="0.8" fill="#4a2e20" opacity="0.07"/><circle cx="566" cy="163" r="1.2" fill="#4a2e20" opacity="0.03"/><circle cx="627" cy="458" r="1.0" fill="#4a2e20" opacity="0.04"/><circle cx="611" cy="355" r="1.3" fill="#4a2e20" opacity="0.05"/><circle cx="127" cy="258" r="0.7" fill="#4a2e20" opacity="0.06"/><circle cx="491" cy="161" r="1.2" fill="#4a2e20" opacity="0.07"/><circle cx="471" cy="72" r="2.2" fill="#4a2e20" opacity="0.08"/><circle cx="335" cy="347" r="0.8" fill="#4a2e20" opacity="0.07"/><circle cx="205" cy="385" r="2.2" fill="#4a2e20" opacity="0.04"/><circle cx="574" cy="5" r="0.7" fill="#4a2e20" opacity="0.03"/><circle cx="618" cy="399" r="1.6" fill="#4a2e20" opacity="0.03"/><circle cx="248" cy="44" r="1.2" fill="#4a2e20" opacity="0.04"/><circle cx="475" cy="82" r="1.9" fill="#4a2e20" opacity="0.05"/><circle cx="75" cy="424" r="1.8" fill="#4a2e20" opacity="0.05"/><circle cx="237" cy="371" r="1.0" fill="#4a2e20" opacity="0.07"/><circle cx="67" cy="476" r="1.2" fill="#4a2e20" opacity="0.04"/><circle cx="291" cy="96" r="0.8" fill="#4a2e20" opacity="0.03"/><circle cx="344" cy="172" r="1.1" fill="#4a2e20" opacity="0.08"/><circle cx="279" cy="117" r="0.6" fill="#4a2e20" opacity="0.03"/><circle cx="165" cy="330" r="1.4" fill="#4a2e20" opacity="0.06"/><circle cx="261" cy="411" r="1.0" fill="#4a2e20" opacity="0.05"/>
  <circle cx="320" cy="222" r="136" fill="#fffdf8" opacity="0.85"/>
  <circle cx="320" cy="222" r="136" fill="none" stroke="#f1e7d2" stroke-width="3"/><rect x="257" y="114" width="126" height="216" rx="16" fill="#4a2e20" opacity="0.92"/><rect x="257" y="114" width="126" height="34.56" rx="12" fill="#f1e7d2"/><rect x="282.2" y="210" width="40.800000000000004" height="40.800000000000004" rx="5" fill="#fffdf8" opacity="0.28" transform="rotate(12 320 222)"/><rect x="322.4" y="246" width="36" height="36" rx="5" fill="#fffdf8" opacity="0.22" transform="rotate(-8 320 222)"/>
  
</svg>