<svg xmlns="http://www.w3.org/2000/svg" viewBox="0 0 640 480" width="640" height="480" role="img">
  <defs>
    <radialGradient id="g108" cx="32%" cy="26%" r="85%">
      <stop offset="0%" stop-color="#fffdf8"/>
      <stop offset="55%" stop-color="#d99a2b" stop-opacity="0.30"/>
      <stop offset="100%" stop-color="#b4392b" stop-opacity="0.42"/>
    </radialGradient>
    <linearGradient id="g108p" x1="0" y1="0" x2="0" y2="1">
      <stop offset="0%" stop-color="#fffdf8"/>
      <stop offset="100%" stop-color="#f1e7d2"/>
    </linearGradient>
  </defs>
  <rect width="640" height="480" fill="#faf4e8"/>
  <rect width="640" height="480" fill="url(#g108)"/>
  <circle cx="272" cy="175" r="2.0" fill="#4a2e20" opacity="0.07"/><circle cx="333" cy="135" r="1.3" fill="#4a2e20" opacity="0.05"/><circle cx="55" cy="388" r="1.6" fill="#4a2e20" opacity="0.07"/><circle cx="170" cy="154" r="0.6" fill="#4a2e20" opacity="0.07"/><circle cx="178" cy="188" r="1.1" fill="#4a2e20" opacity="0.06"/><circle cx="603" cy="445" r="1.2" fill="#4a2e20" opacity="0.03"/><circle cx="158" cy="195" r="1.6" fill="#4a2e20" opacity="0.05"/><circle cx="521" cy="297" r="0.7" fill="#4a2e20" opacity="0.06"/><circle cx="156" cy="463" r="0.5" fill="#4a2e20" opacity="0.06"/><circle cx="419" cy="208" r="1.0" fill="#4a2e20" opacity="0.04"/><circle cx="589" cy="407" r="0.9" fill="#4a2e20" opacity="0.06"/><circle cx="99" cy="176" r="0.9" fill="#4a2e20" opacity="0.03"/><circle cx="212" cy="367" r="1.9" fill="#4a2e20" opacity="0.04"/><circle cx="34" cy="480" r="2.2" fill="#4a2e20" opacity="0.03"/><circle cx="334" cy="175" r="1.0" fill="#4a2e20" opacity="0.07"/><circle cx="333" cy="103" r="0.5" fill="#4a2e20" opacity="0.06"/><circle cx="15" cy="63" r="2.4" fill="#4a2e20" opacity="0.06"/><circle cx="603" cy="385" r="1.8" fill="#4a2e20" opacity="0.07"/><circle cx="347" cy="320" r="1.0" fill="#4a2e20" opacity="0.05"/><circle cx="352" cy="208" r="1.3" fill="#4a2e20" opacity="0.06"/><circle cx="507" cy="422" r="2.3" fill="#4a2e20" opacity="0.05"/><circle cx="37" cy="458" r="1.8" fill="#4a2e20" opacity="0.06"/><circle cx="543" cy="201" r="0.7" fill="#4a2e20" opacity="0.03"/><circle cx="353" cy="110" r="1.2" fill="#4a2e20" opacity="0.05"/><circle cx="177" cy="36" r="2.3" fill="#4a2e20" opacity="0.08"/><circle cx="89" cy="350" r="0.6" fill="#4a2e20" opacity="0.02"/><circle cx="398" cy="158" r="1.6" fill="#4a2e20" opacity="0.03"/><circle cx="228" cy="321" r="0.5" fill="#4a2e20" opacity="0.06"/><circle cx="332" cy="222" r="2.5" fill="#4a2e20" opacity="0.04"/><circle cx="548" cy="233" r="1.8" fill="#4a2e20" opacity="0.03"/><circle cx="360" cy="171" r="1.1" fill="#4a2e20" opacity="0.07"/><circle cx="623" cy="279" r="1.1" fill="#4a2e20" opacity="0.04"/><circle cx="92" cy="430" r="0.7" fill="#4a2e20" opacity="0.03"/><circle cx="238" cy="311" r="1.2" fill="#4a2e20" opacity="0.05"/><circle cx="571" cy="34" r="1.2" fill="#4a2e20" opacity="0.07"/><circle cx="295" cy="404" r="2.3" fill="#4a2e20" opacity="0.06"/>
  <circle cx="320" cy="222" r="136" fill="#fffdf8" opacity="0.85"/>
  <circle cx="320" cy="222" r="136" fill="none" stroke="#f1e7d2" stroke-width="3"/><circle cx="320" cy="222" r="120" fill="#d99a2b"/>
  <circle cx="320" cy="222" r="120" fill="none" stroke="#4a2e20" stroke-opacity="0.35" stroke-width="3"/>
  <ellipse cx="286.4" cy="186" rx="54" ry="36" fill="#fff" opacity="0.16"/>
  
</svg>