<svg xmlns="http://www.w3.org/2000/svg" viewBox="0 0 640 480" width="640" height="480" role="img">
  <defs>
    <radialGradient id="g104" cx="32%" cy="26%" r="85%">
      <stop offset="0%" stop-color="#fffdf8"/>
      <stop offset="55%" stop-color="#d99a2b" stop-opacity="0.30"/>
      <stop offset="100%" stop-color="#b4392b" stop-opacity="0.42"/>
    </radialGradient>
    <linearGradient id="g104p" x1="0" y1="0" x2="0" y2="1">
      <stop offset="0%" stop-color="#fffdf8"/>
      <stop offset="100%" stop-color="#f1e7d2"/>
    </linearGradient>
  </defs>
  <rect width="640" height="480" fill="#faf4e8"/>
  <rect width="640" height="480" fill="url(#g104)"/>
  <circle cx="636" cy="461" r="2.0" fill="#4a2e20" opacity="0.03"/><circle cx="280" cy="20" r="2.2" fill="#4a2e20" opacity="0.05"/><circle cx="124" cy="26" r="2.4" fill="#4a2e20" opacity="0.06"/><circle cx="496" cy="250" r="1.6" fill="#4a2e20" opacity="0.08"/><circle cx="264" cy="454" r="1.3" fill="#4a2e20" opacity="0.05"/><circle cx="429" cy="3" r="1.8" fill="#4a2e20" opacity="0.03"/><circle cx="394" cy="350" r="2.5" fill="#4a2e20" opacity="0.03"/><circle cx="407" cy="459" r="1.4" fill="#4a2e20" opacity="0.03"/><circle cx="525" cy="285" r="2.1" fill="#4a2e20" opacity="0.07"/><circle cx="486" cy="54" r="0.7" fill="#4a2e20" opacity="0.05"/><circle cx="124" cy="69" r="1.7" fill="#4a2e20" opacity="0.07"/><circle cx="355" cy="113" r="0.7" fill="#4a2e20" opacity="0.08"/><circle cx="374" cy="464" r="2.0" fill="#4a2e20" opacity="0.03"/><circle cx="99" cy="32" r="2.2" fill="#4a2e20" opacity="0.02"/><circle cx="171" cy="50" r="0.6" fill="#4a2e20" opacity="0.04"/><circle cx="8" cy="415" r="2.0" fill="#4a2e20" opacity="0.08"/><circle cx="462" cy="166" r="1.5" fill="#4a2e20" opacity="0.05"/><circle cx="612" cy="41" r="1.4" fill="#4a2e20" opacity="0.04"/><circle cx="327" cy="334" r="1.3" fill="#4a2e20" opacity="0.06"/><circle cx="484" cy="141" r="1.1" fill="#4a2e20" opacity="0.06"/><circle cx="567" cy="211" r="1.8" fill="#4a2e20" opacity="0.03"/><circle cx="122" cy="0" r="0.8" fill="#4a2e20" opacity="0.05"/><circle cx="204" cy="403" r="1.0" fill="#4a2e20" opacity="0.08"/><circle cx="574" cy="85" r="2.4" fill="#4a2e20" opacity="0.04"/><circle cx="319" cy="101" r="0.6" fill="#4a2e20" opacity="0.03"/><circle cx="214" cy="262" r="1.1" fill="#4a2e20" opacity="0.06"/><circle cx="455" cy="473" r="0.9" fill="#4a2e20" opacity="0.07"/><circle cx="153" cy="8" r="1.4" fill="#4a2e20" opacity="0.02"/><circle cx="239" cy="384" r="0.7" fill="#4a2e20" opacity="0.08"/><circle cx="203" cy="223" r="1.5" fill="#4a2e20" opacity="0.05"/><circle cx="308" cy="236" r="0.9" fill="#4a2e20" opacity="0.03"/><circle cx="297" cy="27" r="0.8" fill="#4a2e20" opacity="0.05"/><circle cx="502" cy="406" r="1.5" fill="#4a2e20" opacity="0.06"/><circle cx="489" cy="171" r="1.0" fill="#4a2e20" opacity="0.05"/><circle cx="467" cy="374" r="1.6" fill="#4a2e20" opacity="0.08"/><circle cx="23" cy="457" r="2.3" fill="#4a2e20" opacity="0.03"/>
  <circle cx="320" cy="222" r="136" fill="#fffdf8" opacity="0.85"/>
  <circle cx="320" cy="222" r="136" fill="none" stroke="#f1e7d2" stroke-width="3"/><ellipse cx="320" cy="236" rx="120" ry="50.4" fill="#f1e7d2" opacity="0.61" stroke="#4a2e20" stroke-opacity="0.25" stroke-width="2"/><ellipse cx="320" cy="222" rx="120" ry="50.4" fill="#f1e7d2" opacity="0.73" stroke="#4a2e20" stroke-opacity="0.25" stroke-width="2"/><ellipse cx="320" cy="208" rx="120" ry="50.4" fill="#f1e7d2" opacity="0.85" stroke="#4a2e20" stroke-opacity="0.25" stroke-width="2"/><circle cx="237.96639852970839" cy="181.71749545447528" r="3.93072289833799" fill="#4a2e20" opacity="0.18"/><circle cx="353.4368225596845" cy="209.28671611193568" r="2.2165650641545653" fill="#4a2e20" opacity="0.18"/><circle cx="314.3270822633058" cy="192.39551115501672" r="2.659976811846718" fill="#4a2e20" opacity="0.18"/><circle cx="358.6101111024618" cy="193.46893366146833" r="1.4678450918290764" fill="#4a2e20" opacity="0.18"/><circle cx="364.3671009428799" cy="209.1041527427733" r="1.5914117803331465" fill="#4a2e20" opacity="0.18"/><circle cx="297.8170436937362" cy="195.59484027512372" r="2.60421857656911" fill="#4a2e20" opacity="0.18"/><circle cx="285.78348170407116" cy="236.67676626890898" r="1.7426007827743888" fill="#4a2e20" opacity="0.18"/><circle cx="383.466972053051" cy="189.44750256091356" r="1.430972158210352" fill="#4a2e20" opacity="0.18"/><circle cx="261.98019706457853" cy="195.4570727860555" r="2.643704294692725" fill="#4a2e20" opacity="0.18"/><circle cx="363.9947807714343" cy="182.47108540683985" r="3.738822123967111" fill="#4a2e20" opacity="0.18"/><circle cx="329.0234056599438" cy="215.2974900342524" r="3.0402727231848985" fill="#4a2e20" opacity="0.18"/><circle cx="398.2862702347338" cy="215.46283865068108" r="3.7636145802680403" fill="#4a2e20" opacity="0.18"/><circle cx="375.04158535040915" cy="180.39870843477547" r="1.5248246409464628" fill="#4a2e20" opacity="0.18"/><circle cx="295.9728103745729" cy="203.51894346717745" r="1.0605283428449184" fill="#4a2e20" opacity="0.18"/>
  
</svg>