<svg xmlns="http://www.w3.org/2000/svg" viewBox="0 0 640 480" width="640" height="480" role="img">
  <defs>
    <radialGradient id="g112" cx="32%" cy="26%" r="85%">
      <stop offset="0%" stop-color="#fffdf8"/>
      <stop offset="55%" stop-color="#d99a2b" stop-opacity="0.30"/>
      <stop offset="100%" stop-color="#b4392b" stop-opacity="0.42"/>
    </radialGradient>
    <linearGradient id="g112p" x1="0" y1="0" x2="0" y2="1">
      <stop offset="0%" stop-color="#fffdf8"/>
      <stop offset="100%" stop-color="#f1e7d2"/>
    </linearGradient>
  </defs>
  <rect width="640" height="480" fill="#faf4e8"/>
  <rect width="640" height="480" fill="url(#g112)"/>
  <circle cx="394" cy="321" r="1.6" fill="#4a2e20" opacity="0.04"/><circle cx="95" cy="342" r="1.3" fill="#4a2e20" opacity="0.08"/><circle cx="433" cy="460" r="0.7" fill="#4a2e20" opacity="0.04"/><circle cx="319" cy="117" r="1.0" fill="#4a2e20" opacity="0.04"/><circle cx="111" cy="457" r="0.9" fill="#4a2e20" opacity="0.04"/><circle cx="128" cy="140" r="2.0" fill="#4a2e20" opacity="0.04"/><circle cx="483" cy="54" r="1.0" fill="#4a2e20" opacity="0.07"/><circle cx="485" cy="218" r="1.1" fill="#4a2e20" opacity="0.05"/><circle cx="498" cy="315" r="1.7" fill="#4a2e20" opacity="0.03"/><circle cx="442" cy="86" r="2.4" fill="#4a2e20" opacity="0.02"/><circle cx="398" cy="389" r="1.6" fill="#4a2e20" opacity="0.05"/><circle cx="118" cy="304" r="2.5" fill="#4a2e20" opacity="0.03"/><circle cx="252" cy="256" r="2.1" fill="#4a2e20" opacity="0.04"/><circle cx="193" cy="259" r="1.4" fill="#4a2e20" opacity="0.07"/><circle cx="100" cy="317" r="1.7" fill="#4a2e20" opacity="0.02"/><circle cx="88" cy="94" r="0.7" fill="#4a2e20" opacity="0.04"/><circle cx="401" cy="3" r="1.9" fill="#4a2e20" opacity="0.05"/><circle cx="146" cy="445" r="2.1" fill="#4a2e20" opacity="0.04"/><circle cx="307" cy="298" r="1.7" fill="#4a2e20" opacity="0.06"/><circle cx="123" cy="403" r="1.6" fill="#4a2e20" opacity="0.06"/><circle cx="468" cy="209" r="2.3" fill="#4a2e20" opacity="0.03"/><circle cx="71" cy="82" r="1.0" fill="#4a2e20" opacity="0.06"/><circle cx="182" cy="334" r="2.4" fill="#4a2e20" opacity="0.08"/><circle cx="337" cy="47" r="1.7" fill="#4a2e20" opacity="0.03"/><circle cx="96" cy="319" r="0.6" fill="#4a2e20" opacity="0.06"/><circle cx="213" cy="349" r="2.4" fill="#4a2e20" opacity="0.06"/><circle cx="247" cy="57" r="2.4" fill="#4a2e20" opacity="0.08"/><circle cx="397" cy="219" r="2.5" fill="#4a2e20" opacity="0.05"/><circle cx="0" cy="68" r="2.4" fill="#4a2e20" opacity="0.04"/><circle cx="212" cy="470" r="1.4" fill="#4a2e20" opacity="0.07"/><circle cx="626" cy="123" r="1.8" fill="#4a2e20" opacity="0.04"/><circle cx="572" cy="212" r="2.3" fill="#4a2e20" opacity="0.07"/><circle cx="350" cy="42" r="2.1" fill="#4a2e20" opacity="0.04"/><circle cx="463" cy="118" r="2.0" fill="#4a2e20" opacity="0.05"/><circle cx="248" cy="277" r="0.5" fill="#4a2e20" opacity="0.04"/><circle cx="438" cy="284" r="2.2" fill="#4a2e20" opacity="0.04"/>
  <circle cx="320" cy="222" r="136" fill="#fffdf8" opacity="0.85"/>
  <circle cx="320" cy="222" r="136" fill="none" stroke="#f1e7d2" stroke-width="3"/><ellipse cx="320" cy="236" rx="114" ry="47.879999999999995" fill="#d99a2b" opacity="0.61" stroke="#4a2e20" stroke-opacity="0.25" stroke-width="2"/><ellipse cx="320" cy="222" rx="114" ry="47.879999999999995" fill="#d99a2b" opacity="0.73" stroke="#4a2e20" stroke-opacity="0.25" stroke-width="2"/><ellipse cx="320" cy="208" rx="114" ry="47.879999999999995" fill="#d99a2b" opacity="0.85" stroke="#4a2e20" stroke-opacity="0.25" stroke-width="2"/><circle cx="242.06807860322297" cy="183.03162068175152" r="3.93072289833799" fill="#4a2e20" opacity="0.18"/><circle cx="351.7649814317003" cy="209.2223803063389" r="2.2165650641545653" fill="#4a2e20" opacity="0.18"/><circle cx="314.6107281501405" cy="193.17573559726588" r="2.659976811846718" fill="#4a2e20" opacity="0.18"/><circle cx="356.6796055473387" cy="194.1954869783949" r="1.4678450918290764" fill="#4a2e20" opacity="0.18"/><circle cx="362.14874589573594" cy="209.04894510563463" r="1.5914117803331465" fill="#4a2e20" opacity="0.18"/><circle cx="298.9261915090494" cy="196.21509826136753" r="2.60421857656911" fill="#4a2e20" opacity="0.18"/><circle cx="287.4943076188676" cy="235.24292795546353" r="1.7426007827743888" fill="#4a2e20" opacity="0.18"/><circle cx="380.29362345039846" cy="190.37512743286788" r="1.430972158210352" fill="#4a2e20" opacity="0.18"/><circle cx="264.8811872113496" cy="196.08421914675273" r="2.643704294692725" fill="#4a2e20" opacity="0.18"/><circle cx="361.7950417328626" cy="183.74753113649786" r="3.738822123967111" fill="#4a2e20" opacity="0.18"/><circle cx="328.57223537694665" cy="214.93261553253978" r="3.0402727231848985" fill="#4a2e20" opacity="0.18"/><circle cx="394.37195672299714" cy="215.08969671814702" r="3.7636145802680403" fill="#4a2e20" opacity="0.18"/><circle cx="372.2895060828887" cy="181.7787730130367" r="1.5248246409464628" fill="#4a2e20" opacity="0.18"/><circle cx="297.17416985584424" cy="203.74299629381858" r="1.0605283428449184" fill="#4a2e20" opacity="0.18"/>
  
</svg>