<svg xmlns="http://www.w3.org/2000/svg" viewBox="0 0 640 480" width="640" height="480" role="img">
  <defs>
    <radialGradient id="g106" cx="32%" cy="26%" r="85%">
      <stop offset="0%" stop-color="#fffdf8"/>
      <stop offset="55%" stop-color="#d99a2b" stop-opacity="0.30"/>
      <stop offset="100%" stop-color="#b4392b" stop-opacity="0.42"/>
    </radialGradient>
    <linearGradient id="g106p" x1="0" y1="0" x2="0" y2="1">
      <stop offset="0%" stop-color="#fffdf8"/>
      <stop offset="100%" stop-color="#f1e7d2"/>
    </linearGradient>
  </defs>
  <rect width="640" height="480" fill="#faf4e8"/>
  <rect width="640" height="480" fill="url(#g106)"/>
  <circle cx="134" cy="314" r="0.7" fill="#4a2e20" opacity="0.07"/><circle cx="156" cy="274" r="2.1" fill="#4a2e20" opacity="0.07"/><circle cx="17" cy="56" r="1.7" fill="#4a2e20" opacity="0.08"/><circle cx="102" cy="219" r="0.8" fill="#4a2e20" opacity="0.06"/><circle cx="292" cy="338" r="2.4" fill="#4a2e20" opacity="0.06"/><circle cx="76" cy="275" r="1.1" fill="#4a2e20" opacity="0.03"/><circle cx="94" cy="158" r="1.0" fill="#4a2e20" opacity="0.07"/><circle cx="369" cy="111" r="1.2" fill="#4a2e20" opacity="0.05"/><circle cx="570" cy="252" r="1.3" fill="#4a2e20" opacity="0.04"/><circle cx="345" cy="119" r="0.5" fill="#4a2e20" opacity="0.04"/><circle cx="418" cy="262" r="2.4" fill="#4a2e20" opacity="0.02"/><circle cx="475" cy="204" r="1.9" fill="#4a2e20" opacity="0.04"/><circle cx="225" cy="13" r="1.8" fill="#4a2e20" opacity="0.06"/><circle cx="345" cy="342" r="1.7" fill="#4a2e20" opacity="0.04"/><circle cx="346" cy="198" r="1.4" fill="#4a2e20" opacity="0.05"/><circle cx="247" cy="276" r="1.5" fill="#4a2e20" opacity="0.02"/><circle cx="291" cy="6" r="0.9" fill="#4a2e20" opacity="0.05"/><circle cx="256" cy="118" r="1.2" fill="#4a2e20" opacity="0.03"/><circle cx="236" cy="372" r="1.0" fill="#4a2e20" opacity="0.04"/><circle cx="20" cy="1" r="2.5" fill="#4a2e20" opacity="0.05"/><circle cx="80" cy="410" r="1.5" fill="#4a2e20" opacity="0.04"/><circle cx="253" cy="374" r="0.5" fill="#4a2e20" opacity="0.08"/><circle cx="113" cy="352" r="0.9" fill="#4a2e20" opacity="0.04"/><circle cx="268" cy="166" r="1.2" fill="#4a2e20" opacity="0.04"/><circle cx="521" cy="138" r="1.3" fill="#4a2e20" opacity="0.05"/><circle cx="452" cy="410" r="1.4" fill="#4a2e20" opacity="0.05"/><circle cx="525" cy="361" r="1.9" fill="#4a2e20" opacity="0.06"/><circle cx="148" cy="139" r="0.9" fill="#4a2e20" opacity="0.07"/><circle cx="565" cy="412" r="2.2" fill="#4a2e20" opacity="0.08"/><circle cx="601" cy="447" r="2.3" fill="#4a2e20" opacity="0.04"/><circle cx="383" cy="119" r="0.7" fill="#4a2e20" opacity="0.03"/><circle cx="174" cy="257" r="0.9" fill="#4a2e20" opacity="0.07"/><circle cx="459" cy="461" r="1.7" fill="#4a2e20" opacity="0.05"/><circle cx="281" cy="116" r="1.8" fill="#4a2e20" opacity="0.06"/><circle cx="439" cy="311" r="0.8" fill="#4a2e20" opacity="0.05"/><circle cx="42" cy="318" r="0.7" fill="#4a2e20" opacity="0.07"/>
  <circle cx="320" cy="222" r="136" fill="#fffdf8" opacity="0.85"/>
  <circle cx="320" cy="222" r="136" fill="none" stroke="#f1e7d2" stroke-width="3"/><ellipse cx="320" cy="236" rx="114" ry="47.879999999999995" fill="#d99a2b" opacity="0.61" stroke="#4a2e20" stroke-opacity="0.25" stroke-width="2"/><ellipse cx="320" cy="222" rx="114" ry="47.879999999999995" fill="#d99a2b" opacity="0.73" stroke="#4a2e20" stroke-opacity="0.25" stroke-width="2"/><ellipse cx="320" cy="208" rx="114" ry="47.879999999999995" fill="#d99a2b" opacity="0.85" stroke="#4a2e20" stroke-opacity="0.25" stroke-width="2"/><circle cx="242.06807860322297" cy="183.03162068175152" r="3.93072289833799" fill="#4a2e20" opacity="0.18"/><circle cx="351.7649814317003" cy="209.2223803063389" r="2.2165650641545653" fill="#4a2e20" opacity="0.18"/><circle cx="314.6107281501405" cy="193.17573559726588" r="2.659976811846718" fill="#4a2e20" opacity="0.18"/><circle cx="356.6796055473387" cy="194.1954869783949" r="1.4678450918290764" fill="#4a2e20" opacity="0.18"/><circle cx="362.14874589573594" cy="209.04894510563463" r="1.5914117803331465" fill="#4a2e20" opacity="0.18"/><circle cx="298.9261915090494" cy="196.21509826136753" r="2.60421857656911" fill="#4a2e20" opacity="0.18"/><circle cx="287.4943076188676" cy="235.24292795546353" r="1.7426007827743888" fill="#4a2e20" opacity="0.18"/><circle cx="380.29362345039846" cy="190.37512743286788" r="1.430972158210352" fill="#4a2e20" opacity="0.18"/><circle cx="264.8811872113496" cy="196.08421914675273" r="2.643704294692725" fill="#4a2e20" opacity="0.18"/><circle cx="361.7950417328626" cy="183.74753113649786" r="3.738822123967111" fill="#4a2e20" opacity="0.18"/><circle cx="328.57223537694665" cy="214.93261553253978" r="3.0402727231848985" fill="#4a2e20" opacity="0.18"/><circle cx="394.37195672299714" cy="215.08969671814702" r="3.7636145802680403" fill="#4a2e20" opacity="0.18"/><circle cx="372.2895060828887" cy="181.7787730130367" r="1.5248246409464628" fill="#4a2e20" opacity="0.18"/><circle cx="297.17416985584424" cy="203.74299629381858" r="1.0605283428449184" fill="#4a2e20" opacity="0.18"/>
  
</svg>