<svg xmlns="http://www.w3.org/2000/svg" viewBox="0 0 640 480" width="640" height="480" role="img">
  <defs>
    <radialGradient id="g150" cx="32%" cy="26%" r="85%">
      <stop offset="0%" stop-color="#fffdf8"/>
      <stop offset="55%" stop-color="#4a2e20" stop-opacity="0.30"/>
      <stop offset="100%" stop-color="#d99a2b" stop-opacity="0.42"/>
    </radialGradient>
    <linearGradient id="g150p" x1="0" y1="0" x2="0" y2="1">
      <stop offset="0%" stop-color="#fffdf8"/>
      <stop offset="100%" stop-color="#f1e7d2"/>
    </linearGradient>
  </defs>
  <rect width="640" height="480" fill="#faf4e8"/>
  <rect width="640" height="480" fill="url(#g150)"/>
  <circle cx="452" cy="165" r="2.3" fill="#4a2e20" opacity="0.07"/><circle cx="203" cy="171" r="0.6" fill="#4a2e20" opacity="0.08"/><circle cx="277" cy="90" r="2.0" fill="#4a2e20" opacity="0.02"/><circle cx="110" cy="149" r="2.0" fill="#4a2e20" opacity="0.07"/><circle cx="163" cy="103" r="1.9" fill="#4a2e20" opacity="0.07"/><circle cx="342" cy="54" r="2.5" fill="#4a2e20" opacity="0.03"/><circle cx="374" cy="370" r="1.5" fill="#4a2e20" opacity="0.03"/><circle cx="187" cy="2" r="2.3" fill="#4a2e20" opacity="0.03"/><circle cx="55" cy="109" r="1.3" fill="#4a2e20" opacity="0.06"/><circle cx="260" cy="468" r="0.8" fill="#4a2e20" opacity="0.07"/><circle cx="100" cy="279" r="1.8" fill="#4a2e20" opacity="0.03"/><circle cx="388" cy="374" r="1.8" fill="#4a2e20" opacity="0.03"/><circle cx="46" cy="81" r="2.5" fill="#4a2e20" opacity="0.06"/><circle cx="312" cy="48" r="2.3" fill="#4a2e20" opacity="0.03"/><circle cx="630" cy="174" r="0.9" fill="#4a2e20" opacity="0.07"/><circle cx="248" cy="42" r="2.1" fill="#4a2e20" opacity="0.03"/><circle cx="269" cy="372" r="0.6" fill="#4a2e20" opacity="0.06"/><circle cx="609" cy="80" r="1.5" fill="#4a2e20" opacity="0.07"/><circle cx="98" cy="281" r="2.3" fill="#4a2e20" opacity="0.06"/><circle cx="614" cy="326" r="0.5" fill="#4a2e20" opacity="0.03"/><circle cx="240" cy="47" r="0.8" fill="#4a2e20" opacity="0.07"/><circle cx="35" cy="210" r="2.1" fill="#4a2e20" opacity="0.06"/><circle cx="42" cy="169" r="0.6" fill="#4a2e20" opacity="0.04"/><circle cx="180" cy="309" r="1.7" fill="#4a2e20" opacity="0.07"/><circle cx="384" cy="470" r="0.8" fill="#4a2e20" opacity="0.07"/><circle cx="107" cy="35" r="1.8" fill="#4a2e20" opacity="0.06"/><circle cx="444" cy="364" r="1.1" fill="#4a2e20" opacity="0.06"/><circle cx="583" cy="240" r="1.7" fill="#4a2e20" opacity="0.04"/><circle cx="321" cy="460" r="1.4" fill="#4a2e20" opacity="0.06"/><circle cx="164" cy="422" r="1.2" fill="#4a2e20" opacity="0.03"/><circle cx="189" cy="188" r="1.1" fill="#4a2e20" opacity="0.05"/><circle cx="192" cy="478" r="0.7" fill="#4a2e20" opacity="0.05"/><circle cx="305" cy="367" r="0.6" fill="#4a2e20" opacity="0.03"/><circle cx="175" cy="447" r="1.7" fill="#4a2e20" opacity="0.03"/><circle cx="596" cy="378" r="1.2" fill="#4a2e20" opacity="0.04"/><circle cx="387" cy="99" r="1.4" fill="#4a2e20" opacity="0.05"/>
  <circle cx="320" cy="222" r="136" fill="#fffdf8" opacity="0.85"/>
  <circle cx="320" cy="222" r="136" fill="none" stroke="#f1e7d2" stroke-width="3"/><rect x="230" y="155.4" width="180" height="159.6" rx="16" fill="#b4392b"/><rect x="230" y="129" width="180" height="45.6" rx="9" fill="#4a2e20" opacity="0.85"/><rect x="237" y="207.12" width="166" height="55.8" rx="7" fill="#fffdf8" opacity="0.88"/>
  
</svg>