<svg xmlns="http://www.w3.org/2000/svg" viewBox="0 0 640 480" width="640" height="480" role="img">
  <defs>
    <radialGradient id="g162" cx="32%" cy="26%" r="85%">
      <stop offset="0%" stop-color="#fffdf8"/>
      <stop offset="55%" stop-color="#1f4a33" stop-opacity="0.30"/>
      <stop offset="100%" stop-color="#d99a2b" stop-opacity="0.42"/>
    </radialGradient>
    <linearGradient id="g162p" x1="0" y1="0" x2="0" y2="1">
      <stop offset="0%" stop-color="#fffdf8"/>
      <stop offset="100%" stop-color="#f1e7d2"/>
    </linearGradient>
  </defs>
  <rect width="640" height="480" fill="#faf4e8"/>
  <rect width="640" height="480" fill="url(#g162)"/>
  <circle cx="530" cy="438" r="1.0" fill="#4a2e20" opacity="0.05"/><circle cx="78" cy="151" r="2.4" fill="#4a2e20" opacity="0.05"/><circle cx="37" cy="137" r="1.4" fill="#4a2e20" opacity="0.03"/><circle cx="603" cy="380" r="1.0" fill="#4a2e20" opacity="0.05"/><circle cx="224" cy="248" r="1.4" fill="#4a2e20" opacity="0.03"/><circle cx="272" cy="465" r="0.8" fill="#4a2e20" opacity="0.03"/><circle cx="551" cy="362" r="0.6" fill="#4a2e20" opacity="0.07"/><circle cx="366" cy="392" r="1.8" fill="#4a2e20" opacity="0.06"/><circle cx="371" cy="429" r="0.7" fill="#4a2e20" opacity="0.07"/><circle cx="358" cy="90" r="0.6" fill="#4a2e20" opacity="0.03"/><circle cx="268" cy="170" r="1.6" fill="#4a2e20" opacity="0.05"/><circle cx="84" cy="237" r="1.9" fill="#4a2e20" opacity="0.05"/><circle cx="191" cy="247" r="0.6" fill="#4a2e20" opacity="0.05"/><circle cx="285" cy="276" r="2.3" fill="#4a2e20" opacity="0.06"/><circle cx="612" cy="306" r="0.6" fill="#4a2e20" opacity="0.04"/><circle cx="631" cy="15" r="1.2" fill="#4a2e20" opacity="0.03"/><circle cx="621" cy="344" r="1.2" fill="#4a2e20" opacity="0.05"/><circle cx="156" cy="26" r="1.0" fill="#4a2e20" opacity="0.02"/><circle cx="237" cy="260" r="2.3" fill="#4a2e20" opacity="0.05"/><circle cx="525" cy="36" r="2.3" fill="#4a2e20" opacity="0.05"/><circle cx="52" cy="269" r="1.9" fill="#4a2e20" opacity="0.04"/><circle cx="206" cy="203" r="1.6" fill="#4a2e20" opacity="0.08"/><circle cx="494" cy="197" r="2.3" fill="#4a2e20" opacity="0.05"/><circle cx="92" cy="396" r="1.7" fill="#4a2e20" opacity="0.05"/><circle cx="619" cy="223" r="1.7" fill="#4a2e20" opacity="0.07"/><circle cx="185" cy="182" r="1.8" fill="#4a2e20" opacity="0.05"/><circle cx="88" cy="24" r="1.8" fill="#4a2e20" opacity="0.05"/><circle cx="413" cy="161" r="0.7" fill="#4a2e20" opacity="0.06"/><circle cx="633" cy="21" r="1.7" fill="#4a2e20" opacity="0.05"/><circle cx="341" cy="354" r="1.8" fill="#4a2e20" opacity="0.06"/><circle cx="395" cy="329" r="2.2" fill="#4a2e20" opacity="0.03"/><circle cx="313" cy="460" r="1.7" fill="#4a2e20" opacity="0.02"/><circle cx="40" cy="241" r="1.7" fill="#4a2e20" opacity="0.03"/><circle cx="120" cy="446" r="1.4" fill="#4a2e20" opacity="0.05"/><circle cx="399" cy="392" r="0.9" fill="#4a2e20" opacity="0.02"/><circle cx="494" cy="60" r="2.1" fill="#4a2e20" opacity="0.03"/>
  <circle cx="320" cy="222" r="136" fill="#fffdf8" opacity="0.85"/>
  <circle cx="320" cy="222" r="136" fill="none" stroke="#f1e7d2" stroke-width="3"/><rect x="187.7" y="150.1" width="264.6" height="163.8" rx="14" fill="#4a2e20" opacity="0.9"/>
  <rect x="187.7" y="150.1" width="264.6" height="65.52000000000001" rx="14" fill="#f1e7d2"/><circle cx="250.7" cy="197.43" r="56.7" fill="#1f4a33"/>
  <circle cx="250.7" cy="197.43" r="56.7" fill="none" stroke="#4a2e20" stroke-opacity="0.35" stroke-width="3"/>
  <ellipse cx="234.82399999999998" cy="180.42000000000002" rx="25.515" ry="17.01" fill="#fff" opacity="0.16"/><circle cx="383" cy="185.964" r="63" fill="#d99a2b"/>
  <circle cx="383" cy="185.964" r="63" fill="none" stroke="#4a2e20" stroke-opacity="0.35" stroke-width="3"/>
  <ellipse cx="365.36" cy="167.064" rx="28.35" ry="18.9" fill="#fff" opacity="0.16"/><g stroke="#4a2e20" stroke-opacity="0.5" stroke-width="3" stroke-linecap="round"><line x1="395.6" y1="185.964" x2="434.65999999999997" y2="185.964"/><line x1="391.9095454429505" y1="194.8735454429505" x2="419.52913631609704" y2="222.49313631609704"/><line x1="383" y1="198.564" x2="383" y2="237.624"/><line x1="374.0904545570495" y1="194.8735454429505" x2="346.47086368390296" y2="222.49313631609704"/><line x1="370.4" y1="185.964" x2="331.34000000000003" y2="185.964"/><line x1="374.0904545570495" y1="177.0544545570495" x2="346.47086368390296" y2="149.43486368390296"/><line x1="383" y1="173.364" x2="383" y2="134.304"/><line x1="391.9095454429505" y1="177.0544545570495" x2="419.52913631609704" y2="149.43486368390296"/></g><ellipse cx="326.3" cy="213.81" rx="50.400000000000006" ry="27.72" fill="#b4392b" opacity="0.85"/>
  
</svg>