<svg xmlns="http://www.w3.org/2000/svg" viewBox="0 0 640 480" width="640" height="480" role="img">
  <defs>
    <radialGradient id="g113" cx="32%" cy="26%" r="85%">
      <stop offset="0%" stop-color="#fffdf8"/>
      <stop offset="55%" stop-color="#1f4a33" stop-opacity="0.30"/>
      <stop offset="100%" stop-color="#d99a2b" stop-opacity="0.42"/>
    </radialGradient>
    <linearGradient id="g113p" x1="0" y1="0" x2="0" y2="1">
      <stop offset="0%" stop-color="#fffdf8"/>
      <stop offset="100%" stop-color="#f1e7d2"/>
    </linearGradient>
  </defs>
  <rect width="640" height="480" fill="#faf4e8"/>
  <rect width="640" height="480" fill="url(#g113)"/>
  <circle cx="459" cy="341" r="1.4" fill="#4a2e20" opacity="0.04"/><circle cx="284" cy="63" r="1.5" fill="#4a2e20" opacity="0.06"/><circle cx="515" cy="365" r="2.1" fill="#4a2e20" opacity="0.05"/><circle cx="450" cy="132" r="1.6" fill="#4a2e20" opacity="0.04"/><circle cx="248" cy="469" r="1.1" fill="#4a2e20" opacity="0.04"/><circle cx="526" cy="453" r="2.0" fill="#4a2e20" opacity="0.07"/><circle cx="602" cy="307" r="1.7" fill="#4a2e20" opacity="0.04"/><circle cx="497" cy="267" r="1.6" fill="#4a2e20" opacity="0.08"/><circle cx="104" cy="314" r="2.5" fill="#4a2e20" opacity="0.02"/><circle cx="55" cy="163" r="2.1" fill="#4a2e20" opacity="0.04"/><circle cx="494" cy="263" r="2.2" fill="#4a2e20" opacity="0.03"/><circle cx="367" cy="236" r="1.1" fill="#4a2e20" opacity="0.02"/><circle cx="160" cy="370" r="2.2" fill="#4a2e20" opacity="0.07"/><circle cx="61" cy="142" r="1.4" fill="#4a2e20" opacity="0.04"/><circle cx="513" cy="46" r="2.4" fill="#4a2e20" opacity="0.06"/><circle cx="49" cy="232" r="0.6" fill="#4a2e20" opacity="0.05"/><circle cx="511" cy="122" r="0.7" fill="#4a2e20" opacity="0.04"/><circle cx="152" cy="155" r="1.6" fill="#4a2e20" opacity="0.04"/><circle cx="25" cy="111" r="0.8" fill="#4a2e20" opacity="0.04"/><circle cx="502" cy="415" r="2.4" fill="#4a2e20" opacity="0.02"/><circle cx="10" cy="420" r="1.2" fill="#4a2e20" opacity="0.04"/><circle cx="562" cy="419" r="2.1" fill="#4a2e20" opacity="0.04"/><circle cx="255" cy="104" r="0.8" fill="#4a2e20" opacity="0.03"/><circle cx="586" cy="474" r="0.6" fill="#4a2e20" opacity="0.07"/><circle cx="433" cy="387" r="0.9" fill="#4a2e20" opacity="0.06"/><circle cx="526" cy="77" r="1.4" fill="#4a2e20" opacity="0.06"/><circle cx="124" cy="181" r="1.8" fill="#4a2e20" opacity="0.04"/><circle cx="535" cy="31" r="0.8" fill="#4a2e20" opacity="0.07"/><circle cx="351" cy="60" r="0.8" fill="#4a2e20" opacity="0.04"/><circle cx="305" cy="369" r="2.4" fill="#4a2e20" opacity="0.03"/><circle cx="310" cy="269" r="1.3" fill="#4a2e20" opacity="0.03"/><circle cx="601" cy="217" r="1.1" fill="#4a2e20" opacity="0.06"/><circle cx="480" cy="180" r="0.8" fill="#4a2e20" opacity="0.02"/><circle cx="510" cy="274" r="1.6" fill="#4a2e20" opacity="0.06"/><circle cx="416" cy="369" r="0.7" fill="#4a2e20" opacity="0.07"/><circle cx="246" cy="20" r="1.4" fill="#4a2e20" opacity="0.03"/>
  <circle cx="320" cy="222" r="136" fill="#fffdf8" opacity="0.85"/>
  <circle cx="320" cy="222" r="136" fill="none" stroke="#f1e7d2" stroke-width="3"/><rect x="187.7" y="150.1" width="264.6" height="163.8" rx="14" fill="#4a2e20" opacity="0.9"/>
  <rect x="187.7" y="150.1" width="264.6" height="65.52000000000001" rx="14" fill="#f1e7d2"/><circle cx="250.7" cy="197.43" r="56.7" fill="#1f4a33"/>
  <circle cx="250.7" cy="197.43" r="56.7" fill="none" stroke="#4a2e20" stroke-opacity="0.35" stroke-width="3"/>
  <ellipse cx="234.82399999999998" cy="180.42000000000002" rx="25.515" ry="17.01" fill="#fff" opacity="0.16"/><circle cx="383" cy="185.964" r="63" fill="#d99a2b"/>
  <circle cx="383" cy="185.964" r="63" fill="none" stroke="#4a2e20" stroke-opacity="0.35" stroke-width="3"/>
  <ellipse cx="365.36" cy="167.064" rx="28.35" ry="18.9" fill="#fff" opacity="0.16"/><g stroke="#4a2e20" stroke-opacity="0.5" stroke-width="3" stroke-linecap="round"><line x1="395.6" y1="185.964" x2="434.65999999999997" y2="185.964"/><line x1="391.9095454429505" y1="194.8735454429505" x2="419.52913631609704" y2="222.49313631609704"/><line x1="383" y1="198.564" x2="383" y2="237.624"/><line x1="374.0904545570495" y1="194.8735454429505" x2="346.47086368390296" y2="222.49313631609704"/><line x1="370.4" y1="185.964" x2="331.34000000000003" y2="185.964"/><line x1="374.0904545570495" y1="177.0544545570495" x2="346.47086368390296" y2="149.43486368390296"/><line x1="383" y1="173.364" x2="383" y2="134.304"/><line x1="391.9095454429505" y1="177.0544545570495" x2="419.52913631609704" y2="149.43486368390296"/></g><ellipse cx="326.3" cy="213.81" rx="50.400000000000006" ry="27.72" fill="#b4392b" opacity="0.85"/>
  
</svg>