<svg xmlns="http://www.w3.org/2000/svg" viewBox="0 0 640 480" width="640" height="480" role="img">
  <defs>
    <radialGradient id="g107" cx="32%" cy="26%" r="85%">
      <stop offset="0%" stop-color="#fffdf8"/>
      <stop offset="55%" stop-color="#b4392b" stop-opacity="0.30"/>
      <stop offset="100%" stop-color="#b9781a" stop-opacity="0.42"/>
    </radialGradient>
    <linearGradient id="g107p" x1="0" y1="0" x2="0" y2="1">
      <stop offset="0%" stop-color="#fffdf8"/>
      <stop offset="100%" stop-color="#f1e7d2"/>
    </linearGradient>
  </defs>
  <rect width="640" height="480" fill="#faf4e8"/>
  <rect width="640" height="480" fill="url(#g107)"/>
  <circle cx="608" cy="172" r="1.9" fill="#4a2e20" opacity="0.05"/><circle cx="623" cy="161" r="0.8" fill="#4a2e20" opacity="0.07"/><circle cx="94" cy="161" r="0.6" fill="#4a2e20" opacity="0.05"/><circle cx="565" cy="242" r="0.6" fill="#4a2e20" opacity="0.04"/><circle cx="8" cy="340" r="0.9" fill="#4a2e20" opacity="0.04"/><circle cx="226" cy="398" r="0.8" fill="#4a2e20" opacity="0.06"/><circle cx="349" cy="39" r="0.9" fill="#4a2e20" opacity="0.04"/><circle cx="591" cy="388" r="1.6" fill="#4a2e20" opacity="0.07"/><circle cx="572" cy="196" r="2.3" fill="#4a2e20" opacity="0.02"/><circle cx="502" cy="431" r="0.5" fill="#4a2e20" opacity="0.06"/><circle cx="45" cy="239" r="1.0" fill="#4a2e20" opacity="0.05"/><circle cx="618" cy="268" r="1.2" fill="#4a2e20" opacity="0.03"/><circle cx="552" cy="440" r="1.0" fill="#4a2e20" opacity="0.03"/><circle cx="408" cy="384" r="0.9" fill="#4a2e20" opacity="0.06"/><circle cx="637" cy="459" r="1.9" fill="#4a2e20" opacity="0.03"/><circle cx="99" cy="334" r="1.7" fill="#4a2e20" opacity="0.03"/><circle cx="330" cy="190" r="2.3" fill="#4a2e20" opacity="0.05"/><circle cx="537" cy="320" r="0.7" fill="#4a2e20" opacity="0.05"/><circle cx="625" cy="316" r="1.1" fill="#4a2e20" opacity="0.03"/><circle cx="550" cy="243" r="0.8" fill="#4a2e20" opacity="0.03"/><circle cx="311" cy="427" r="1.4" fill="#4a2e20" opacity="0.07"/><circle cx="40" cy="416" r="2.4" fill="#4a2e20" opacity="0.05"/><circle cx="490" cy="55" r="1.5" fill="#4a2e20" opacity="0.05"/><circle cx="15" cy="394" r="0.7" fill="#4a2e20" opacity="0.06"/><circle cx="427" cy="98" r="2.2" fill="#4a2e20" opacity="0.07"/><circle cx="140" cy="274" r="2.1" fill="#4a2e20" opacity="0.07"/><circle cx="420" cy="426" r="0.7" fill="#4a2e20" opacity="0.05"/><circle cx="361" cy="388" r="2.1" fill="#4a2e20" opacity="0.05"/><circle cx="637" cy="272" r="1.1" fill="#4a2e20" opacity="0.07"/><circle cx="129" cy="381" r="1.3" fill="#4a2e20" opacity="0.06"/><circle cx="41" cy="168" r="0.6" fill="#4a2e20" opacity="0.05"/><circle cx="518" cy="319" r="0.5" fill="#4a2e20" opacity="0.08"/><circle cx="593" cy="349" r="0.9" fill="#4a2e20" opacity="0.05"/><circle cx="331" cy="313" r="1.1" fill="#4a2e20" opacity="0.04"/><circle cx="210" cy="352" r="0.9" fill="#4a2e20" opacity="0.03"/><circle cx="35" cy="259" r="2.2" fill="#4a2e20" opacity="0.03"/>
  <circle cx="320" cy="222" r="136" fill="#fffdf8" opacity="0.85"/>
  <circle cx="320" cy="222" r="136" fill="none" stroke="#f1e7d2" stroke-width="3"/><path d="M 320 222 L 320.0 222.0 L 320.9 222.1 L 321.7 222.5 L 322.4 223.1 L 323.0 223.9 L 323.4 224.9 L 323.6 226.0 L 323.5 227.2 L 323.1 228.4 L 322.5 229.6 L 321.5 230.8 L 320.3 231.8 L 318.9 232.6 L 317.2 233.2 L 315.3 233.5 L 313.3 233.5 L 311.2 233.2 L 309.1 232.5 L 307.1 231.4 L 305.1 229.9 L 303.3 228.1 L 301.7 225.9 L 300.5 223.4 L 299.6 220.6 L 299.1 217.6 L 299.1 214.4 L 299.6 211.1 L 300.6 207.9 L 302.1 204.7 L 304.1 201.7 L 306.7 198.9 L 309.7 196.5 L 313.1 194.4 L 316.9 192.8 L 321.1 191.8 L 325.4 191.4 L 329.9 191.6 L 334.4 192.4 L 338.9 194.0 L 343.2 196.2 L 347.2 199.1 L 350.9 202.7 L 354.1 206.8 L 356.7 211.5 L 358.7 216.6 L 360.0 222.0 L 360.5 227.7 L 360.2 233.5 L 359.0 239.4 L 356.9 245.1 L 354.0 250.6 L 350.3 255.7 L 345.8 260.3 L 340.7 264.3 L 334.8 267.7 L 328.5 270.1 L 321.7 271.7 L 314.7 272.4 L 307.5 272.0 L 300.4 270.6 L 293.3 268.2 L 286.6 264.7 L 280.4 260.3 L 274.7 254.9 L 269.8 248.7 L 265.7 241.8 L 262.6 234.2 L 260.6 226.2 L 259.7 217.8 L 260.0 209.2 L 261.5 200.7 L 264.3 192.4 L 268.2 184.4 L 273.3 176.9 L 279.5 170.2 L 286.7 164.3 L 294.7 159.4 L 303.4 155.6 L 312.8 153.0 L 322.5 151.8 L 332.3 152.0 L 342.2 153.5 L 352.0 156.5 L 361.3 160.8 L 370.0 166.5 L 377.9 173.4 L 384.8 181.5 L 390.6 190.5 L 395.2 200.4 L 398.3 211.0 L 400.0 222.0 L 400.1 233.3 L 398.6 244.5 L 395.5 255.6 L 390.9 266.3 L 384.7 276.3 L 377.1 285.4 L 368.2 293.5 L 358.2 300.3 L 347.2 305.7 L 335.4 309.5 L 323.1 311.7 L 310.5 312.2 L 297.9 310.8 L 285.4 307.7 L 273.3 302.8 L 262.0 296.2 L 251.6 288.1 L 242.3 278.4 L 234.5 267.5 L 228.1 255.4 L 223.5 242.5 L 220.7 228.9 L 219.8 215.0 L 220.9 200.9 L 223.9 187.0 L 229.0 173.6 L 235.9 160.9 L 244.5 149.1 L 254.9 138.6 L 266.7 129.6 L 279.7 122.3 L 293.8 116.8 L 308.6 113.3 L 323.8 111.8 L 339.3 112.6 L 354.6 115.5 L 369.5 120.5 L 383.6 127.7 L 396.7 136.8 L 408.5 147.7 L 418.8 160.3 L 427.2 174.3 L 433.6 189.4 L 438.0 205.4" fill="none" stroke="#b4392b" stroke-width="9" stroke-linecap="round" opacity="0.9"/>
  <path d="M 320 222 L 320.0 222.0 L 320.9 222.1 L 321.7 222.5 L 322.4 223.1 L 323.0 223.9 L 323.4 224.9 L 323.6 226.0 L 323.5 227.2 L 323.1 228.4 L 322.5 229.6 L 321.5 230.8 L 320.3 231.8 L 318.9 232.6 L 317.2 233.2 L 315.3 233.5 L 313.3 233.5 L 311.2 233.2 L 309.1 232.5 L 307.1 231.4 L 305.1 229.9 L 303.3 228.1 L 301.7 225.9 L 300.5 223.4 L 299.6 220.6 L 299.1 217.6 L 299.1 214.4 L 299.6 211.1 L 300.6 207.9 L 302.1 204.7 L 304.1 201.7 L 306.7 198.9 L 309.7 196.5 L 313.1 194.4 L 316.9 192.8 L 321.1 191.8 L 325.4 191.4 L 329.9 191.6 L 334.4 192.4 L 338.9 194.0 L 343.2 196.2 L 347.2 199.1 L 350.9 202.7 L 354.1 206.8 L 356.7 211.5 L 358.7 216.6 L 360.0 222.0 L 360.5 227.7 L 360.2 233.5 L 359.0 239.4 L 356.9 245.1 L 354.0 250.6 L 350.3 255.7 L 345.8 260.3 L 340.7 264.3 L 334.8 267.7 L 328.5 270.1 L 321.7 271.7 L 314.7 272.4 L 307.5 272.0 L 300.4 270.6 L 293.3 268.2 L 286.6 264.7 L 280.4 260.3 L 274.7 254.9 L 269.8 248.7 L 265.7 241.8 L 262.6 234.2 L 260.6 226.2 L 259.7 217.8 L 260.0 209.2 L 261.5 200.7 L 264.3 192.4 L 268.2 184.4 L 273.3 176.9 L 279.5 170.2 L 286.7 164.3 L 294.7 159.4 L 303.4 155.6 L 312.8 153.0 L 322.5 151.8 L 332.3 152.0 L 342.2 153.5 L 352.0 156.5 L 361.3 160.8 L 370.0 166.5 L 377.9 173.4 L 384.8 181.5 L 390.6 190.5 L 395.2 200.4 L 398.3 211.0 L 400.0 222.0 L 400.1 233.3 L 398.6 244.5 L 395.5 255.6 L 390.9 266.3 L 384.7 276.3 L 377.1 285.4 L 368.2 293.5 L 358.2 300.3 L 347.2 305.7 L 335.4 309.5 L 323.1 311.7 L 310.5 312.2 L 297.9 310.8 L 285.4 307.7 L 273.3 302.8 L 262.0 296.2 L 251.6 288.1 L 242.3 278.4 L 234.5 267.5 L 228.1 255.4 L 223.5 242.5 L 220.7 228.9 L 219.8 215.0 L 220.9 200.9 L 223.9 187.0 L 229.0 173.6 L 235.9 160.9 L 244.5 149.1 L 254.9 138.6 L 266.7 129.6 L 279.7 122.3 L 293.8 116.8 L 308.6 113.3 L 323.8 111.8 L 339.3 112.6 L 354.6 115.5 L 369.5 120.5 L 383.6 127.7 L 396.7 136.8 L 408.5 147.7 L 418.8 160.3 L 427.2 174.3 L 433.6 189.4 L 438.0 205.4" fill="none" stroke="#d99a2b" stroke-width="3" stroke-linecap="round" opacity="0.6"/>
  
</svg>