<svg xmlns="http://www.w3.org/2000/svg" viewBox="0 0 640 480" width="640" height="480" role="img">
  <defs>
    <radialGradient id="g109" cx="32%" cy="26%" r="85%">
      <stop offset="0%" stop-color="#fffdf8"/>
      <stop offset="55%" stop-color="#d99a2b" stop-opacity="0.30"/>
      <stop offset="100%" stop-color="#b4392b" stop-opacity="0.42"/>
    </radialGradient>
    <linearGradient id="g109p" x1="0" y1="0" x2="0" y2="1">
      <stop offset="0%" stop-color="#fffdf8"/>
      <stop offset="100%" stop-color="#f1e7d2"/>
    </linearGradient>
  </defs>
  <rect width="640" height="480" fill="#faf4e8"/>
  <rect width="640" height="480" fill="url(#g109)"/>
  <circle cx="596" cy="392" r="1.7" fill="#4a2e20" opacity="0.03"/><circle cx="208" cy="242" r="1.6" fill="#4a2e20" opacity="0.03"/><circle cx="260" cy="371" r="1.3" fill="#4a2e20" opacity="0.03"/><circle cx="160" cy="205" r="1.0" fill="#4a2e20" opacity="0.05"/><circle cx="608" cy="107" r="1.0" fill="#4a2e20" opacity="0.06"/><circle cx="552" cy="298" r="2.0" fill="#4a2e20" opacity="0.06"/><circle cx="275" cy="98" r="2.2" fill="#4a2e20" opacity="0.07"/><circle cx="486" cy="305" r="2.1" fill="#4a2e20" opacity="0.08"/><circle cx="48" cy="338" r="1.3" fill="#4a2e20" opacity="0.03"/><circle cx="126" cy="132" r="1.1" fill="#4a2e20" opacity="0.02"/><circle cx="228" cy="161" r="1.0" fill="#4a2e20" opacity="0.03"/><circle cx="447" cy="297" r="1.7" fill="#4a2e20" opacity="0.02"/><circle cx="565" cy="287" r="1.3" fill="#4a2e20" opacity="0.07"/><circle cx="216" cy="290" r="0.9" fill="#4a2e20" opacity="0.04"/><circle cx="613" cy="177" r="2.1" fill="#4a2e20" opacity="0.03"/><circle cx="273" cy="14" r="1.0" fill="#4a2e20" opacity="0.02"/><circle cx="558" cy="406" r="2.0" fill="#4a2e20" opacity="0.04"/><circle cx="511" cy="54" r="2.2" fill="#4a2e20" opacity="0.06"/><circle cx="305" cy="360" r="0.5" fill="#4a2e20" opacity="0.05"/><circle cx="418" cy="397" r="0.6" fill="#4a2e20" opacity="0.04"/><circle cx="102" cy="198" r="1.6" fill="#4a2e20" opacity="0.07"/><circle cx="562" cy="364" r="0.6" fill="#4a2e20" opacity="0.06"/><circle cx="249" cy="461" r="0.9" fill="#4a2e20" opacity="0.02"/><circle cx="267" cy="137" r="1.4" fill="#4a2e20" opacity="0.07"/><circle cx="566" cy="385" r="1.9" fill="#4a2e20" opacity="0.07"/><circle cx="457" cy="2" r="1.5" fill="#4a2e20" opacity="0.04"/><circle cx="319" cy="379" r="2.2" fill="#4a2e20" opacity="0.02"/><circle cx="221" cy="221" r="2.0" fill="#4a2e20" opacity="0.04"/><circle cx="475" cy="328" r="1.4" fill="#4a2e20" opacity="0.05"/><circle cx="555" cy="421" r="1.2" fill="#4a2e20" opacity="0.08"/><circle cx="129" cy="152" r="1.2" fill="#4a2e20" opacity="0.03"/><circle cx="579" cy="120" r="1.1" fill="#4a2e20" opacity="0.03"/><circle cx="414" cy="158" r="1.6" fill="#4a2e20" opacity="0.05"/><circle cx="87" cy="42" r="0.5" fill="#4a2e20" opacity="0.02"/><circle cx="199" cy="146" r="2.0" fill="#4a2e20" opacity="0.04"/><circle cx="56" cy="375" r="1.9" fill="#4a2e20" opacity="0.06"/>
  <circle cx="320" cy="222" r="136" fill="#fffdf8" opacity="0.85"/>
  <circle cx="320" cy="222" r="136" fill="none" stroke="#f1e7d2" stroke-width="3"/><circle cx="320" cy="222" r="120" fill="#b9781a"/>
  <circle cx="320" cy="222" r="120" fill="none" stroke="#4a2e20" stroke-opacity="0.35" stroke-width="3"/>
  <ellipse cx="286.4" cy="186" rx="54" ry="36" fill="#fff" opacity="0.16"/><circle cx="284" cy="222" r="7" fill="#1f4a33"/>
     <circle cx="344" cy="198" r="7" fill="#b4392b"/>
     <circle cx="356" cy="252" r="6" fill="#1f4a33"/>
  
</svg>