<svg xmlns="http://www.w3.org/2000/svg" viewBox="0 0 640 480" width="640" height="480" role="img">
  <defs>
    <radialGradient id="g151" cx="32%" cy="26%" r="85%">
      <stop offset="0%" stop-color="#fffdf8"/>
      <stop offset="55%" stop-color="#4a2e20" stop-opacity="0.30"/>
      <stop offset="100%" stop-color="#d99a2b" stop-opacity="0.42"/>
    </radialGradient>
    <linearGradient id="g151p" x1="0" y1="0" x2="0" y2="1">
      <stop offset="0%" stop-color="#fffdf8"/>
      <stop offset="100%" stop-color="#f1e7d2"/>
    </linearGradient>
  </defs>
  <rect width="640" height="480" fill="#faf4e8"/>
  <rect width="640" height="480" fill="url(#g151)"/>
  <circle cx="179" cy="71" r="1.0" fill="#4a2e20" opacity="0.04"/><circle cx="540" cy="245" r="1.5" fill="#4a2e20" opacity="0.04"/><circle cx="58" cy="450" r="1.4" fill="#4a2e20" opacity="0.04"/><circle cx="186" cy="125" r="0.9" fill="#4a2e20" opacity="0.05"/><circle cx="589" cy="89" r="1.3" fill="#4a2e20" opacity="0.07"/><circle cx="83" cy="64" r="2.0" fill="#4a2e20" opacity="0.05"/><circle cx="317" cy="156" r="2.1" fill="#4a2e20" opacity="0.07"/><circle cx="5" cy="352" r="0.7" fill="#4a2e20" opacity="0.02"/><circle cx="6" cy="67" r="1.8" fill="#4a2e20" opacity="0.03"/><circle cx="248" cy="473" r="2.0" fill="#4a2e20" opacity="0.07"/><circle cx="481" cy="368" r="1.5" fill="#4a2e20" opacity="0.05"/><circle cx="7" cy="443" r="1.5" fill="#4a2e20" opacity="0.08"/><circle cx="390" cy="395" r="1.1" fill="#4a2e20" opacity="0.04"/><circle cx="131" cy="463" r="1.4" fill="#4a2e20" opacity="0.03"/><circle cx="195" cy="60" r="1.7" fill="#4a2e20" opacity="0.05"/><circle cx="539" cy="178" r="1.4" fill="#4a2e20" opacity="0.03"/><circle cx="405" cy="407" r="1.1" fill="#4a2e20" opacity="0.06"/><circle cx="500" cy="264" r="0.6" fill="#4a2e20" opacity="0.05"/><circle cx="353" cy="123" r="1.0" fill="#4a2e20" opacity="0.06"/><circle cx="307" cy="75" r="1.4" fill="#4a2e20" opacity="0.05"/><circle cx="256" cy="393" r="0.8" fill="#4a2e20" opacity="0.06"/><circle cx="483" cy="415" r="0.8" fill="#4a2e20" opacity="0.05"/><circle cx="458" cy="149" r="1.7" fill="#4a2e20" opacity="0.04"/><circle cx="138" cy="316" r="2.2" fill="#4a2e20" opacity="0.05"/><circle cx="558" cy="142" r="1.3" fill="#4a2e20" opacity="0.06"/><circle cx="62" cy="377" r="1.8" fill="#4a2e20" opacity="0.05"/><circle cx="86" cy="197" r="0.5" fill="#4a2e20" opacity="0.04"/><circle cx="287" cy="57" r="1.3" fill="#4a2e20" opacity="0.02"/><circle cx="576" cy="334" r="1.8" fill="#4a2e20" opacity="0.06"/><circle cx="20" cy="25" r="1.7" fill="#4a2e20" opacity="0.03"/><circle cx="15" cy="389" r="2.3" fill="#4a2e20" opacity="0.05"/><circle cx="103" cy="118" r="0.8" fill="#4a2e20" opacity="0.02"/><circle cx="114" cy="19" r="1.1" fill="#4a2e20" opacity="0.06"/><circle cx="240" cy="155" r="2.3" fill="#4a2e20" opacity="0.03"/><circle cx="71" cy="284" r="2.3" fill="#4a2e20" opacity="0.07"/><circle cx="102" cy="133" r="1.1" fill="#4a2e20" opacity="0.04"/>
  <circle cx="320" cy="222" r="136" fill="#fffdf8" opacity="0.85"/>
  <circle cx="320" cy="222" r="136" fill="none" stroke="#f1e7d2" stroke-width="3"/><rect x="230" y="155.4" width="180" height="159.6" rx="16" fill="#d99a2b"/><rect x="230" y="129" width="180" height="45.6" rx="9" fill="#4a2e20" opacity="0.85"/><rect x="237" y="207.12" width="166" height="55.8" rx="7" fill="#fffdf8" opacity="0.88"/>
  
</svg>