<svg xmlns="http://www.w3.org/2000/svg" viewBox="0 0 640 480" width="640" height="480" role="img">
  <defs>
    <radialGradient id="g140" cx="32%" cy="26%" r="85%">
      <stop offset="0%" stop-color="#fffdf8"/>
      <stop offset="55%" stop-color="#4a2e20" stop-opacity="0.30"/>
      <stop offset="100%" stop-color="#b4392b" stop-opacity="0.42"/>
    </radialGradient>
    <linearGradient id="g140p" x1="0" y1="0" x2="0" y2="1">
      <stop offset="0%" stop-color="#fffdf8"/>
      <stop offset="100%" stop-color="#f1e7d2"/>
    </linearGradient>
  </defs>
  <rect width="640" height="480" fill="#faf4e8"/>
  <rect width="640" height="480" fill="url(#g140)"/>
  <circle cx="144" cy="82" r="1.0" fill="#4a2e20" opacity="0.07"/><circle cx="310" cy="445" r="0.8" fill="#4a2e20" opacity="0.03"/><circle cx="84" cy="453" r="2.0" fill="#4a2e20" opacity="0.05"/><circle cx="114" cy="231" r="2.1" fill="#4a2e20" opacity="0.06"/><circle cx="92" cy="282" r="1.6" fill="#4a2e20" opacity="0.07"/><circle cx="190" cy="41" r="1.9" fill="#4a2e20" opacity="0.04"/><circle cx="463" cy="431" r="2.5" fill="#4a2e20" opacity="0.04"/><circle cx="210" cy="368" r="2.2" fill="#4a2e20" opacity="0.02"/><circle cx="375" cy="174" r="1.7" fill="#4a2e20" opacity="0.07"/><circle cx="151" cy="252" r="2.4" fill="#4a2e20" opacity="0.06"/><circle cx="203" cy="35" r="1.2" fill="#4a2e20" opacity="0.07"/><circle cx="179" cy="236" r="2.2" fill="#4a2e20" opacity="0.05"/><circle cx="547" cy="258" r="2.1" fill="#4a2e20" opacity="0.08"/><circle cx="524" cy="263" r="0.8" fill="#4a2e20" opacity="0.03"/><circle cx="328" cy="46" r="1.2" fill="#4a2e20" opacity="0.06"/><circle cx="42" cy="170" r="2.3" fill="#4a2e20" opacity="0.04"/><circle cx="383" cy="199" r="1.8" fill="#4a2e20" opacity="0.07"/><circle cx="53" cy="362" r="2.4" fill="#4a2e20" opacity="0.08"/><circle cx="179" cy="158" r="1.7" fill="#4a2e20" opacity="0.05"/><circle cx="304" cy="265" r="2.0" fill="#4a2e20" opacity="0.02"/><circle cx="224" cy="67" r="0.7" fill="#4a2e20" opacity="0.04"/><circle cx="537" cy="355" r="1.4" fill="#4a2e20" opacity="0.06"/><circle cx="269" cy="299" r="2.4" fill="#4a2e20" opacity="0.02"/><circle cx="528" cy="153" r="1.4" fill="#4a2e20" opacity="0.02"/><circle cx="416" cy="347" r="1.0" fill="#4a2e20" opacity="0.06"/><circle cx="546" cy="305" r="1.3" fill="#4a2e20" opacity="0.02"/><circle cx="424" cy="43" r="1.7" fill="#4a2e20" opacity="0.04"/><circle cx="320" cy="334" r="2.2" fill="#4a2e20" opacity="0.02"/><circle cx="117" cy="357" r="1.1" fill="#4a2e20" opacity="0.03"/><circle cx="426" cy="145" r="2.4" fill="#4a2e20" opacity="0.05"/><circle cx="636" cy="221" r="1.5" fill="#4a2e20" opacity="0.05"/><circle cx="118" cy="200" r="1.1" fill="#4a2e20" opacity="0.03"/><circle cx="170" cy="460" r="1.0" fill="#4a2e20" opacity="0.05"/><circle cx="395" cy="425" r="1.1" fill="#4a2e20" opacity="0.03"/><circle cx="623" cy="307" r="1.7" fill="#4a2e20" opacity="0.03"/><circle cx="625" cy="27" r="1.0" fill="#4a2e20" opacity="0.05"/>
  <circle cx="320" cy="222" r="136" fill="#fffdf8" opacity="0.85"/>
  <circle cx="320" cy="222" r="136" fill="none" stroke="#f1e7d2" stroke-width="3"/><rect x="239" y="150" width="162" height="144" rx="16" fill="#b4392b"/><ellipse cx="320" cy="150" rx="81" ry="25.92" fill="#4a2e20" opacity="0.55"/><path d="M 397 196.08 q 66 0 66 40.800000000000004 q 0 40.800000000000004 -66 40.800000000000004" fill="none" stroke="#b4392b" stroke-width="12"/><g stroke="#4a2e20" stroke-opacity="0.18" stroke-width="4" fill="none" stroke-linecap="round">
    <path d="M 302 142 q 10 -20 0 -40 q -10 -20 0 -40"/>
    <path d="M 338 142 q 10 -20 0 -40 q -10 -20 0 -40"/>
  </g>
  
</svg>