<svg xmlns="http://www.w3.org/2000/svg" viewBox="0 0 640 480" width="640" height="480" role="img">
  <defs>
    <radialGradient id="g120" cx="32%" cy="26%" r="85%">
      <stop offset="0%" stop-color="#fffdf8"/>
      <stop offset="55%" stop-color="#b4392b" stop-opacity="0.30"/>
      <stop offset="100%" stop-color="#d99a2b" stop-opacity="0.42"/>
    </radialGradient>
    <linearGradient id="g120p" x1="0" y1="0" x2="0" y2="1">
      <stop offset="0%" stop-color="#fffdf8"/>
      <stop offset="100%" stop-color="#f1e7d2"/>
    </linearGradient>
  </defs>
  <rect width="640" height="480" fill="#faf4e8"/>
  <rect width="640" height="480" fill="url(#g120)"/>
  <circle cx="605" cy="5" r="1.4" fill="#4a2e20" opacity="0.03"/><circle cx="607" cy="242" r="0.6" fill="#4a2e20" opacity="0.04"/><circle cx="536" cy="438" r="1.6" fill="#4a2e20" opacity="0.04"/><circle cx="416" cy="141" r="0.9" fill="#4a2e20" opacity="0.07"/><circle cx="555" cy="72" r="0.8" fill="#4a2e20" opacity="0.05"/><circle cx="531" cy="321" r="2.2" fill="#4a2e20" opacity="0.04"/><circle cx="202" cy="122" r="1.6" fill="#4a2e20" opacity="0.05"/><circle cx="346" cy="237" r="2.5" fill="#4a2e20" opacity="0.05"/><circle cx="307" cy="152" r="2.0" fill="#4a2e20" opacity="0.07"/><circle cx="50" cy="206" r="1.8" fill="#4a2e20" opacity="0.02"/><circle cx="47" cy="410" r="1.3" fill="#4a2e20" opacity="0.05"/><circle cx="336" cy="164" r="1.6" fill="#4a2e20" opacity="0.06"/><circle cx="261" cy="52" r="0.7" fill="#4a2e20" opacity="0.04"/><circle cx="629" cy="437" r="2.0" fill="#4a2e20" opacity="0.04"/><circle cx="491" cy="17" r="1.7" fill="#4a2e20" opacity="0.03"/><circle cx="422" cy="240" r="1.7" fill="#4a2e20" opacity="0.06"/><circle cx="377" cy="6" r="1.2" fill="#4a2e20" opacity="0.02"/><circle cx="348" cy="138" r="2.0" fill="#4a2e20" opacity="0.03"/><circle cx="281" cy="411" r="2.2" fill="#4a2e20" opacity="0.06"/><circle cx="490" cy="100" r="1.3" fill="#4a2e20" opacity="0.05"/><circle cx="335" cy="84" r="1.7" fill="#4a2e20" opacity="0.04"/><circle cx="472" cy="293" r="2.4" fill="#4a2e20" opacity="0.08"/><circle cx="368" cy="454" r="1.4" fill="#4a2e20" opacity="0.05"/><circle cx="428" cy="84" r="1.3" fill="#4a2e20" opacity="0.03"/><circle cx="430" cy="150" r="2.2" fill="#4a2e20" opacity="0.03"/><circle cx="180" cy="12" r="1.3" fill="#4a2e20" opacity="0.03"/><circle cx="58" cy="203" r="2.4" fill="#4a2e20" opacity="0.04"/><circle cx="341" cy="244" r="2.2" fill="#4a2e20" opacity="0.02"/><circle cx="313" cy="150" r="1.1" fill="#4a2e20" opacity="0.03"/><circle cx="221" cy="40" r="1.2" fill="#4a2e20" opacity="0.07"/><circle cx="140" cy="2" r="2.3" fill="#4a2e20" opacity="0.02"/><circle cx="435" cy="142" r="1.4" fill="#4a2e20" opacity="0.02"/><circle cx="98" cy="217" r="0.8" fill="#4a2e20" opacity="0.06"/><circle cx="555" cy="56" r="0.7" fill="#4a2e20" opacity="0.05"/><circle cx="301" cy="362" r="2.3" fill="#4a2e20" opacity="0.04"/><circle cx="508" cy="122" r="1.7" fill="#4a2e20" opacity="0.03"/>
  <circle cx="320" cy="222" r="136" fill="#fffdf8" opacity="0.85"/>
  <circle cx="320" cy="222" r="136" fill="none" stroke="#f1e7d2" stroke-width="3"/><rect x="218" y="147" width="204" height="150" rx="12" fill="#d99a2b"/><rect x="218" y="147" width="204" height="51.00000000000001" rx="12" fill="#fffdf8" opacity="0.95"/><rect x="218" y="216" width="204" height="6" fill="#fffdf8" opacity="0.5"/><circle cx="320" cy="168" r="8" fill="#b4392b"/>
  
</svg>