<svg xmlns="http://www.w3.org/2000/svg" viewBox="0 0 640 480" width="640" height="480" role="img">
  <defs>
    <radialGradient id="g111" cx="32%" cy="26%" r="85%">
      <stop offset="0%" stop-color="#fffdf8"/>
      <stop offset="55%" stop-color="#1f4a33" stop-opacity="0.30"/>
      <stop offset="100%" stop-color="#d99a2b" stop-opacity="0.42"/>
    </radialGradient>
    <linearGradient id="g111p" x1="0" y1="0" x2="0" y2="1">
      <stop offset="0%" stop-color="#fffdf8"/>
      <stop offset="100%" stop-color="#f1e7d2"/>
    </linearGradient>
  </defs>
  <rect width="640" height="480" fill="#faf4e8"/>
  <rect width="640" height="480" fill="url(#g111)"/>
  <circle cx="634" cy="386" r="0.7" fill="#4a2e20" opacity="0.05"/><circle cx="639" cy="367" r="1.3" fill="#4a2e20" opacity="0.05"/><circle cx="115" cy="241" r="1.9" fill="#4a2e20" opacity="0.04"/><circle cx="326" cy="387" r="0.7" fill="#4a2e20" opacity="0.04"/><circle cx="471" cy="95" r="2.3" fill="#4a2e20" opacity="0.07"/><circle cx="430" cy="33" r="1.7" fill="#4a2e20" opacity="0.02"/><circle cx="275" cy="47" r="2.0" fill="#4a2e20" opacity="0.05"/><circle cx="406" cy="353" r="1.0" fill="#4a2e20" opacity="0.04"/><circle cx="419" cy="271" r="1.5" fill="#4a2e20" opacity="0.05"/><circle cx="163" cy="54" r="1.5" fill="#4a2e20" opacity="0.05"/><circle cx="56" cy="237" r="2.0" fill="#4a2e20" opacity="0.06"/><circle cx="470" cy="31" r="2.2" fill="#4a2e20" opacity="0.03"/><circle cx="624" cy="92" r="0.9" fill="#4a2e20" opacity="0.06"/><circle cx="619" cy="457" r="1.6" fill="#4a2e20" opacity="0.06"/><circle cx="133" cy="340" r="1.9" fill="#4a2e20" opacity="0.03"/><circle cx="87" cy="164" r="2.3" fill="#4a2e20" opacity="0.07"/><circle cx="400" cy="143" r="2.0" fill="#4a2e20" opacity="0.02"/><circle cx="553" cy="339" r="2.1" fill="#4a2e20" opacity="0.02"/><circle cx="31" cy="65" r="0.7" fill="#4a2e20" opacity="0.05"/><circle cx="246" cy="100" r="1.3" fill="#4a2e20" opacity="0.05"/><circle cx="21" cy="108" r="0.7" fill="#4a2e20" opacity="0.05"/><circle cx="153" cy="189" r="0.5" fill="#4a2e20" opacity="0.06"/><circle cx="346" cy="330" r="1.9" fill="#4a2e20" opacity="0.02"/><circle cx="589" cy="137" r="2.2" fill="#4a2e20" opacity="0.06"/><circle cx="281" cy="231" r="1.2" fill="#4a2e20" opacity="0.03"/><circle cx="452" cy="121" r="1.6" fill="#4a2e20" opacity="0.06"/><circle cx="225" cy="217" r="2.1" fill="#4a2e20" opacity="0.05"/><circle cx="563" cy="410" r="0.8" fill="#4a2e20" opacity="0.08"/><circle cx="91" cy="105" r="0.8" fill="#4a2e20" opacity="0.06"/><circle cx="128" cy="120" r="1.0" fill="#4a2e20" opacity="0.07"/><circle cx="532" cy="116" r="1.9" fill="#4a2e20" opacity="0.08"/><circle cx="552" cy="70" r="2.4" fill="#4a2e20" opacity="0.08"/><circle cx="623" cy="108" r="1.9" fill="#4a2e20" opacity="0.04"/><circle cx="430" cy="176" r="2.2" fill="#4a2e20" opacity="0.03"/><circle cx="327" cy="443" r="0.5" fill="#4a2e20" opacity="0.05"/><circle cx="108" cy="77" r="1.7" fill="#4a2e20" opacity="0.03"/>
  <circle cx="320" cy="222" r="136" fill="#fffdf8" opacity="0.85"/>
  <circle cx="320" cy="222" r="136" fill="none" stroke="#f1e7d2" stroke-width="3"/><rect x="194" y="154" width="252" height="156" rx="14" fill="#4a2e20" opacity="0.9"/>
  <rect x="194" y="154" width="252" height="62.400000000000006" rx="14" fill="#f1e7d2"/><circle cx="254" cy="198.6" r="54" fill="#b4392b"/>
  <circle cx="254" cy="198.6" r="54" fill="none" stroke="#4a2e20" stroke-opacity="0.35" stroke-width="3"/>
  <ellipse cx="238.88" cy="182.4" rx="24.3" ry="16.2" fill="#fff" opacity="0.16"/><circle cx="380" cy="187.68" r="60" fill="#d99a2b"/>
  <circle cx="380" cy="187.68" r="60" fill="none" stroke="#4a2e20" stroke-opacity="0.35" stroke-width="3"/>
  <ellipse cx="363.2" cy="169.68" rx="27" ry="18" fill="#fff" opacity="0.16"/><g stroke="#4a2e20" stroke-opacity="0.5" stroke-width="3" stroke-linecap="round"><line x1="392" y1="187.68" x2="429.2" y2="187.68"/><line x1="388.4852813742386" y1="196.1652813742386" x2="414.78965363437817" y2="222.46965363437815"/><line x1="380" y1="199.68" x2="380" y2="236.88"/><line x1="371.5147186257614" y1="196.1652813742386" x2="345.2103463656219" y2="222.46965363437815"/><line x1="368" y1="187.68" x2="330.8" y2="187.68"/><line x1="371.5147186257614" y1="179.19471862576142" x2="345.21034636562183" y2="152.89034636562187"/><line x1="380" y1="175.68" x2="380" y2="138.48000000000002"/><line x1="388.4852813742386" y1="179.19471862576142" x2="414.7896536343781" y2="152.89034636562187"/></g><ellipse cx="326" cy="214.2" rx="48" ry="26.4" fill="#b4392b" opacity="0.85"/>
  
</svg>